<svg xmlns="http://www.w3.org/2000/svg" viewBox="0 0 736.92 147.85"><defs><style>.cls-1{font-size:87px;fill:#ffae02;font-family:Gagalin-Regular, Gagalin;}.cls-2{fill:#fff;}</style></defs><title>moving-logo_5</title><g id="Шар_2" data-name="Шар 2"><g id="OBJECTS"><text class="cls-1" transform="translate(245.64 114.14)">WorldMoving</text><path class="cls-2" d="M108.46,69.79V65.21h-4s-.08-5.42-1-5.42H95v5.42H92V77.79h3l5.58-8Z"/><path class="cls-2" d="M13.3,136.89c2.52,9.58,24.59,13.76,24.05,1.76a17.34,17.34,0,0,0-3.13-.56C27.55,137.25,13.17,136.42,13.3,136.89Z"/><polygon class="cls-2" points="206.45 35.7 206.22 31.13 189.23 24.79 206.01 26.86 206.01 26.86 240.46 31.13 186.56 12.5 151.98 0 51.46 7 54.73 30 124.38 30 127.31 42.78 134.52 113.28 137.92 111.14 149.98 5 145.86 58.08 146.01 57.31 175.82 64.71 145.49 62.91 143.62 87.03 143.62 87.03 172.43 86.44 143.2 92.48 141.31 116.9 176.47 104.27 186.63 75.4 208.24 71.64 207.86 64.03 190.48 57.98 207.26 60.06 207.68 60.33 207.66 60.07 229.46 60.45 207.46 56.03 206.99 46.56 190.48 40.82 206.8 42.84 206.8 42.73 236.46 44.5 206.45 35.7"/><path class="cls-2" d="M130.85,124.37l-1-18.27c0-.81-.07-1.61-.13-2.4Q129,94.33,127.92,85q-1.82-16.14-4.56-32.14c-.77-4.49-1.86-9.4-5.51-12.12-9.25-6.86-21.18-3.78-31.92-4-15.42-.3-30.85-.74-46.27-.5-8,.12-15.34.45-21,7C14.61,48,13,54.34,11.46,60.42,7.28,77.23,5,92.84,5.09,110.1c0-1.15-4,1.5-4.24,1.87-1.17,1.5-.8,4.08-.79,5.81,0,4.27-.13,9.65,3.18,12.65,2.42,2.18,5.75,3,9,3.63A184.87,184.87,0,0,0,53,137.62c11.79-.29,25.41,1.71,36.7-1.94l.18-.06c-.54,3.54,1.57,7.19,4.58,9.21,4.62,3.1,14,4.42,18.81,1,2.8-2,4.34-5.21,5.11-8.79a34.44,34.44,0,0,0,.62-7.87v0ZM6.86,96.61l9.93.94,2.11,2.18v7.06l-2.11.67-8.25-.17-1.68-1.17Zm.28,19.15c-9.3-3.14-1.85-2.4-1.85-2.4l1.85.63a245.42,245.42,0,0,0,27.47,3.11c15.47.9,37.89,2.25,37.89,2.25S16.45,118.89,7.14,115.76Zm45.65-9.51v2.44L22.13,107.3v-3.1Zm-30.66-4.6v-3.1l30.66,2V103ZM77.77,110H58.43l-2.52-1.51V100.4l2.52-1.85H75.12l2.37,3.12-8.78,1.73,10.58.65.16.22Zm-3.3-36.89-3,8.35L11.9,79.35C13.58,63.56,17.18,52.87,19.67,47a8.73,8.73,0,0,1,8-5.33h9V70.13l-13.47,8,46.41,1,1.79-6,8-3,.15-7.56-7.1-2.44-4.82,9.33H60.1l-4.18-6.89H45.48l-3.35,3.64s0-15.89-2-24.52H76.52A5.46,5.46,0,0,1,82,47l.72,26.09ZM90,50.6a7.86,7.86,0,0,1,8.87-7.76l6.56.86a5.91,5.91,0,0,1,5.15,5.67l.67,21.05-5.48.55a8.22,8.22,0,0,0-6.27,4L95,81.44H89.88Zm.38,49.83-2.5,20.94,2-34.34H92l-1.07,9,28.49-2.57Zm6,23.94s-.68-14.37,13-16.05c6.42-.79,8.45,6,9,8.81l0,.71c-.63-1.76-3.38-8.54-7.94-8.17C98.72,110.63,96.33,124.37,96.33,124.37Zm19.55,10a12.41,12.41,0,0,1-1.93,6c-2.06,2.65-4.77.68-5.88-3.34a28.31,28.31,0,0,1-.4-10.46c.38-3.11,1.11-6.22,2.43-8.11s3.36-2.16,4.55.06a15.82,15.82,0,0,1,1.22,5.68A54.3,54.3,0,0,1,115.88,134.36ZM118.4,122c-.15-1-.33-2-.57-3l.6-.2.41,6.88C118.72,124.44,118.57,123.18,118.4,122Z"/></g></g></svg>