<svg xmlns="http://www.w3.org/2000/svg" viewBox="0 0 168.28 79.05"><defs><style>.cls-1{fill:#f7971e;}.cls-2{fill:#1a1a1a;}.cls-3{fill:#333;}.cls-4{fill:#427eec;}.cls-5{fill:#77a7fb;}.cls-6{fill:#4385f5;}.cls-7{fill:#b2b2b2;}.cls-8{fill:#999;}.cls-9{fill:gray;}.cls-10{fill:#4d4d4d;}.cls-11{fill:#ccc;}.cls-12{fill:#fff;}.cls-13{fill:#4474e0;}.cls-14{fill:#f2f2f2;}.cls-15{fill:#666;}</style></defs><title>truck2</title><g id="Шар_2" data-name="Шар 2"><g id="icons"><rect class="cls-1" y="58.79" width="5.26" height="6.83" rx="1.84" ry="1.84"/><rect class="cls-1" x="159.95" y="61.83" width="5.87" height="9.4" rx="1.84" ry="1.84"/><path class="cls-2" d="M41.5,64.29a12,12,0,1,1-12-12A12,12,0,0,1,41.5,64.29Z"/><path class="cls-2" d="M142.3,64.29a12,12,0,1,1-12-12A12,12,0,0,1,142.3,64.29Z"/><path class="cls-2" d="M163,68.28a5.36,5.36,0,0,1-5.35,5.35H41.52a5.36,5.36,0,0,1-5.35-5.35h0a5.35,5.35,0,0,1,5.35-5.35H157.61A5.35,5.35,0,0,1,163,68.28Z"/><rect class="cls-3" x="81.69" y="62.15" width="26.39" height="9.41" rx="3.55" ry="3.55"/><rect class="cls-2" x="58.85" y="20.13" width="17.04" height="44.53"/><path class="cls-4" d="M51.07,21.38a3.8,3.8,0,0,1,0-5.37L65.4,1.69a3.78,3.78,0,0,1,5.37,0L85.08,16a3.8,3.8,0,0,1,0,5.37Z"/><path class="cls-5" d="M56,21.38A3.8,3.8,0,0,1,56,16L70.37,1.69a3.78,3.78,0,0,1,5.37,0L90.05,16a3.8,3.8,0,0,1,0,5.37Z"/><path class="cls-6" d="M64,44.49V62.07a3.55,3.55,0,0,1-3.55,3.55H5.26a3.56,3.56,0,0,1-3.55-3.55V48a3.56,3.56,0,0,1,3.55-3.55l55.21-3.55A3.55,3.55,0,0,1,64,44.49Z"/><path class="cls-6" d="M50.3,42.71c.32,3.92-10.85-.17-24.23.91s-23.92,6.93-24.24,3,10.28-8,23.66-9.06S50,38.78,50.3,42.71Z"/><path class="cls-7" d="M6.54,52.19A2.41,2.41,0,0,1,4.13,54.6h0a2.41,2.41,0,0,1-2.42-2.41V46a2.41,2.41,0,0,1,2.42-2.41h0A2.41,2.41,0,0,1,6.54,46Z"/><rect class="cls-8" x="1.71" y="54.6" width="8.85" height="11.22" rx="3.55" ry="3.55"/><path class="cls-6" d="M64,47.51a3.55,3.55,0,0,1-3.55,3.55L38.64,46.88c-2,0-10.41-2-10.41-3.91L39.35,22.3c0-2,2.3-3.55,4.26-3.55H60.47A3.55,3.55,0,0,1,64,22.3Z"/><circle class="cls-3" cx="123.76" cy="67.95" r="11.11"/><path class="cls-2" d="M133.92,68a10.17,10.17,0,1,1-10.16-10.17A10.16,10.16,0,0,1,133.92,68Z"/><path class="cls-9" d="M131.09,68a7.34,7.34,0,1,1-7.33-7.34A7.33,7.33,0,0,1,131.09,68Z"/><path class="cls-8" d="M129.56,68a5.8,5.8,0,1,1-5.8-5.8A5.8,5.8,0,0,1,129.56,68Z"/><path class="cls-10" d="M127,68a3.29,3.29,0,1,1-3.28-3.29A3.28,3.28,0,0,1,127,68Z"/><path class="cls-10" d="M124.09,73.06a.33.33,0,0,1-.33.33h0a.34.34,0,0,1-.34-.33V62.83a.34.34,0,0,1,.34-.33h0a.33.33,0,0,1,.33.33Z"/><path class="cls-10" d="M128.87,67.61a.34.34,0,0,1,.33.34h0a.33.33,0,0,1-.33.33H118.65a.34.34,0,0,1-.34-.33h0a.34.34,0,0,1,.34-.34Z"/><path class="cls-10" d="M120.38,71.8a.33.33,0,0,1-.47,0h0a.32.32,0,0,1,0-.46l7.23-7.23a.32.32,0,0,1,.47,0h0a.34.34,0,0,1,0,.48Z"/><path class="cls-10" d="M127.61,71.32a.33.33,0,0,1,0,.47h0a.32.32,0,0,1-.47,0l-7.23-7.22a.34.34,0,0,1,0-.48h0a.33.33,0,0,1,.47,0Z"/><path class="cls-3" d="M125.68,68A1.93,1.93,0,1,1,123.76,66,1.92,1.92,0,0,1,125.68,68Z"/><rect class="cls-11" x="65.15" width="103.14" height="66.57" rx="3.55" ry="3.55"/><path class="cls-10" d="M60.84,25.85V39.42A3.55,3.55,0,0,1,57.3,43H37.45a3.54,3.54,0,0,1-3.55-3.55l2-3.81L41,25.85a3.54,3.54,0,0,1,3.55-3.55H57.3A3.55,3.55,0,0,1,60.84,25.85Z"/><path class="cls-12" d="M8.55,59.38a1.23,1.23,0,0,1-1.23,1.23H3a1.24,1.24,0,0,1-1.24-1.23h0A1.24,1.24,0,0,1,3,58.15H7.32a1.23,1.23,0,0,1,1.23,1.23Z"/><rect class="cls-13" x="26.73" y="51.41" width="37.29" height="12.59"/><path class="cls-2" d="M36.86,61.83A8.6,8.6,0,0,1,36,65.52H9.28a8.74,8.74,0,0,1-.82-3.69,8.66,8.66,0,0,1,8.66-8.64H28.21A8.64,8.64,0,0,1,36.86,61.83Z"/><path class="cls-3" d="M33.9,68A11.11,11.11,0,1,1,22.79,56.84,11.11,11.11,0,0,1,33.9,68Z"/><circle class="cls-2" cx="22.79" cy="67.95" r="10.16"/><path class="cls-9" d="M30.12,68a7.34,7.34,0,1,1-7.33-7.34A7.33,7.33,0,0,1,30.12,68Z"/><path class="cls-8" d="M28.58,68a5.8,5.8,0,1,1-5.79-5.8A5.79,5.79,0,0,1,28.58,68Z"/><path class="cls-10" d="M26.07,68a3.29,3.29,0,1,1-3.28-3.29A3.28,3.28,0,0,1,26.07,68Z"/><path class="cls-10" d="M23.12,73.06a.34.34,0,0,1-.34.33h0a.33.33,0,0,1-.33-.33V62.83a.33.33,0,0,1,.33-.33h0a.34.34,0,0,1,.34.33Z"/><path class="cls-10" d="M27.9,67.61a.34.34,0,0,1,.33.34h0a.33.33,0,0,1-.33.33H17.67a.33.33,0,0,1-.33-.33h0a.34.34,0,0,1,.33-.34Z"/><path class="cls-10" d="M19.41,71.8a.34.34,0,0,1-.48,0h0a.32.32,0,0,1,0-.46l7.23-7.23a.32.32,0,0,1,.47,0h0a.33.33,0,0,1,0,.48Z"/><path class="cls-10" d="M26.64,71.32a.32.32,0,0,1,0,.47h0a.32.32,0,0,1-.47,0l-7.22-7.22a.34.34,0,0,1,0-.48h0a.34.34,0,0,1,.48,0Z"/><path class="cls-3" d="M24.71,68A1.93,1.93,0,1,1,22.79,66,1.92,1.92,0,0,1,24.71,68Z"/><rect class="cls-14" x="68.08" y="2.38" width="97.75" height="61.61" rx="3.55" ry="3.55"/><path class="cls-3" d="M65.15,64.2a2.37,2.37,0,0,1-2.37,2.37H39.23a2.37,2.37,0,0,1-2.37-2.37h0a2.37,2.37,0,0,1,2.37-2.37H62.78a2.37,2.37,0,0,1,2.37,2.37Z"/><path class="cls-3" d="M31.86,53a.92.92,0,0,1-.92-.92V39a.86.86,0,0,1,.12-.44l8.62-15.48a.92.92,0,0,1,1.61.89L32.78,39.28V52.07A.92.92,0,0,1,31.86,53Z"/><path class="cls-5" d="M36.75,71.55h0A1.78,1.78,0,0,1,35,69.75l.12-7.94A6.88,6.88,0,0,0,28.21,55H17.12a6.88,6.88,0,0,0-6.23,9.8,1.78,1.78,0,0,1-3.21,1.52,10.42,10.42,0,0,1,9.44-14.87H28.21A10.44,10.44,0,0,1,38.64,61.83l-.12,8A1.76,1.76,0,0,1,36.75,71.55Z"/><path class="cls-15" d="M41.8,33.59a1.32,1.32,0,0,1-1.31,1.32h0a1.32,1.32,0,0,1-1.32-1.32V18.13a1.32,1.32,0,0,1,1.32-1.31h0a1.31,1.31,0,0,1,1.31,1.31Z"/><rect class="cls-3" x="56.36" y="48.75" width="4.97" height="6.64" rx="1.42" ry="1.42"/><path class="cls-3" d="M54.17,31.2V43H51V31.2a1.43,1.43,0,0,1,1.42-1.42h.33A1.43,1.43,0,0,1,54.17,31.2Z"/><path class="cls-3" d="M47.38,40.66A4.43,4.43,0,0,1,46.71,43H37.45a3.54,3.54,0,0,1-3.55-3.55l2-3.81a9.94,9.94,0,0,1,3.72-.7C43.9,34.91,47.38,37.48,47.38,40.66Z"/><rect class="cls-10" x="39.65" y="40.48" width="5.17" height="6.28" rx="1.42" ry="1.42"/><rect class="cls-8" x="38.55" y="31.97" width="3.86" height="11.65" rx="1.42" ry="1.42"/><rect class="cls-12" x="47.37" y="24.63" width="12.48" height="10.28" rx="1.42" ry="1.42"/><path class="cls-12" d="M40.49,41.57a.66.66,0,0,1-.66.66h0a.66.66,0,0,1-.66-.66V34.25a.67.67,0,0,1,.66-.66h0a.67.67,0,0,1,.66.66Z"/><path class="cls-12" d="M24.71,52.3a.89.89,0,0,1-.89.89H16.34a.89.89,0,0,1-.89-.89h0a.89.89,0,0,1,.89-.89h7.48a.89.89,0,0,1,.89.89Z"/><path class="cls-14" d="M4.43,51.68a1.52,1.52,0,0,1-1.51,1.51h0a1.52,1.52,0,0,1-1.51-1.51V45.76a1.52,1.52,0,0,1,1.51-1.51h0a1.52,1.52,0,0,1,1.51,1.51Z"/><path class="cls-12" d="M2.92,52.58a.61.61,0,0,1-.6.61h0a.61.61,0,0,1-.61-.61V47.84a.6.6,0,0,1,.61-.6h0a.6.6,0,0,1,.6.6Z"/><path class="cls-5" d="M30.57,40.4a1.77,1.77,0,0,1-1.53,2L17.77,43.86a1.77,1.77,0,0,1-2-1.52h0a1.77,1.77,0,0,1,1.53-2l11.27-1.48a1.77,1.77,0,0,1,2,1.52Z"/><path class="cls-3" d="M28.71,40.21a1.34,1.34,0,0,1-1.15,1.5L19,42.83a1.34,1.34,0,0,1-1.51-1.15h0a1.34,1.34,0,0,1,1.16-1.5l8.53-1.12a1.33,1.33,0,0,1,1.5,1.15Z"/><path class="cls-1" d="M56,18.28v.47H48.26v-.47a1.84,1.84,0,0,1,1.84-1.84h4.1A1.84,1.84,0,0,1,56,18.28Z"/></g></g></svg>