<svg xmlns="http://www.w3.org/2000/svg" viewBox="0 0 249.24 86.71"><defs><style>.cls-1{fill:#f0851d;}.cls-2{fill:#f7971e;}.cls-3{fill:#333;}.cls-4{fill:#1a1a1a;}.cls-5{fill:#b2b2b2;}.cls-6{fill:#4d4d4d;}.cls-7{fill:#ccc;}.cls-8{fill:#e6e6e6;}.cls-9{fill:#666;}.cls-10{fill:gray;}.cls-11{fill:#fff;}.cls-12{fill:#f15723;}.cls-13{fill:#999;}.cls-14{fill:#d3362d;}.cls-15{fill:#dc4437;}.cls-16{fill:#d73d32;}</style></defs><title>truck1</title><g id="Шар_2" data-name="Шар 2"><g id="icons"><path class="cls-1" d="M240.86,74.05a1.53,1.53,0,0,1-1.53,1.53h0a1.53,1.53,0,0,1-1.54-1.53V62.68a1.53,1.53,0,0,1,1.54-1.53h0a1.53,1.53,0,0,1,1.53,1.53Z"/><path class="cls-2" d="M249.24,61.68a1.08,1.08,0,0,1-1.08,1.08h0a1.07,1.07,0,0,1-1.07-1.08V53.74a1.07,1.07,0,0,1,1.07-1.07h0a1.07,1.07,0,0,1,1.08,1.07Z"/><rect class="cls-3" x="1.25" y="67.06" width="28.34" height="14.35" rx="4.1" ry="4.1"/><rect class="cls-4" x="47.04" y="15.02" width="9.46" height="46.17" rx="4.1" ry="4.1"/><rect class="cls-4" x="47.04" y="15.02" width="9.46" height="46.17" rx="4.1" ry="4.1"/><path class="cls-5" d="M0,38.35V52.29A13.54,13.54,0,0,0,13.52,65.81H36.88A13.54,13.54,0,0,0,50.4,52.29V14.69a1.26,1.26,0,0,0-.76-1.14A24.55,24.55,0,0,0,40.41,12a47.74,47.74,0,0,0-13.56,2.15c-1,.3-2.06.66-3.24,1.1-4,.78-9.3,3.39-13.57,6.68a33,33,0,0,0-5.29,5c-.35.41-.67.81-1,1.22A17.3,17.3,0,0,0,0,38.35Z"/><path class="cls-6" d="M0,38.35v12.2l4.15-.45.27,0L8.7,49.6l3.17-.35,9-1,3.4-.37c4.33,0,7.83-2.17,7.83-4.84V31.76c0-2.67-3.5-4.85-7.83-4.85H4.75c-.35.41-.67.81-1,1.22a21,21,0,0,0-2.66,4.69A14.88,14.88,0,0,0,0,38.35Z"/><path class="cls-7" d="M10.85,19.94a4.11,4.11,0,0,0,2.94,3.93A4.07,4.07,0,0,0,15,24H46.3a4.11,4.11,0,0,0,4.1-4.1V9.56a4.11,4.11,0,0,0-4.1-4.1l-24,4.1C9.22,11.73,10.85,19.94,10.85,19.94Z"/><path class="cls-8" d="M13.79,23.87A4.07,4.07,0,0,0,15,24H46.3a4.11,4.11,0,0,0,4.1-4.1V9.69a3.88,3.88,0,0,0-1.14-.17l-24,4.1C13.16,15.63,13.65,22.81,13.79,23.87Z"/><path class="cls-7" d="M0,59.89V73.48A4,4,0,0,0,.86,76a.36.36,0,0,0,.07.1,4,4,0,0,0,2.58,1.44,2.88,2.88,0,0,0,.59,0H46.3a4.09,4.09,0,0,0,4.1-4.09V48.42L4.21,55.78H4.1a4,4,0,0,0-2.64,1,4.13,4.13,0,0,0-1.2,1.7A4,4,0,0,0,0,59.89Z"/><path class="cls-3" d="M112.91,76.88A9.84,9.84,0,1,0,122.74,67,9.83,9.83,0,0,0,112.91,76.88Z"/><path class="cls-4" d="M113.88,76.74a8.86,8.86,0,1,0,8.86-8.86A8.86,8.86,0,0,0,113.88,76.74Z"/><path class="cls-9" d="M117.36,76.84a5.38,5.38,0,1,0,5.38-5.37A5.38,5.38,0,0,0,117.36,76.84Z"/><path class="cls-10" d="M117,76.84a5.79,5.79,0,1,1,5.79,5.79A5.79,5.79,0,0,1,117,76.84Zm.82,0a5,5,0,1,0,5-5A5,5,0,0,0,117.77,76.84Z"/><path class="cls-3" d="M160.67,76.88A9.84,9.84,0,1,0,170.51,67,9.84,9.84,0,0,0,160.67,76.88Z"/><path class="cls-4" d="M161.64,76.74a8.87,8.87,0,1,0,8.87-8.86A8.87,8.87,0,0,0,161.64,76.74Z"/><path class="cls-9" d="M165.13,76.84a5.38,5.38,0,1,0,5.38-5.37A5.38,5.38,0,0,0,165.13,76.84Z"/><path class="cls-10" d="M164.72,76.84a5.79,5.79,0,1,1,5.79,5.79A5.79,5.79,0,0,1,164.72,76.84Zm.82,0a5,5,0,1,0,5-5A5,5,0,0,0,165.54,76.84Z"/><path class="cls-3" d="M208.44,76.88A9.84,9.84,0,1,0,218.28,67,9.83,9.83,0,0,0,208.44,76.88Z"/><path class="cls-4" d="M209.41,76.74a8.87,8.87,0,1,0,8.87-8.86A8.87,8.87,0,0,0,209.41,76.74Z"/><path class="cls-9" d="M212.9,76.84a5.38,5.38,0,1,0,5.38-5.37A5.38,5.38,0,0,0,212.9,76.84Z"/><path class="cls-10" d="M212.49,76.84a5.79,5.79,0,1,1,5.79,5.79A5.78,5.78,0,0,1,212.49,76.84Zm.82,0a5,5,0,1,0,5-5A5,5,0,0,0,213.31,76.84Z"/><rect class="cls-4" x="63.6" y="57.43" width="36.6" height="15.23" rx="4.1" ry="4.1"/><rect class="cls-10" x="33.55" y="67.88" width="48.44" height="14.35"/><rect class="cls-6" x="105.94" y="61.19" width="133.12" height="18.03" rx="4.1" ry="4.1"/><path class="cls-3" d="M23.72,76.88A9.84,9.84,0,1,0,33.55,67,9.83,9.83,0,0,0,23.72,76.88Z"/><path class="cls-4" d="M24.69,76.74a8.87,8.87,0,1,0,8.86-8.86A8.86,8.86,0,0,0,24.69,76.74Z"/><path class="cls-9" d="M28.18,76.84a5.38,5.38,0,1,0,5.37-5.37A5.37,5.37,0,0,0,28.18,76.84Z"/><path class="cls-10" d="M27.77,76.84a5.79,5.79,0,1,1,5.78,5.79A5.78,5.78,0,0,1,27.77,76.84Zm.82,0a5,5,0,1,0,5-5A5,5,0,0,0,28.59,76.84Z"/><path class="cls-10" d="M30.81,76.88a2.75,2.75,0,1,0,2.74-2.75A2.74,2.74,0,0,0,30.81,76.88Z"/><path class="cls-3" d="M76.12,76.88A9.84,9.84,0,1,0,86,67,9.83,9.83,0,0,0,76.12,76.88Z"/><path class="cls-4" d="M77.09,76.74A8.87,8.87,0,1,0,86,67.88,8.87,8.87,0,0,0,77.09,76.74Z"/><path class="cls-9" d="M80.58,76.84A5.38,5.38,0,1,0,86,71.47,5.38,5.38,0,0,0,80.58,76.84Z"/><path class="cls-10" d="M80.17,76.84A5.79,5.79,0,1,1,86,82.63,5.79,5.79,0,0,1,80.17,76.84Zm.82,0a5,5,0,1,0,5-5A5,5,0,0,0,81,76.84Z"/><path class="cls-10" d="M83.21,76.88A2.75,2.75,0,1,0,86,74.13,2.75,2.75,0,0,0,83.21,76.88Z"/><path class="cls-3" d="M20.17,35.78V46a4,4,0,0,0,.72,2.31l3.4-.37c4.33,0,7.83-2.17,7.83-4.84V32.67a4,4,0,0,0-2.66-1H24.27A4.1,4.1,0,0,0,20.17,35.78Z"/><path class="cls-3" d="M0,38.35v12.2l4.15-.45,7.72-.85a4.07,4.07,0,0,0-.26-2L6.79,35a4.11,4.11,0,0,0-5.31-2.31l-.36.14A14.88,14.88,0,0,0,0,38.35Z"/><path class="cls-4" d="M4.42,50.06,8.7,49.6l4.85-3.93a1.49,1.49,0,0,0,.22-2.11A1.46,1.46,0,0,0,12.61,43a1.5,1.5,0,0,0-.95.34L5,48.75A1.5,1.5,0,0,0,4.42,50.06Z"/><path class="cls-5" d="M2.46,38.35v12.2L5.6,50.2V38.35A17.3,17.3,0,0,1,9.38,28.13c.3-.41.62-.81,1-1.22H7.2c-.34.41-.66.81-1,1.22A17.3,17.3,0,0,0,2.46,38.35Z"/><path class="cls-10" d="M0,60.09V76.24A2.92,2.92,0,0,0,.39,77.7h0A3,3,0,0,0,3,79.21a2.47,2.47,0,0,0,.54,0,2.92,2.92,0,0,0,1.57-.82A3,3,0,0,0,6,76.24V60.11a2.94,2.94,0,0,0-1.74-2.69A2.72,2.72,0,0,0,3,57.14a2.93,2.93,0,0,0-1.81.62A2.37,2.37,0,0,0,.87,58,3,3,0,0,0,0,60.09Z"/><path class="cls-2" d="M0,62.57V76.24A2.92,2.92,0,0,0,.39,77.7a3.85,3.85,0,0,0,.47-.08,3.93,3.93,0,0,0,1.92-1,3.93,3.93,0,0,0,1-1.62,3.58,3.58,0,0,0,.18-1.14V66.46a3.86,3.86,0,0,0-.68-2.19A3.87,3.87,0,0,0,0,62.57Z"/><path class="cls-11" d="M0,60.09v5H1.44a2.44,2.44,0,0,0,1.8-.78,2.48,2.48,0,0,0,.68-1.7,2.36,2.36,0,0,0-.22-1,2.4,2.4,0,0,0-.5-.75,3.12,3.12,0,0,0-.41-.33,2.49,2.49,0,0,0-1.35-.4Z"/><path class="cls-12" d="M0,73.82v2.42A2.92,2.92,0,0,0,.39,77.7H2a1.94,1.94,0,0,0,2-1.95,1.84,1.84,0,0,0-.18-.8,1.6,1.6,0,0,0-.4-.57A1.91,1.91,0,0,0,2,73.82Z"/><path class="cls-6" d="M13.67,55.75A1.53,1.53,0,0,0,15.43,57l4.65-.75a1.54,1.54,0,0,0,1.28-1.76h0a1.54,1.54,0,0,0-1.77-1.27L14.94,54a1.54,1.54,0,0,0-1.27,1.76Z"/><rect class="cls-13" x="40.59" y="24.03" width="9.81" height="43.85"/><path class="cls-5" d="M21,79.62a2.56,2.56,0,0,0,2.56-2.56,10,10,0,0,1,20,0,2.56,2.56,0,0,0,5.12,0,15.13,15.13,0,1,0-30.25,0A2.55,2.55,0,0,0,21,79.62Z"/><path class="cls-5" d="M73.39,79.62A2.55,2.55,0,0,0,76,77.06a10,10,0,0,1,20,0,2.56,2.56,0,0,0,5.12,0,15.13,15.13,0,1,0-30.25,0A2.55,2.55,0,0,0,73.39,79.62Z"/><rect class="cls-11" x="10.34" y="28.75" width="15.8" height="10.15" rx="4.1" ry="4.1"/><path class="cls-11" d="M32.11,11.84A1.66,1.66,0,0,0,34,13.27l7-.89a1.66,1.66,0,0,0,1.44-1.85h0a1.67,1.67,0,0,0-1.86-1.44l-7,.89a1.67,1.67,0,0,0-1.44,1.86Z"/><path class="cls-11" d="M28.18,63.28a1.34,1.34,0,0,0,1.35,1.35H32.2a1.34,1.34,0,0,0,1.35-1.35h0a1.35,1.35,0,0,0-1.35-1.35H29.53a1.35,1.35,0,0,0-1.35,1.35Z"/><rect class="cls-5" x="43.57" y="70.78" width="32.55" height="10.36" rx="4.1" ry="4.1"/><rect class="cls-7" x="47.12" y="72.34" width="25.44" height="7.24" rx="1.64" ry="1.64"/><rect class="cls-3" x="108.4" y="63.28" width="129.03" height="13.59" rx="1.64" ry="1.64"/><rect class="cls-14" x="52.95" width="194.86" height="66.24" rx="4.1" ry="4.1"/><rect class="cls-15" x="56.3" y="4.03" width="188.16" height="58.18" rx="4.1" ry="4.1"/><path class="cls-16" d="M56.3,51.81v6.31a4.09,4.09,0,0,0,4.09,4.09h180a4.1,4.1,0,0,0,4.1-4.09V9.53c-9.38,1.92-43.75,6.4-62.1,15.8C144.4,44.79,88.08,54.07,56.3,51.81Z"/><path class="cls-9" d="M14.11,21.69V24H50.4V18.42a1.64,1.64,0,0,0-1.64-1.64l-33,3.27a1.64,1.64,0,0,0-1.55,1.12A1.5,1.5,0,0,0,14.11,21.69Z"/><path class="cls-6" d="M4.42,22.6A1.43,1.43,0,0,0,5.85,24H50.4V21.18H5.85A1.43,1.43,0,0,0,4.42,22.6Z"/></g></g></svg>