<svg xmlns="http://www.w3.org/2000/svg" xmlns:xlink="http://www.w3.org/1999/xlink" version="1.1" x="0px" y="0px" viewBox="0 0 100 100" style="enable-background:new 0 0 100 100;max-width:100%" xml:space="preserve" height="100%"><g style="" fill="currentColor"><g style="" fill="currentColor"><path d="M72.5,34c-0.4-0.2-1.1-0.3-1.9-0.3H66V39h4.4c0.9,0,1.5-0.1,2-0.3c0.8-0.4,1.2-1.1,1.2-2.2C73.6,35.3,73.2,34.5,72.5,34z" style="" fill="currentColor"></path><path d="M84,5H16C9.9,5,5,9.6,5,15.3V67c0,5.7,4.9,10.3,11,10.3h7.2v15.3c0,0.9,0.6,1.8,1.5,2.2c0.4,0.2,0.7,0.2,1.1,0.2    c0.6,0,1.2-0.2,1.7-0.5l22.7-17.2H84c6.1,0,11-4.6,11-10.3V15.3C95,9.6,90.1,5,84,5z M38.1,42.4c0,2.1-0.3,3.7-1,4.9    c-1.2,2.1-3.5,3.2-6.9,3.2s-5.7-1.1-6.9-3.2c-0.7-1.2-1-2.8-1-4.9V30.3h4.2v12.1c0,1.4,0.2,2.3,0.5,3c0.5,1.1,1.6,1.7,3.3,1.7    c1.7,0,2.7-0.6,3.2-1.7c0.3-0.6,0.5-1.6,0.5-3V30.3h4.2V42.4z M54.3,50l-6.1-8.6l-2,2V50h-4.1V30.3h4.1v8.1l7.6-8.1h5.3l-8.1,8.1    L59.6,50H54.3z M78.1,50h-4.6c-0.1-0.4-0.2-0.8-0.3-1.1c-0.1-0.6-0.2-1.1-0.2-1.7l0-1.8c0-1.3-0.2-2.1-0.7-2.5    c-0.4-0.4-1.2-0.6-2.3-0.6h-4V50h-4V30.3h9.4c1.3,0,2.4,0.2,3.1,0.5c0.7,0.3,1.3,0.8,1.8,1.4c0.4,0.5,0.7,1.1,1,1.7    c0.2,0.6,0.4,1.3,0.4,2.1c0,0.9-0.2,1.9-0.7,2.8s-1.3,1.5-2.3,1.9c0.9,0.4,1.6,0.9,1.9,1.6s0.6,1.7,0.6,3.1v1.3    c0,0.9,0,1.5,0.1,1.8c0.1,0.5,0.4,0.9,0.8,1.1V50z" style="" fill="currentColor"></path></g></g></svg>