<?xml version="1.0" encoding="iso-8859-1"?>
<!-- Generator: Adobe Illustrator 19.0.0, SVG Export Plug-In . SVG Version: 6.00 Build 0)  -->
<svg version="1.1" id="Capa_1" xmlns="http://www.w3.org/2000/svg" xmlns:xlink="http://www.w3.org/1999/xlink" x="0px" y="0px"
	 viewBox="0 0 512 512" style="enable-background:new 0 0 512 512;" xml:space="preserve">
<g>
	<g>
		<path d="M418.133,247.467H93.867c-4.71,0-8.533,3.823-8.533,8.533s3.823,8.533,8.533,8.533h324.267
			c4.71,0,8.533-3.823,8.533-8.533S422.844,247.467,418.133,247.467z"/>
	</g>
</g>
<g>
	<g>
		<path d="M376.678,135.322c-66.543-66.543-174.814-66.543-241.357,0s-66.543,174.814,0,241.357
			C168.593,409.95,212.292,426.59,256,426.59c43.708,0,87.407-16.64,120.678-49.911
			C443.221,310.135,443.221,201.865,376.678,135.322z M364.612,364.612c-59.887,59.887-157.329,59.887-217.224,0
			c-59.887-59.887-59.887-157.338,0-217.224c29.943-29.943,69.282-44.919,108.612-44.919s78.669,14.976,108.612,44.919
			C424.499,207.275,424.499,304.725,364.612,364.612z"/>
	</g>
</g>
<g>
	<g>
		<path d="M384.828,144.128c-2.611-2.995-5.299-5.956-8.149-8.806c-66.543-66.543-174.814-66.543-241.357,0
			c-2.85,2.85-5.538,5.811-8.149,8.806c-1.869,2.142-2.543,5.086-1.801,7.834c0.742,2.748,2.807,4.941,5.504,5.854
			C159.735,167.569,204.868,179.2,256,179.2c51.132,0,96.265-11.631,125.124-21.385c2.697-0.913,4.762-3.106,5.504-5.854
			C387.371,149.214,386.697,146.27,384.828,144.128z M256,162.133c-41.856,0-79.582-8.192-106.914-16.418
			c59.452-57.66,154.377-57.66,213.828,0C335.582,153.941,297.856,162.133,256,162.133z"/>
	</g>
</g>
<g>
	<g>
		<path d="M294.349,114.475c-12.083-12.083-22.502-20.651-33.792-27.776c-2.637-1.664-5.956-1.749-8.678-0.256
			c-2.722,1.502-4.412,4.369-4.412,7.475v324.216c0,3.106,1.69,5.973,4.412,7.475c1.289,0.708,2.705,1.058,4.122,1.058
			c1.587,0,3.166-0.444,4.557-1.314c11.213-7.083,21.632-15.667,33.792-27.827c38.46-38.46,59.639-88.721,59.639-141.525
			S332.809,152.934,294.349,114.475z M282.283,385.459c-6.323,6.323-12.109,11.571-17.749,16.094V110.473
			c5.675,4.531,11.452,9.771,17.749,16.068c35.234,35.234,54.639,81.212,54.639,129.459
			C336.922,304.247,317.517,350.225,282.283,385.459z"/>
	</g>
</g>
<g>
	<g>
		<path d="M260.122,86.443c-2.722-1.502-6.05-1.399-8.678,0.256c-11.29,7.134-21.709,15.693-33.792,27.776
			c-38.46,38.46-59.64,88.721-59.64,141.525s21.18,103.066,59.64,141.525c12.083,12.083,22.502,20.651,33.792,27.776
			c1.391,0.87,2.97,1.314,4.557,1.314c1.417,0,2.833-0.35,4.122-1.058c2.722-1.502,4.412-4.369,4.412-7.475V93.918
			C264.533,90.812,262.844,87.945,260.122,86.443z M247.467,401.527c-5.675-4.523-11.452-9.771-17.749-16.068
			c-35.234-35.234-54.639-81.212-54.639-129.459c0-48.247,19.405-94.225,54.639-129.459c6.298-6.298,12.075-11.537,17.749-16.068
			V401.527z"/>
	</g>
</g>
<g>
	<g>
		<path d="M386.628,360.038c-0.742-2.748-2.807-4.941-5.504-5.854C352.265,344.431,307.132,332.8,256,332.8
			c-51.132,0-96.265,11.631-125.124,21.385c-2.697,0.913-4.762,3.106-5.504,5.854c-0.742,2.748-0.068,5.692,1.801,7.834
			c2.611,2.995,5.299,5.956,8.149,8.806C168.593,409.95,212.292,426.59,256,426.59c43.708,0,87.407-16.64,120.678-49.911
			c2.85-2.85,5.538-5.811,8.149-8.806C386.697,365.73,387.371,362.786,386.628,360.038z M149.086,366.285
			c27.332-8.226,65.058-16.418,106.914-16.418c41.856,0,79.582,8.192,106.914,16.418
			C303.462,423.945,208.538,423.945,149.086,366.285z"/>
	</g>
</g>
<g>
	<g>
		<path d="M256,0C114.842,0,0,114.842,0,256c0,69.402,27.315,134.366,76.902,182.921c1.664,1.63,3.823,2.44,5.973,2.44
			c2.21,0,4.42-0.853,6.101-2.56c3.294-3.362,3.243-8.772-0.128-12.066C42.556,381.406,17.067,320.777,17.067,256
			c0-128.887,102.588-234.274,230.4-238.78v42.513c0,4.71,3.823,8.533,8.533,8.533s8.533-3.823,8.533-8.533v-51.2
			C264.533,3.823,260.71,0,256,0z"/>
	</g>
</g>
<g>
	<g>
		<path d="M110.933,409.6c-23.526,0-42.667,19.14-42.667,42.667c0,23.526,19.14,42.667,42.667,42.667
			c23.526,0,42.667-19.14,42.667-42.667C153.6,428.74,134.46,409.6,110.933,409.6z M110.933,477.867
			c-14.114,0-25.6-11.486-25.6-25.6c0-14.114,11.486-25.6,25.6-25.6s25.6,11.486,25.6,25.6
			C136.533,466.381,125.047,477.867,110.933,477.867z"/>
	</g>
</g>
<g>
	<g>
		<path d="M435.089,73.071c-3.362-3.294-8.764-3.234-12.066,0.128c-3.294,3.362-3.243,8.772,0.128,12.066
			c46.293,45.329,71.782,105.958,71.782,170.735c0,128.888-102.588,234.274-230.4,238.78v-42.513c0-4.71-3.823-8.533-8.533-8.533
			s-8.533,3.823-8.533,8.533v51.2c0,4.71,3.823,8.533,8.533,8.533c141.158,0,256-114.842,256-256
			C512,186.598,484.685,121.634,435.089,73.071z"/>
	</g>
</g>
<g>
	<g>
		<path d="M401.067,17.067c-23.526,0-42.667,19.14-42.667,42.667s19.14,42.667,42.667,42.667c23.526,0,42.667-19.14,42.667-42.667
			S424.593,17.067,401.067,17.067z M401.067,85.333c-14.114,0-25.6-11.486-25.6-25.6s11.486-25.6,25.6-25.6
			c14.114,0,25.6,11.486,25.6,25.6S415.181,85.333,401.067,85.333z"/>
	</g>
</g>
<g>
</g>
<g>
</g>
<g>
</g>
<g>
</g>
<g>
</g>
<g>
</g>
<g>
</g>
<g>
</g>
<g>
</g>
<g>
</g>
<g>
</g>
<g>
</g>
<g>
</g>
<g>
</g>
<g>
</g>
</svg>
