<svg xmlns="http://www.w3.org/2000/svg" xmlns:xlink="http://www.w3.org/1999/xlink" viewBox="0 0 1008.855 651.453">
  <defs>
    <style>
      .cls-1 {
        fill: none;
      }

      .cls-2 {
        fill: #ccc;
        stroke: #fff;
        stroke-width: 0.5px;
      }

      .cls-3 {
        clip-path: url(#clip-path);
      }

      .cls-4 {
        fill: #ffae02;
        stroke: #000;
        stroke-miterlimit: 10;
        stroke-width: 6px;
      }
    </style>
    <clipPath id="clip-path">
      <line id="l-one" class="cls-1" x1="561.815" y1="303.954" x2="542.295" y2="320.474"/>
    </clipPath>
  </defs>
  <title>world-map</title>
  <g id="Шар_2" data-name="Шар 2">
    <g id="Шар_1-2" data-name="Шар 1">
      <g>
        <path id="AE" class="cls-2" d="M620.12,393.974l.5-.15.11.84,2.19-.48,2.32.08,1.69.09,1.92-2.07,2.1-1.98,1.77-1.9.53,1.05.38,2.44-1.43.01-.23,2,.5.42-1.27.6-.01,1.25-.82,1.26-.07,1.21-.57.64-8.42-1.52-1.08-3.08Z"/>
        <path id="AF" class="cls-2" d="M647.13,357.154l2.86,1.3,2.11-.46.59-1.55,2.21-.52,1.58-1.05.56-2.79,2.36-.68.44-1.25,1.33.94.84.11,1.56.03,2.12.74.85.42,2.03-1.12.95.67.9-1.6,1.68.07.43-.52.3-1.43,1.21-1.23,1.51.8-.3,1.09.85.17-.27,2.95,1.11,1.15.98-.74,1.25-.34,1.74-1.57,1.93.26h2.9l.5,1.01-1.64.39-1.42.65-3.22.4-3.01.73-1.64,1.51.66,1.46.33,1.7-1.4,1.43.12,1.3-.77,1.22-2.67-.11,1.1,2.22-1.78.85-1.19,2,.15,1.98-1.1.92-1.03-.3-2.15.43-.3.91h-2.09l-1.56,1.84-.1,2.75-3.65,1.33-1.95-.28-.57.7-1.67-.4-2.81.48-4.69-1.64,2.54-2.93-.23-2.1-2.12-.55-.22-2.09-.92-2.64,1.2-1.83-1.22-.49.77-2.45Z"/>
        <path id="AL" class="cls-2" d="M533.23,334.914l-.35,1.27.4,1.59,1.16.9-.06.97-.91.54-.17,1.19-1.3,1.76-.48-.25-.05-.8-1.56-1.23-.24-1.75.24-2.53.38-1.16-.47-.59-.19-1.19,1.22-1.87.17.72.76-.34.6,1.02.67.38Z"/>
        <path id="AM" class="cls-2" d="M597.7,337.754l3.9-.58.58.98,1.07.64-.57.92,1.5,1.26-.79,1.16,1.19.99,1.26.59.06,2.5-1.02.1-1.14-2.08.01-.55-1.24.01-.83-.98-.58.1-1.11-1.06-2.08-.91.27-1.79Z"/>
        <path id="AO" class="cls-2" d="M521.28,480.034l.69,2.09.8,1.68.64.91,1.07,1.47,1.85-.23.93-.4,1.55.4.42-.7.7-1.64,1.74-.11.15-.49,1.43-.01-.24,1.01,3.4-.02.05,1.77.57,1.09-.41,1.7.21,1.74.94,1.05-.15,3.37.69-.26,1.22.07,1.74-.42,1.28.17.3.88-.32,1.38.49,1.34-.42,1.07.24.99-5.84-.04-.13,9.16,1.89,2.38,1.83,1.82-5.15,1.19-6.79-.41-1.94-1.4-11.37.13-.42.21-1.67-1.32-1.82-.09-1.68.5-1.35.56-.26-1.83.39-2.55.97-2.65.15-1.24.91-2.59.67-1.17,1.61-1.87.9-1.27.29-2.11-.15-1.61-.84-1.01-.75-1.72-.69-1.69.15-.59.86-1.12-.85-2.72-.57-1.88-1.4-1.77.27-.54,1.16-.38.81.05.98-.34Zm-10.91-.54-.71.3-.75-2.1,1.13-1.21.85-.47,1.05.96-1.02.59-.46.72Z"/>
        <path id="AR" class="cls-2" d="M291.85,649.164l-2.66.25-1.43-1.73-1.69-.13h-3v-10.57l1.08,2.15,1.4,3.53,3.65,2.87,3.93,1.21Zm1.5-122.44L295,528.9l1.09-2.43,3.2.12.45.64,5.15,4.94,2.29.46,3.43,2.26,2.89,1.2.4,1.36-2.76,4.73,2.83.85,3.15.48,2.22-.5,2.54-2.4.46-2.74,1.39-.59,1.41,1.79-.06,2.49-2.36,1.73-1.88,1.28-3.16,3.08-3.74,4.37-.7,2.59-.75,3.37.03,3.3-.61.74-.22,2.17-.19,1.76,3.56,2.91-.38,2.37,1.75,1.51-.14,1.7-2.69,4.52-4.16,1.91-5.62.75-3.08-.36.59,2.15-.57,2.72.52,1.85-1.68,1.3-2.87.51-2.7-1.35-1.08.97.39,3.71,1.89,1.14,1.54-1.19.84,1.96-2.58,1.18-2.25,2.38-.41,3.91-.66,2.11-2.65.01-2.2,2.04-.8,3.01,2.76,2.98,2.68.83-.96,3.73-3.31,2.38-1.82,5.03-2.56,1.72-1.15,2.06.91,4.64,1.87,2.63-1.18-.23-2.6-.71-6.78-.61-1.16-2.63.05-3.33-1.87.28-.99-1.6-.25-4.6,2.15-1.88.89-2.68-.33-2.11,1.49-3.52,1.02-5.35-.3-2.33,1.22-.75-.3-1.48-1.3-.78.92-1.63-1.27-1.46-.65-4.4,1.13-.77-.47-4.54.66-3.75.75-3.22,1.68-1.3-.85-3.46-.01-3.22,2.12-2.26-.06-2.87,1.6-3.31.01-3.09-.73-.61-1.29-5.69,1.73-3.34-.27-3.11,1-2.9,1.84-2.96,1.98-1.95-.84-1.23.59-1-.09-5.14,3.05-1.51.96-3.16-.34-.76,2.34-2.72Z"/>
        <path id="AT" class="cls-2" d="M523.11,310.1l-.21,1.71-1.58.01.54.89-.93,2.65-.53.69-2.45.1-1.42.92-2.32-.31-4.01-1.05-.62-1.43-2.77.72-.33.77-1.7-.58-1.43-.11-1.27-.74.43-1.01-.11-.74.85-.22,1.42,1.14.4-1.09,2.47.18,2.01-.74,1.34.12.87.85.27-.7-.4-2.72,1.01-.54.98-1.95,2.09,1.37,1.57-1.74.99-.32,2.18,1.3,1.31-.22,1.3.8-.23.54Z"/>
        <path id="AU" class="cls-2" d="M883.18,588.414l2.71,1.28,1.53-.51,2.19-.71,1.68.25.2,4.43-.96,1.3-.29,3.06-.98-1.05-1.95,2.67-.58-.21-1.72-.12-1.73-3.28-.38-2.5-1.62-3.25.07-1.7Zm-5.15-86.06,1.01,2.25,1.8-1.08.93,1.22,1.35,1.13-.29,1.28.6,2.48.43,1.45.71.35.76,2.5-.27,1.52.91,1.99,3.04,1.54,1.98,1.41,1.88,1.29-.37.72,1.6,1.87,1.09,3.25,1.12-.66,1.14,1.31.69-.46.48,3.21,1.99,1.87,1.3,1.17,2.19,2.49.79,2.49.07,1.77-.19,1.94,1.34,2.68-.16,2.81-.49,1.48-.76,2.87.06,1.86-.55,2.34-1.24,3-2.08,1.63-1.02,2.59-.94,1.67-.83,2.93-1.08,1.71-.71,2.58-.36,2.4.14,1.11-1.61,1.22-3.14.13-2.59,1.45-1.29,1.38-1.69,1.54-2.32-1.58-1.72-.63.44-1.85-1.53.67-2.46,2.58-2.42-.97-1.59-.56-1.6-.25-2.71-1.03-1.81-2.18-.52-2.66-.65-1.75-1.38-1.4-2.7-.41.92-1.66-.68-2.52-1.37,2.35-2.5.63,1.47-1.88.42-1.95,1.08-1.65-.22-2.47-2.28,2.85-1.75,1.15-1.07,2.69-2.19-1.4.09-1.79-1.75-2.43-1.48-1.25.53-.77-3.6-2-1.97-.09-2.7-1.6-5.02.31-3.63,1.18-3.19,1.1-2.68-.22-2.97,1.7-2.43.77-.54,1.75-1.04,1.36-2.38.08-1.76.3-2.48-.61-2.02.37-1.92.15-1.67,1.8-.82-.15-1.41.96-1.35,1.08-2.05-.13h-1.88l-2.97-2.17-1.51-.64.06-1.93,1.39-.46.48-.76-.1-1.2.34-2.3-.31-1.95-1.48-3.29-.46-1.85.12-1.83-1.12-2.08-.07-.93-1.24-1.26-.35-2.47-1.6-2.48-.39-1.33,1.23,1.35-.95-2.88,1.39.9.83,1.2-.05-1.59-1.39-2.43-.27-.97-.65-.92.3-1.77.57-.75.38-1.52-.3-1.77,1.16-2.17.21,2.29,1.18-2.07,2.28-1,1.37-1.28,2.14-1.1,1.27-.23.77.37,2.21-1.11,1.7-.33.42-.65.74-.27,1.55.07,2.95-.87,1.52-1.31.72-1.58,1.64-1.49.13-1.17.07-1.59,1.96-2.47,1.18,2.51,1.19-.58-1-1.38.88-1.41,1.24.63.34-2.21,1.53-1.42.68-1.14,1.41-.49.04-.8,1.23.34.05-.72,1.23-.41,1.36-.39,2.07,1.32,1.56,1.71,1.75.02,1.78.27-.59-1.58,1.34-2.3,1.26-.75-.44-.71,1.22-1.63,1.7-1.01,1.43.34,2.36-.54-.05-1.45-2.05-.94,1.49-.41,1.86.7,1.49,1.17,2.36.73.8-.29,1.74.88,1.64-.82,1.05.25.66-.55,1.29,1.41-.75,1.53-1.06,1.16-.96.1.33,1.15-.82,1.43-1,1.41.2.81,2.23,1.6,2.16.93,1.44,1,2.03,1.72h.79l1.47.75.43.9,2.68.99,1.85-1,.55-1.57.57-1.29.35-1.59.85-2.3-.39-1.39.2-.84-.32-1.64.37-2.16.54-.58-.44-.95.68-1.51.53-1.56.07-.81,1.04-1.06.79,1.39.19,1.78.7.34.12,1.2,1.02,1.45.21,1.62Z"/>
        <path id="AZ" class="cls-2" d="M601.68,342.714l.83.97,1.24-.01-.01.56,1.14,2.08-1.92-.48-1.42-1.66-.44-1.37Zm6.65-5.43,1.24.25.48-.95,1.67-1.51,1.47,1.97,1.43,2.62,1.31.17.86.99-2.31.29-.49,2.82-.48,1.26-1.03.84.08,1.77-.7.18-1.75-1.87.97-1.78-.83-1.06-1.05.27-3.31,2.66-.06-2.5-1.26-.59-1.19-.99.79-1.16-1.49-1.26.56-.92-1.07-.64-.58-.97.69-.61,2.09,1.07,1.51.22.38-.43-1.38-2.02.73-.52.79.13Z"/>
        <path id="BA" class="cls-2" d="M528.79,323.364l1.02-.01-.7,1.72,1.35,1.5-.41,1.82-.66.17-.53.36-.91.89-.41,2.1-2.48-1.44-1.06-1.61-1.07-.85-1.29-1.45-.6-1.21-1.38-1.83.59-1.64,1.01.91.6-.82,1.31-.09,2.41.66,1.94-.06Z"/>
        <path id="BD" class="cls-2" d="M735.34,400.664l-.05,2.15-.98-.46.18,2.41-.8-1.56-.16-1.52-.54-1.45-1.17-1.76-2.58-.12.26,1.25-.88,1.67-1.2-.61-.41.55-.79-.33-1.08-.27-.44-2.48-.97-2.28.47-1.84-1.72-.82.62-1.12,1.75-1.15-2.02-1.63.99-2.11,2.22,1.34,1.34.16.25,2.15,2.66.42,2.61-.05,1.61.53-1.29,2.59-1.26.18-.86,1.73,1.53,1.58.46-1.94.78-.01Z"/>
        <path id="BE" class="cls-2" d="M484.8,296.164l2.05.35,2.6-.93,1.77,1.95,1.55,1.04-.32,2.97-.73.16-.31,2.43-2.45-1.97-1.44.34-1.96-2.06-1.3-1.77-1.3-.07-.41-1.56Z"/>
        <path id="BF" class="cls-2" d="M467.58,436.654l-1.92-.73-1.32.11-.98.71-1.26-.6-.49-.93-1.26-.62-.19-1.64.77-1.21-.07-.96,2.23-2.36.41-1.96.77-.7,1.36.38,1.17-.58.38-.74,2.18-1.28.53-.9,2.62-1.2,1.55-.41.7.55,1.79-.01-.22,1.4.38,1.31,1.58,1.87.08,1.38,3.24.65-.07,1.95-.61.86-1.37.26-.57,1.24-.96.32-2.46-.06-1.3-.22-.9.46-1.24-.21-4.87.13-.07,1.61Z"/>
        <path id="BG" class="cls-2" d="M539.03,325.814l.81,1.6,1.08-.29,2.16.61,4.12.2,1.39-.99,3.3-.9,2.04,1.41,1.65.41-1.46,1.59-1.02,2.73.9,2.16-2.41-.51-2.86,1.18-.03,1.86-2.55.35-1.97-1.3-2.25,1.03-2.07-.11-.2-2.47-1.41-1.21.47-.54-.31-.45.47-1.21,1.07-1.19-1.36-1.66-.25-1.42Z"/>
        <path id="BI" class="cls-2" d="M557.77,476.184l-.18-3.37-.71-1.26,1.71.22.86-1.59,1.49.18.16,1.1.6.63.03.91-.69.58-1.1,1.46-1.01,1.01Z"/>
        <path id="BJ" class="cls-2" d="M483.05,446.174l-2.32.33-.69-1.94.13-6.46-.57-.58-.1-1.39-.98-.99-.85-.83.36-1.5.96-.32.57-1.24,1.37-.26.61-.86.94-.83,1.01-.01,2.14,1.64-.11.95.63,1.68-.55,1.14.29.76-1.36,1.75-.86.87-.53,1.77.07,1.79Z"/>
        <path id="BN" class="cls-2" d="M795.71,451.024l1.11-1.05,2.39-1.53-.13,1.38-.16,1.78-1.34-.09-.59.95Z"/>
        <path id="BO" class="cls-2" d="M299.29,526.6l-3.2-.13L295,528.9l-1.65-2.18-3.67-.73-2.33,2.72-2.03.41-1.1-4.15-1.5-3.34.88-2.87-1.47-1.25-.37-2.12-1.38-2,1.77-3.14-1.21-2.44.65-.97-.51-1.07,1.1-1.44.06-2.44.13-2.02.61-.96-2.43-4.58,2.09.24,1.44-.07.63-.85,2.45-1.15,1.47-1.06,3.67-.48-.29,2.12.34,1.09-.23,1.9,3.05,2.55,3.14.47,1.1,1.07,1.9.57,1.16.83,1.76-.03,1.63.85.12,1.66.55.84.04,1.25-.82.04,1.08,3.37,5.37.12-.41,1.68.3,1.15,1.53.82.67,1.82-.5,2.32-.77,1.29.27,1.69-.88.61-.04-.91-2.62-1.51-2.6-.05-4.89.86-1.34,2.62-.07,1.6-1.11,3.59Z"/>
        <path id="BR" class="cls-2" d="M313.93,552.044l3.74-4.37,3.17-3.08,1.88-1.28,2.36-1.73.06-2.49-1.41-1.79-1.39.59.55-1.78.38-1.82v-1.68l-1.01-.55-1.05.49-1.04-.13-.33-1.18-.26-2.77-.53-.9-1.89-.82-1.14.59-2.96-.58.18-4.06-.83-1.66.88-.61-.27-1.69.77-1.29.5-2.32-.67-1.82-1.53-.82-.3-1.15.41-1.68-5.37-.12-1.08-3.37.82-.04-.04-1.25-.55-.84-.12-1.66-1.63-.85-1.76.03-1.16-.83-1.9-.57-1.1-1.07-3.14-.47-3.05-2.55.23-1.9-.34-1.09.29-2.12-3.67.48-1.47,1.06-2.45,1.15-.63.85-1.44.07-2.09-.24-1.58.49-1.28-.33.19-4.3-2.3,1.66-2.47-.07-1.06-1.51-1.86-.16.59-1.21-1.56-1.72-1.17-2.53.74-.51v-1.19l1.7-.81-.28-1.51.71-.98.21-1.3,3.2-1.91,2.3-.53.37-.42,2.53.13,1.26-7.65.07-1.21-.44-1.59-1.24-1.02.01-2.02,1.58-.46.56.29.09-1.07-1.64-.29-.03-1.74,5.46.06.93-.96.78.88.54,1.65.53-.35,1.55,1.48,2.18-.18.54-.86,2.08-.65,1.16-.45.32-1.18,2.01-.8-.16-.58-2.37-.24-.39-1.76.11-1.87-1.25-.72.52-.26,2.08.36,2.23.7.81-.66,2.01-.44,3.14-1.04,1.03-1.07-.38-.79,1.46-.12.66.64-.37,1.23.96.42.65,1.3-.78.98-.45,2.38.72,1.41.2,1.29,1.73,1.3,1.38.14.31-.54.88-.12,1.27-.49.91-.74,1.55.23.68-.1,1.53.23.25-.57-.47-.55.28-.81,1.13.25,1.33-.29,1.6.59,1.23.58.87-.76.62.12.39.79,1.34-.2,1.07-1.06.86-2.06,1.66-2.55.96-.13.69,1.54,1.57,4.88,1.5.46.08,1.92-2.11,2.29.87.84,4.96.44.1,2.79,2.13-1.83,3.53,1.01,4.65,1.7,1.37,1.63-.46,1.54,3.26-.86,5.46,1.48,4.19-.11,4.14,2.31,3.58,3.13,2.16.8,2.4.12,1.02.88.95,3.57.47,1.69-1.12,4.66-1.43,1.84-3.95,3.94-1.79,3.21-2.07,2.48-.7.06-.79,2.1.2,5.4-.78,4.48-.3,1.93-.88,1.15-.5,3.94-2.84,3.88-.48,3.09-2.27,1.31-.66,1.81-3.04-.01-4.41,1.17-1.98,1.35-3.14.89-3.3,2.44-2.37,3.06-.41,2.32.47,1.73-.53,3.18-.63,1.55-1.96,1.75-3.11,5.68-2.47,2.59-1.91,1.54-1.27,3.16-1.86,1.91-.78-1.9,1.24-1.57-1.62-2.25-2.2-1.82-2.89-2.08-1.04.09-2.81-2.5Z"/>
        <path id="BS" class="cls-2" d="M258.11,395.454l-.69.15-.71-1.76-1.05-.89.61-1.95.84.12.98,2.55Zm-.8-8.69-3.06.5-.2-1.15,1.32-.25,1.85.09Zm2.3-.03-.48,2.21-.52-.4.05-1.63-1.26-1.23-.01-.36Z"/>
        <path id="BT" class="cls-2" d="M732.61,383.034l1.14,1-.2,1.93-2.29.09-2.36-.21-1.77.49-2.55-1.19-.05-.63,1.85-2.34,1.51-.8,2.01.73,1.48.08Z"/>
        <path id="BW" class="cls-2" d="M547.42,516.2l.56.52.89,1.71,3.17,3.25,1.2.32.01,1.05.82,1.9,2.17.46,1.79,1.36-3.97,2.22-2.52,2.26-.93,2.03-.84,1.15-1.53.25-.49,1.47-.29.96-1.79.72-2.28-.15-1.34-.86-1.18-.38-1.37.72-.69,1.48-1.33.93-1.4,1.39-2.01.32-.62-1.09.26-1.9-1.67-2.93-.75-.46v-8.86l2.76-.11.08-10.57,2.09-.09,4.32-1.03,1.08,1.21,1.78-1.15.86-.01,1.58-.66.5.22Z"/>
        <path id="BY" class="cls-2" d="M541.35,284.324l2.71.04,3.04-1.8.65-2.72,2.3-1.57-.26-2.2,1.7-.84,3.02-1.93,2.95,1.26.4,1.23,1.47-.59,2.74,1.18.27,2.31-.6,1.32,1.76,3.15,1.14.87-.17.86,1.89.83.81,1.25-1.09,1.02-2.26-.16-.54.44.66,1.54.69,2.93-2.41.27-.86,1-.19,2.26-1.11-.43-2.53.22-.74-1.05-1.05.78-1.05-.65-2.21-.09-3.13-1.08-2.83-.36-2.17.1-1.54,1.23-1.34.17-.05-2.01-.87-2.12,1.68-.94.02-1.85-.78-1.78Z"/>
        <path id="BZ" class="cls-2" d="M225.56,413.214l-.02-.43.34-.14.51.35,1-1.77.53-.04.01.43.53.01-.04.8-.46,1.27.25.45-.29,1.05.17.27-.32,1.47-.55.78-.51.09-.56,1h-.83l.22-3.28Z"/>
        <path id="CA" class="cls-2" d="M199.18,96.484l-.22-5.9,3.63.58,1.63.96,3.35,4.92-.76,4.97-4.15,2.77-2.28-3.12Zm13.21,12.65.33-1.49-1.97-2.45L205.1,105l.75,3.68,5.25.83Zm36.35,46.95,3.08,5.1.81.57,3.07-1.27,3.02.2,2.98.28-.25-2.64-4.84-5.38-6.42-1.08-1.35.67Zm-65.43-62.7-2.71,4.19,6.24.52,4.61,4.44,4.58,1.5-1.09-5.68-2.14-6.73-7.58-5.35-5.5-2.04.2,5.69Zm25.9-10.24,5.13-.12-2.22,4-.04,5.3,3.01,5.76,5.81,1.77,4.96-.99,5.18-10.73,3.85-4.45-3.38-4.97-2.21-10.65-4.6-3.19-4.72-3.68-3.58-9.56-6.52.94,1.23,4.15-2.87,1.25-1.94,5.32-1.94,7.46,1.78,7.26Zm-63.75,53.38,3.92,1.95,12.67-1.3-5.82,4.77.36,3.43,4.26-.24,7.07-4.58,9.5-1.67,1.71-5.22-.49-5.57-2.94-.5-2.5,1.93-1.1-4.13-.95-5.7-2.9-1.42-2.57,4.41,4.01,11.05-4.9-.85-4.98-6.79-7.89-4-2.64,3.32Zm22.56-42.06-3.65-2.9-1.5-.66-2.88,4.28-.05,2,4.66.01Zm-1.46,12.35.93-3.99-3.95-2.12-4.09,1.39-2.27,4.26,4.16,4.21Zm29.09,33.24,4.62-1.11,1.28-8.25-.09-5.95-2.14-5.56-.22,1.6-3.94-.7-4.22,4.09-3.02-.37.18,8.92,4.6-.87-.06,6.47Zm-3.28,45.61-5.06-3.93-4.71-4.21-.87-6.18-1.76-8.92-3.14-3.84-2.79-1.55-2.47,1.42,1.99,9.59-1.41,3.73-2.29-8.98-2.56-3.11-3.17,4.81-3.9-4.76-6.24,2.87,1.4-4.46-2.87-1.87-7.51,5.84-1.95,3.71-2.35,6.77,4.9,2.32,4.33-.12-6.5,3.46,1.48,3.13,3.98.17,5.99-.67,5.42,1.96-3.66,1.44-3.95-.37-4.33,1.41-1.87.87,3.45,6.35,2.49-.88,3.83,2.15,1.52,3.65,4.99-.73,7.1-1.16,5.26-2.65,3.26-.48,4.82,2.12,5.07,1.22.94-2.86-1.79-3.05,4.6-.64Zm7.74-.98-1.96,3.54-2.47,2.49,3.83,3.54,2.28-.85,3.78,2.36,1.74-2.73L205.6,190l-.84-1.53-1.68-1.46Zm-17.61-29.45-2.13-2.17-3.76.4-.95,1.38,4.37,6.75Zm28.69,13.17,3.01-6.93,3.34-1.85,4.19-8.74-5.36-2.47-5.84-.36-2.78,2.77-1.47,4.23-.04,4.82,1.75,8.19Zm17.15-23,5.76-.18,8.04-1.61,3.59,1.28,4.18-2.26,1.75-2.84-.63-4.52-3-4.23-4.56-.8-5.71.97-4.46,2.44-4.09-.94-3.78-.5-1.78-2.7-3.22-2.61.64-4.43-2.42-3.98-5.52.03-3.11-3.99-5.78-.8-1.06,5.1,3.25,3.74,5.8,1.45,2.81,5.09.34,5.6.97,5.99,7.45,3.42Zm-89.02-18.27,5.21-5.05,2.62-.59,2.16-4.23.38-9.77-3.85,1.91-4.3-.18-5.76,8.19-4.76,8.98,3.8,2.51ZM211.5,143.3l1.53-4.14-1.02-3.46-2.45-3.92-4.03,3.02-1.49,4.92,3.4,2.79Zm-8.31,11.44-.73-2.88-5,1.26-3.34-2.11-3.32,4.8,3.09,6.28-5.72-1.17-.06,3.01,6.97,7.05,1.94,3.38,2.7.73,4.6-3.41.5-8.21-4.24-4.07ZM129.2,308.484l-1.16-2.34-2.8-1.77-1.39-2.05-.95-1.5-2.64-.46-1.72-.67-2.94-.96-.24,1.02,1.08,2.38,2.89.78.5,1.23,2.51,1.5.84,1.51,4.6,1.92Zm121.7-77.63-2-2.11-2.06.5-.25-3.06-3.21-2.04-3.07-2.27-1.63-1.75-1.43,1.03-.52-2.96-2.03-.55-.96,6.13-.36,5.11-2.44,3.14,3.8-.6.96,3.65,3.99-3.23,2.78-3.38,1.57,2.86,4.36,1.51ZM130.37,178.3l7.38-4.18v-3.87l3.48-6.41,6.88-6.69,3.52-2.47-3.01-4.2-2.72-2.95-7.16-.57-4-2.16-9.48,1.63,2.74,6.23-2.43,6.43-1.94,6.87-1.2,3.86,6.47,4.69Zm134.24,27.31.32-1.01-.03-3.17-2.19-2.08-2.57,1.05-1.19,4.17.7,3.56,3.14-.36Zm23.82,7.54,4.41,6.6,3.45,2.85,4.92-7.87.87-4.93-4.41-.47-4.03-6.7-4.45-1.64-6.6-4.97,5.15-3.63-2.65-7.54-2.44-3.35-6.77-3.35-2.92-5.55-5.21,1.99-.36-3.86-3.86-4.32-6.22-4.71-2.65,3.71-5.55,2.66.42-6.06-4.81-10.05-7.11,4.06-2.59,7.7-2.21-5.92,2.06-6.37-7.24,2.65-2.88,3.99-2.15,8.42.89,9.05,3.98.04-2.93,3.92,2.33,2.96,4.55,1.25,5.93,2.42,10.2,1.82,5.08-1.04,1.5-2.42,2.21,2.79,2.47.46,2.97,4.96-1.8,1.98,5.68,2.63,4.29,3.68,1.08,2.55.77,3.24-3.63,6.93-.98,3.44.94,2.42-5.77.86-5.27.12-1.85,4.87,2.37,2.23,8.11-1.03-.04-1.89,4.08,3.15,4.18,3.28-.98,1.77,3.4,3.02,6.02,3.53,7.6,2.39-.46-2.09-2.92-3.67-3.96-5.37,7.03,5,3.54,1.66.97-4.44-1.82-6.3-1.16-1.73-3.81-3.03-2.95-3.91.35-3.94ZM222.6,51.594l2.34,7.29,4.96,5.88,9.81-1.09,6.31,1.97-4.38,6.05-2.21-1.78-7.66-.71,1.19,8.31,3.96,6.04-.8,5.2-4.97,3.46-2.27,5.47,4.55,2.65,3.82,8.55-7.5-5.7-1.71.94,1.38,9.38-5.18,2.83.35,5.85,5.3.63,4.17,1.44,8.24-1.84,7.33,3.27,7.49-7.19-.06-3.02-4.79.48-.39-2.84,3.92-3.83,1.33-5.15,4.33-3.83,2.66-4.76-2.32-7.1,1.94-2.65-3.86-1.89,8.49-1.63,1.79-3.15,5.78-2.6,4.8-13.47,4.57-4.94,6.62-11.12-6.1.1,2.54-4.3,6.78-3.99,6.84-8.9.12-5.73-5.13-6.04-6.02-2.93-7.49-1.82-6.07-1.49-6.07-1.5-8.1,3.98-1.49-2.53-8.57.98-5.03,2.57-3.7,3.65-2.13,11.74-3.06-6.01-3.48-1.14-4.12,7.97-5.5,3.35-3.27.66-4.17,3.84.61,6.65Zm74.4,265-.98-1.98-1.06,1.26.7,1.36,3.56,1.71,1.04-.26,1.38-1.66-2.6.11Zm-57-77.86.61,1.63,1.98.14,3.28-3.34.06-1.19-3.85-.06Zm62.13,66.44-2.87-1.8-3.69-1.09-.97.37,2.61,2.04,3.63,1.34,1.36-.08Zm24.88,4.79-.36-2.24-1.96.72.87-3.11-2.8-1.32-1.29,1.05-2.49-1.18.98-1.51-1.88-.93-1.83,1.47,1.86-3.82,1.5-2.8.54-1.22-1.3-.2-2.43,1.55-1.74,2.53-2.9,6.92-2.35,2.56,1.22,1.14-1.75,1.47.43,1.23,5.44.13,3.01-.25,2.69,1.01-1.98,1.93,1.67.14,3.25-3.58.78.53-.61,3.37,1.84.77,1.27-.15,1.18-3.61Zm-21.19,4.76-2.81,4.56-4.63.58-3.64-2.01-.92-3.07-.89-4.46,2.65-2.83-2.48-2.09-4.19.43-5.88,3.53-4.5,5.45-2.38.67,3.23-3.8,4.04-5.57,3.57-1.9,2.35-3.11,2.9-.3,4.21.03,6,.92,4.74-.71,3.53-3.62,4.62-1.59,2.01-1.58,2.04-1.71-.2-5.19-1.13-1.77-2.18-.63-1.11-4.05-1.8-1.55-4.47-1.26-2.52-2.82-3.73-2.83,1.13-3.2-3.1-6.26-3.65-6.89-2.18-4.98-1.86,2.61-2.68,6.05-4.06,2.97-2.03-3.16-2.56-.85-.93-6.99.08-4.8-5-.44-.85-2.27-3.45-3.44-2.61-2.04-2.32,1.58-2.88-.58-4.81-1.65-1.95,1.4.94,9.18,1.22,5.12-3.31,5.75,3.41,4.02,1.9,4.44.23,3.42-1.55,3.5-3.18,3.46-4.49,2.28,1.98,2.53,1.46,7.4-1.52,4.68-2.16,1.46-4.17-4.28-2.03-5.17-.87-4.76.46-4.19-3.05-.47-4.63-.28-2.97-2.08-3.51-1.37-2.01-2.38-2.8-1.94-5.21-2.23-3.92,1.02-1.31-3.95-1.26-4.99-4.12-.9.15-6.41,1.09-4.48,3.04-6.6,3.43-4.9,3.26-.77.19-4.05,2.21-2.68,4.01-.42,3.25-4.39.82-2.9,2.7-5.73.84-3.5,2.9,2.11,3.9-1.08,5.49-4.96.36-3.54-1.98-3.98,2.09-4.06-.17-3.87-3.76-3.95-4.14-1.19-3.98-.62-.15,8.71-2.04,6.56-2.93,5.3-2.71-4.95.84-5.61-3.35-5.02-3.75,6.09.01-7.99-5.21-1.63,2.49-4.01-3.81-9.59-2.84-3.91-3.7-1.44-3.32,6.43-.22,9.34,3.27,3.29,3,4.91-1.27,7.71-2.26-.2-1.78,5.88.02-7-4.34-2.58-2.49,1.33.32,4.67-4.09-.18-4.35,1.17-4.95-3.35-3.13.6-2.82-4.11-2.26-1.84-2.24.77-3.41.35-1.81,2.61,2.86,3.19-3.05,3.72-2.99-4.42-2.39,1.3-7.57.87-5.07-1.59,3.94-3.74-3.78-3.9-2.75.5-3.86-1.32-6.56-2.89-4.29-3.37-3.4-.47-1.06,2.36-3.44,1.31-.38-6.15-3.73,5.5-4.74-7.32-1.94-.89-.63,3.91-2.09,1.9-1.93-3.39-4.59,2.05-4.2,3.55-4.17-.98-3.4,2.5-2.46,3.28-2.92-.72-4.41-3.8-5.23-1.94-.02,27.65-.01,35.43,2.76.17,2.73,1.56,1.96,2.44,2.49,3.6,2.73-3.05,2.81-1.79,1.49,2.85,1.89,2.23,2.57,2.42,1.75,3.79,2.87,5.88,4.77,3.2.08,3.12-1.56,2.35.06,2.48,3.39,3.45.49,3.76,3.59,1.96-.4,2.79,1.56,3.96,5.08,1.82,2,1.89,5.43,4.23.38.01h77.61l.01-1.64.95-.02.5,2.35.87.72,1.96.26,2.86.67,2.72,1.3,2.27-.55,3.45,1.09,1.14-1.66,1.59-.66.62-1.03.63-.55,2.61.86,1.93.1.67.57.94,2.38,3.15.63-.49,1.18,1.11,1.21-.48,1.56,1.18.51-.59,1.37.75.13.53-.6.55.9,2.1.5,2.13.04,2.27.41,2.51.78.91,1.26,1.82,3.04-.9,1.3-2.28-.54-1.42-2.44.36,2.49-1.34,2.17.15,1.84-.23,1.07-1.81,1.27-1.32,2.09-.62,1.32,1.54.24,2.08-1.2,1.23-1.06.83-.17,1.54.38.75-.59,1.37-.48,2.44-.47h0l-.25-1.15-.13.04-.86.2-1.12-.36.84-1.32.85-.46,1.98-.56,2.37-.53,1.24.73.78-.85.89-.54.6.29.03.06,2.87-2.73,1.27-.73,4.26-.03h5.17l.28-.98.9-.2,1.19-.62,1-1.82.86-3.15,2.14-3.1.93,1.08,1.88-.7,1.25,1.19v5.52l1.83,2.25,3.12-.48,4.49-.13-4.87,3.26.11,3.29,2.13.28,3.13-2.79,2.78-1.58,6.21-2.35,3.47-2.62-1.81-1.46Zm-53.66-71.1,1.1-3.12-.71-1.23-1.15-.13-1.08,1.8-.13.41.74,1.77ZM109.5,280.054h0l1.56-2.35Zm-3.4,3.29-2.69.38-1.32-.62-.17,1.52.52,2.07,1.42,1.46,1.04,2.13,1.69,2.1,1.12.01-2.44-3.7Z"/>
        <path id="CD" class="cls-2" d="M561.96,453.864l-.17,3.26,1.12.37-.9.99-1.08.74-1.07,1.46-.59,1.29-.16,2.24-.65,1.06-.02,2.1-.81.78-.1,1.66-.39.21-.26,1.53.71,1.26.18,3.37.5,2.57-.28,1.46.56,1.62,1.63,1.57,1.51,3.55-1.1-.29-3.77.48-.75.33-.8,1.8.63,1.25-.5,3.35-.35,2.85.76.51,1.96,1.1.77-.51.24,3.08-2.15-.03-1.15-1.57-1.03-1.22-2.15-.4-.63-1.49-1.72.9-2.24-.4-.94-1.29-1.78-.26-1.31.07-.16-.88-.97-.07-1.28-.17-1.73.42-1.22-.07-.7.26.15-3.37-.93-1.05-.21-1.73.41-1.7-.56-1.09-.05-1.76-3.41.02.25-1.01-1.43.01-.15.49-1.74.11-.71,1.63-.42.71-1.55-.4-.92.4-1.86.22-1.07-1.47-.64-.91-.81-1.68-.69-2.09-8.27-.03-.99.33-.81-.05-1.16.38-.39-.87.71-.3.09-1.22.46-.72,1.02-.58.74.28.96-1.07,1.52.03.18.79,1.05.5,1.65-1.76,1.63-1.36.71-.89-.09-2.3,1.22-2.71,1.28-1.43,1.85-1.34.32-.89.07-1.02.46-.97-.15-1.58.35-2.47.55-1.74.84-1.49.16-1.68.25-1.95,1.1-1.42,1.5-.9,2.31.95,1.78,1.03,2.05.28,2.09.54.84-1.68.39-.22,1.27.28,3.13-1.39,1.1.59.91-.08.42-.68,1.04-.24,2.11.29,1.8.06.93-.29,1.69,2.31,1.26.33.75-.47,1.3.19,1.56-.59.67,1.19Z"/>
        <path id="CF" class="cls-2" d="M518.34,442.914l2.32-.22.52-.72.46.06.7.63,3.53-1.07,1.19-1.1,1.47-.99-.28-.99.79-.26,2.71.18,2.64-1.31,2.02-3.09,1.43-1.14,1.77-.49.32,1.22,1.62,1.77v1.15l-.45,1.18.18.87.97.81,2.14,1.24,1.53,1.13.03.92,1.88,1.46,1.17,1.21.71,1.68,2.1,1.11.45.89-.93.29-1.8-.06-2.11-.29-1.04.24-.42.68-.91.08-1.1-.59-3.13,1.39-1.27-.28-.39.22-.84,1.68-2.09-.54-2.05-.28-1.78-1.03-2.31-.95-1.5.9-1.1,1.42-.25,1.95-1.8-.16-1.9-.47-1.67,1.48-1.47,2.6-.3-.81-.12-1.27-1.28-.9-1.04-1.44-.24-1-1.32-1.46.22-.83-.28-1.18.22-2.17.67-.51Z"/>
        <path id="CG" class="cls-2" d="M511.94,476.974l-1.05-.96-.85.47-1.13,1.2-2.3-2.95,2.13-1.54-1.05-1.85.96-.7,1.89-.34.22-1.24,1.5,1.34,2.48.12.86-1.32.35-1.85-.31-2.18-1.32-1.64,1.21-3.23-.7-.55-2.08.22-.79-1.43.21-1.22,3.53.11,2.27.73,2.23.66.2-1.5,1.47-2.6,1.67-1.48,1.9.47,1.8.16-.16,1.68-.84,1.49-.55,1.74-.35,2.47.15,1.58-.46.97-.07,1.02-.32.89-1.85,1.34-1.28,1.43-1.22,2.71.09,2.3-.71.89-1.63,1.36-1.65,1.76-1.05-.5-.18-.79-1.52-.03-.96,1.07Z"/>
        <path id="CH" class="cls-2" d="M502.4,312.594l.11.74-.43,1.01,1.27.74,1.43.11-.22,1.67-1.23.69-2.08-.51-.61,1.63-1.33.13-.49-.64-1.57,1.36-1.35.19-1.21-.86-.96-1.77-1.34.64.04-1.84,2.05-2.31-.09-1.05,1.28.39.77-.71,2.38.03.58-.9Z"/>
        <path id="CI" class="cls-2" d="M467.49,449.714l-1.27.03-1.96-.55-1.79.03-3.33.49-1.94.81-2.78,1.02-.54-.07.21-2.3.27-.35-.08-1.11-1.19-1.17-.89-.19-.82-.77.61-1.24-.28-1.36.13-.82h.45l.16-1.23-.22-.54.27-.39,1.04-.34-.69-2.26-.65-1.16.23-.97.56-.21.36-.26.78.42,2.16.03.52-.83.48.06.81-.32.44,1.21.65-.36,1.16-.42,1.26.62.49.93,1.26.6.98-.71,1.32-.11,1.92.73.74,4.01-1.18,2.36-.73,3.17,1.21,2.41Z"/>
        <path id="CL" class="cls-2" d="M283.06,636.984v10.57h3l1.69.13-.93,1.98-2.4,1.53-1.38-.16-1.66-.4-2.04-1.48-2.94-.71-3.53-2.71-2.86-2.57-3.86-5.25,2.31.97,3.94,3.13,3.72,1.7,1.45-2.17.91-3.2,2.58-1.91Zm1.16-112.01,1.1,4.15,2.02-.41.34.76-.96,3.16-3.05,1.51.09,5.14-.59,1,.84,1.23-1.98,1.95-1.84,2.96-1,2.9.27,3.11-1.73,3.34,1.29,5.69.73.61-.01,3.09-1.6,3.31.06,2.87-2.12,2.26.01,3.22.85,3.46-1.68,1.3-.75,3.22-.66,3.75.47,4.54-1.13.77.65,4.4,1.27,1.46-.92,1.63,1.3.78.3,1.48-1.22.75.3,2.33-1.02,5.35-1.49,3.52.33,2.11-.89,2.68-2.15,1.88.25,4.6.99,1.6,1.87-.28-.05,3.33,1.16,2.63,6.78.61,2.6.71-2.49-.03-1.35,1.13-2.53,1.67-.45,4.38-1.19.11-3.16-1.54-3.21-3.25h0l-3.49-2.63-.88-2.87.79-2.62-1.41-2.94-.36-7.34,1.19-4.03,2.96-3.19-4.26-1.19,2.67-3.57.95-6.56,3.12,1.37,1.46-7.97-1.88-1-.88,4.75-1.77-.54.88-5.42.96-6.84,1.29-2.48-.81-3.5-.23-3.98,1.18-.11,1.72-5.6,1.94-5.43,1.19-4.97-.65-4.91.84-2.67-.34-3.96,1.64-3.87.51-6.04.9-6.37.88-6.75-.21-4.87-.58-4.15,1.44-.75.75-1.5,1.37,1.99.37,2.12,1.47,1.25-.88,2.87Z"/>
        <path id="CM" class="cls-2" d="M512.17,457.324l-.35-.15-1.66.36-1.71-.38-1.33.19-4.56-.07.41-2.2-1.1-1.84-1.28-.48-.57-1.25-.72-.4.04-.77.72-1.98,1.33-2.7.81-.03,1.67-1.64,1.07-.04,1.57,1.15,1.93-.95.26-1.16.63-1.14.43-1.42,1.5-1.16.57-1.97.59-.63.4-1.47.74-1.81,2.36-2.2.15-.95.31-.51-1.11-1.14.09-.9.79-.17,1.11,1.83.19,1.89-.1,1.89,1.52,2.57-1.56-.03-.79.2-1.28-.28-.61,1.33,1.65,1.65,1.22.48.4,1.17.88,1.93-.44.77-1.41,2.84-.67.51-.22,2.17.28,1.18-.22.83,1.32,1.46.24,1,1.04,1.44,1.28.9.12,1.27.3.81-.2,1.5-2.23-.66-2.27-.73Z"/>
        <path id="CN" class="cls-2" d="M784.88,410.664l-2.42,1.41-2.3-.91-.08-2.53,1.38-1.34,3.06-.83,1.61.07.63,1.13-1.23,1.3Zm48.56-107.52,4.88,1.38,3.32,3.03,1.13,3.95h4.26l2.43-1.65,4.63-1.24-1.47,3.76-1.09,1.51-.96,4.46-1.89,3.89-3.4-.7-2.41,1.4.74,3.36-.4,4.55-1.43.1.02,1.93-1.81-2.24-1.11,2.13-4.33,1.62.44,1.97-2.42-.14-1.33-1.17-1.93,2.64-3.09,1.98-2.28,2.35-3.92,1.06-2.06,1.69-3.02.98,1.49-1.67-.59-1.41,2.22-2.45-1.48-1.93-2.44,1.3-3.17,2.54-1.73,2.34-2.75.17-1.43,1.68,1.48,2.41,2.29.58.09,1.58,2.22,1.02,3.14-2.51,2.49,1.37,1.81.09.46,1.84-3.97.97-1.31,1.87-2.73,1.73-1.44,2.39,3.02,1.86,1.1,3.31,1.71,3.05,1.9,2.53-.05,2.43-1.76.89.67,1.73,1.65,1-.43,2.61-.71,2.52-1.57.28-2.05,3.41-2.27,4.09-2.6,3.68-3.86,2.82-3.9,2.55-3.16.35-1.71,1.34-.97-.98-1.59,1.5-3.92,1.5-2.97.46-.96,3.15-1.55.17-.74-2.16.66-1.16-3.76-.96-1.33.49-2.82-.78-1.33-1.22.44-1.74-2.56-.55-1.35-1.14-2.39,1.62-2.73.35-2.24-.02-1.5.74-1.45.44.42,3.43-1.5-.08-.25-.7-.08-1.24-2.06.87-1.21-.55-2.08-1.13.82-2.51-1.78-.59-.67-2.8-2.96.51.34-3.63,2.66-2.58.11-2.57-.08-2.4-1.22-.75-.94-1.86-1.64.24-3.02-.47.95-1.33-1.31-1.99-2,1.35-2.36-.78-3.23,2.03-2.55,2.36-2.26.39-1.23-.85-1.48-.08-2-.73-1.51.8-1.85,2.34-.24-2.48-1.71.66-3.27-.31-3.17-.73-2.28-1.39-2.18-.63-.94-1.53-1.58-.46-2.83-2.09-2.25-.99-1.16.77-3.9-2.26L696.28,371l-.79-3.63,2.01.44.09-1.69-1.12-1.71.28-2.74-3.01-3.99-4.61-1.39-.83-2.66L686.23,352l-.5-1.01-.42-2.01.1-1.38-1.7-.81-.92.36-.71-3.32.8-.83-.39-.85,2.68-1.73,1.94-.72,2.97.49,1.06-2.35,3.6-.44,1-1.48,4.42-2.03.39-.85-.22-2.17,1.92-1-2.52-6.75,5.55-1.58,1.44-.89,2.02-7.26,5.56,1.35,1.56-1.86.13-4.19,2.33-.39,2.13-2.83,1.1-.35.74,2.97,2.36,2.23,4,1.57,1.93,3.32-1.08,4.73,1.01,1.73,3.33.68,3.78.55,3.39,2.45,1.73.43,1.28,3.57,1.65,2.27,3.09-.09,5.79.85,3.73-.53,2.77.57,4.15,2.29h3.39l1.24,1.16,3.26-2.01,4.53-1.31,4.2-.14,3.28-1.34,2.01-2.05,1.96-1.3-.45-1.28-.9-1.5,1.47-2.54,1.58.36,2.88.8,2.79-2.1,4.28-1.55,2.05-2.66,1.97-1.16,4.07-.54,2.21.46.31-1.45-2.54-2.89-2.25-1.33-2.16,1.54-2.77-.65-1.59.53-.72-1.71,1.98-4.23,1.37-3.25,3.37,1.63,3.95-2.74-.03-1.93,2.53-4.73,1.56-1.45-.04-2.52-1.54-1.1,2.32-2.31,3.48-.84,3.72-.13,4.2,1.39,2.46,1.71,1.73,4.61,1.05,1.94.98,2.73Z"/>
        <path id="CO" class="cls-2" d="M264.17,464.064l-1.2-.66-1.38-.92-.8.44-2.38-.39-.68-1.2-.52.05-2.81-1.59-.38-.87,1.05-.21-.12-1.39.65-1.01,1.39-.19,1.19-1.75,1.07-1.46-1.04-.67.53-1.62-.63-2.56.6-.73-.44-2.37-1.14-1.5.36-1.36.91.2.53-.84-.65-1.65.34-.42,1.44.09,2.11-1.97,1.15-.3.03-.93.52-2.39,1.61-1.32,1.76-.05.22-.59,2.2.23,2.21-1.43,1.09-.64,1.35-1.37,1,.17.73.75-.54.96-1.8.48-.71,1.42-1.09.81-.81,1.06-.35,2.01-.77,1.66,1.44.18.36,1.3.62.62.22,1.13-.33,1.04.1.59.69.23.67.98,3.6-.27,1.63.36,1.98,2.41,1.13-.3,2.02.15,1.6-.32.99.49-.51,1.5-.62.94-.22,2.01.56,1.85.8.83.09.63-1.42,1.39,1.02.61.75.98.85,2.77-.53.35-.54-1.65-.78-.88-.93.96-5.46-.06.03,1.74,1.64.29-.09,1.07-.56-.29-1.58.46-.01,2.02,1.24,1.02.44,1.59-.07,1.21-1.26,7.65-1.4-1.49-.84-.06,1.81-2.84-2.15-1.31-1.68.24-1.01-.48-1.55.74-2.09-.35-1.65-2.92-1.3-.72-.89-1.32-1.86-1.32Z"/>
        <path id="CR" class="cls-2" d="M242.88,440.654l-1.52-.63-.57-.59.32-.49-.1-.62-.78-.68-1.1-.55-.97-.36-.18-.83-.74-.51.18.83-.56.67-.64-.78-.9-.28-.38-.57.02-.86.37-.9-.79-.4.64-.54.42-.37,1.85.75.64-.37.89.24.47.58.82.19.67-.6.72,1.54,1.08,1.14,1.32,1.21-1.09.25.02,1.13.58.42-.42.34.11.51-.23.57Z"/>
        <path id="CU" class="cls-2" d="M244.83,397.194l2.43.22,2.2.03,2.63,1.03,1.12,1.11,2.62-.34.99.7,2.38,1.87,1.74,1.35.92-.04,1.68.61-.21.84,2.07.12,2.12,1.22-.33.69-1.87.38-1.89.15-1.93-.24-4.01.29,1.88-1.66-1.14-.77-1.81-.2-.97-.86-.67-1.7-1.58.11-2.62-.8-.84-.63-3.65-.47-.98-.59,1.05-.75-2.75-.15-2.01,1.56-1.17.04-.4.74-1.38.33-1.2-.29,1.48-.93.6-1.09,1.27-.67,1.43-.59,2.13-.29Z"/>
        <path id="CY" class="cls-2" d="M570.56,358.544l1.89-1.46-2.55,1.02-2.02-.05-.4.83-.2.02-1.33.12.65,1.37,1.37.44,2.88-1.38-.09-.27Z"/>
        <path id="CZ" class="cls-2" d="M523.06,308.114l-1.3-.8-1.31.22-2.18-1.3-.99.32-1.57,1.74-2.09-1.37-1.58-1.83-1.43-1.04-.3-1.82-.49-1.3,2.04-.95,1.04-1.1,2.01-.86.71-.84.74.51,1.25-.47,1.33,1.43,2.09.39-.17,1.21,1.52.9.42-1.13,1.92.49.27,1.37,2.08.26,1.29,2.13-.83.01-.44.77-.64.19-.18.97-.54.21-.08.39-.95.44-1.25-.07Z"/>
        <path id="DE" class="cls-2" d="M503.32,279.174l.05,1.88,2.84,1.12-.03,1.7,2.85-.9,1.57-1.31,3.17,1.89,1.32,1.51.66,2.39-.78,1.25,1.01,1.65.7,2.45-.22,1.56,1.15,2.86-1.25.47-.74-.51-.71.84-2.01.86-1.04,1.1-2.04.95.49,1.3.3,1.82,1.43,1.04,1.58,1.83-.98,1.95-1.01.54.4,2.72-.27.7-.87-.85-1.34-.12-2.01.74-2.47-.18-.4,1.09-1.42-1.14-.85.22-3-1.26-.58.9-2.38-.03.35-2.98,1.42-2.9-4.04-.78-1.32-1.13.16-1.89-.56-.98.32-2.97-.48-4.69h1.69l.71-1.71.7-4.23-.53-1.58.55-1,2.34-.26.52,1.04,1.91-2.33-.64-1.79-.13-2.75,2.12.64Z"/>
        <path id="DJ" class="cls-2" d="M596.3,427.974l.66.88-.09,1.19-1.6.68,1.21.77-1.04,1.52-.62-.5-.67.2-1.57-.05-.05-.86-.21-.79.94-1.33.99-1.26,1.2.25Z"/>
        <path id="DK" class="cls-2" d="M511.08,276.094l-1.68,3.97-2.93-2.76-.39-2.05,4.11-1.66Zm-4.98-4.25-.69,1.9-.83-.55-2.02,3.59.76,2.39-1.79.74-2.12-.64-1.14-2.72-.08-5.12.47-1.38.8-1.54,2.47-.32.98-1.43,2.26-1.47-.1,2.68-.83,1.68.34,1.43Z"/>
        <path id="DO" class="cls-2" d="M274.43,407.6l.35-.51,2.19.02,1.66.76.74-.08.51,1.05,1.53-.06-.09.88,1.25.11,1.38,1.08-1.04,1.2-1.34-.64-1.28.12-.92-.14-.51.54-1.08.18-.42-.72-.93.43-1.12,2-.72-.46-.15-.84.06-.8-.72-.88.68-.5.22-1.13Z"/>
        <path id="DZ" class="cls-2" d="M509.15,396.334l-9.61,5.75-8.12,5.85-3.95,1.32-3.11.29-.03-1.88-1.3-.48-1.75-.85-.66-1.39-9.46-6.55-9.46-6.65-10.55-7.53.06-.61v-.21l-.03-3.75,4.53-2.36,2.8-.49,2.29-.86,1.08-1.62,3.28-1.29.12-2.41,1.62-.29,1.27-1.21,3.67-.56.51-1.28-.74-.71-.97-3.53-.16-2.05-1.06-2.18,2.69-1.87,3.04-.6,1.77-1.43,2.7-1.05,4.75-.62,4.64-.29,1.41.52,2.64-1.37,3-.03,1.14.81,1.91-.21-.57,1.79.45,3.28-.66,2.82-1.73,1.88.25,2.53,2.29,1.98.03.81,1.72,1.33,1.2,5.86.91,2.84.15,1.48-.49,2.59.2,1.44-.36,1.72.25,1.97-1.12,1.29,1.66,2.26.11,1.32.99,1.71,1.31-.56,2.22,1.42Z"/>
        <path id="EC" class="cls-2" d="M250.35,473.124l1.49-2.08-.61-1.22-1.07,1.3-1.68-1.23.57-.78-.47-2.53.98-.42.52-1.73,1.06-1.8-.2-1.13,1.54-.6,1.92-1.11,2.81,1.59.52-.05.68,1.2,2.38.39.8-.44,1.38.92,1.2.66.39,2.11-.87,1.81-3.06,2.92-3.37,1.1-1.72,2.43-.53,1.88-1.59,1.15-1.17-1.41-1.14-.3-1.16.22-.07-1.02.8-.66Z"/>
        <path id="EE" class="cls-2" d="M543.67,264.964l.33-3.12-1.03.67-1.78-1.9-.25-3.11,3.55-1.53,3.53-.81,3.04.92,2.9-.17.42.96-1.99,3.14.83,4.96-1.2,1.66-2.32-.01-2.41-1.94-1.23-.65Z"/>
        <path id="EG" class="cls-2" d="M573.42,377.534l-.79,1.29-.6,2.4-.76,1.64-.66.56-.93-1.02-1.27-1.42-2-4.57-.28.29,1.16,3.37,1.72,3.18,2.12,4.88,1.03,1.68.9,1.74,2.52,3.4-.56.53.09,1.97,3.27,2.71.49.62H545.6v-22.41l-.84-2.58.72-2-.43-1.39,1.01-1.57,3.73-.05,2.7.86,2.78.97,1.3.5,2.16-1.03,1.15-.93,2.48-.27,1.99.41.77,1.62.65-1.07,2.24.77,2.19.19,1.38-.82Z"/>
        <path id="EH" class="cls-2" d="M438.82,383.314l3.62.01,8.75.03h0l-8.75-.03-3.62-.01-.11.09-.05.04-1.78,3.2-1.86,1.14-1.02,1.91-.06,1.65-.75,1.79-.94.49-1.56,1.94-.96,2.15.18,1.02-.92,1.57-1.08.82-.13,1.39-.12,1.27.61-1,10.98.02-.53-4.35.69-1.55,2.62-.27-.09-7.86,9.21.17v-4.73l.06-.61v-.21Z"/>
        <path id="ER" class="cls-2" d="M594.25,428.424l-.96-.93-1.15-1.67-1.24-.92-.73-1-2.44-1.15-1.92-.03-.68-.61-1.64.68-1.7-1.31-.88,2.15-3.26-.6-.3-1.15,1.21-4.25.27-1.93.88-.9,2.07-.48,1.42-1.67,1.63,3.38.77,2.67,1.54,1.41,3.82,2.72,1.56,1.64,1.52,1.66.88.98,1.38.86-.85.7Z"/>
        <path id="ES" class="cls-2" d="M450.17,334.814l.14-2.68-1.14-1.66,3.96-2.77,3.43.7,3.77-.03,2.98.66,2.33-.2,4.53.12,1.12,1.49,5.16,1.73,1.02-.82,3.16,1.72,3.25-.49.15,2.19-2.66,2.49-3.59.78-.25,1.24-1.73,2.03-1.08,2.96,1.09,2.05-1.62,1.6-.6,2.3-2.12.7-1.99,2.69-3.55.05-2.68-.06-1.75,1.22-1.07,1.31-1.38-.29-1.03-1.17-.8-2-2.62-.54-.23-1.16,1.04-1.32.38-.96-.96-1.06.77-2.35-1.12-2.17,1.21-.3.11-1.72.46-.53.03-2.88,1.3-1-.78-1.88-1.64-.13-.48.47-1.65.01-.71-1.84-1.14.55Z"/>
        <path id="ET" class="cls-2" d="M581.79,421.484l1.7,1.31,1.64-.68.68.61,1.92.03,2.44,1.15.73,1,1.24.92,1.15,1.67.96.93-.99,1.26-.94,1.33.21.79.05.86,1.57.05.67-.2.62.5-.61,1.01,1.04,1.56,1.03,1.36,1.07,1.01,9.17,3.34,2.36-.02-7.93,8.42-3.65.12-2.5,1.97-1.79.05-.77.88h-1.92l-1.13-.94-2.56,1.17-.83,1.16-1.87-.22-.62-.32-.66.07-.88-.02-3.55-2.38h-1.95l-.96-.91v-1.57l-1.46-.47-1.65-3.05-1.28-.65-.5-1.12-1.42-1.37-1.72-.2.96-1.61,1.48-.07.42-.86-.03-2.53.83-2.96,1.32-.8.29-1.16,1.2-2.17,1.69-1.42,1.14-2.81.45-2.47,3.26.6Z"/>
        <path id="FK" class="cls-2" d="M303.91,633.384l3.36-2.69,2.39,1.12,1.68-1.79,2.24,2.01-.84,1.58-3.79,1.36-1.26-1.59-2.38,2.05Z"/>
        <path id="FI" class="cls-2" d="M555.67,193.354l-.41,5.4,4.3,4.99-2.59,5.48,3.26,7.96-1.89,5.76,2.53,4.86-1.15,4.14,4.15,4.26-1.06,3.1-2.6,3.45-6,7.41-5.09.45-4.93,2.07-4.56,1.18-1.63-3.07-2.71-1.87.62-5.72-1.36-5.41,1.34-3.58,2.54-3.94,6.41-7.02,1.88-1.39-.3-2.84-3.9-3.22-.94-2.7-.08-11.12-4.37-5.15-3.74-3.81,1.68-2.08,3.12,4.15,3.66-.39,3.01,1.87,2.67-3.44,1.38-5.85,4.35-2.78,3.6,3.26Z"/>
        <path id="FJ" class="cls-2" d="M980.78,508.864l-.35,1.4-.23.16-1.78.72-1.79.61-.36-1.09,1.4-.6.89-.16,1.64-.91Zm-5.84,4.31-1.27-.36-1.08,1,.27,1.29,1.55.36,1.74-.4.46-1.53-.96-.84Z"/>
        <path id="FR" class="cls-2" d="M502.31,333.794l-.93,2.89-1.27-.76-.65-2.53.57-1.41,1.81-1.45Zm-16.75-33.35,1.96,2.06,1.44-.34,2.45,1.97.63.37.81-.09,1.32,1.12,4.04.79-1.42,2.9-.36,2.98-.77.71-1.28-.38.09,1.05-2.05,2.3-.04,1.84,1.34-.63.96,1.77-.12,1.13.83,1.5-.97,1.21.72,3.04,1.52.49-.32,1.68-2.54,2.17-5.53-1.04-4.08,1.24-.32,2.29-3.25.49-3.15-1.72-1.02.82-5.16-1.73-1.12-1.49,1.45-2.32.53-7.88-2.89-4.26-2.07-2.09-4.29-1.6-.28-3.07,3.64-.92,4.71,1.09-.89-4.84,2.65,1.85,6.53-3.37.84-3.61,2.45-.9.41,1.56,1.3.07Z"/>
        <path id="GA" class="cls-2" d="M506.61,474.734l-2.88-2.82-1.86-2.3-1.7-2.88.09-.92.61-.9.68-2.02.57-2.07.95-.16,4.07.03-.02-3.35,1.33-.19,1.71.38,1.66-.36.35.15-.21,1.22.79,1.43,2.08-.22.7.55-1.21,3.23,1.32,1.64.31,2.18-.35,1.85-.86,1.32-2.48-.12-1.5-1.34-.22,1.24-1.89.34-.96.7,1.05,1.85Z"/>
        <path id="GB" class="cls-2" d="M459.63,281.254l-1.5,3.29-2.12-.98-1.73.07.58-2.57-.58-2.6,2.35-.2Zm7.45-20.76-3,5.73,2.86-.72,3.07.03-.73,4.22-2.52,4.53,2.9.32.22.52,2.5,5.79,1.92.77,1.73,5.41.8,1.84,3.4.88-.34,2.93-1.43,1.33,1.12,2.33-2.52,2.33-3.75-.04-4.77,1.21-1.31-.87-1.85,2.06-2.59-.5-1.97,1.67-1.49-.87,4.11-4.64,2.51-.97h-.02l-4.38-.75-.79-1.8,2.93-1.41-1.54-2.48.53-3.06,4.17.42h0l.41-2.74-1.88-2.95-.04-.07-3.4-.85-.67-1.32,1.02-2.2-.92-1.37-1.51,2.34-.16-4.8-1.42-2.59,1.02-5.36,2.18-4.31,2.24.42Z"/>
        <path id="GE" class="cls-2" d="M592.01,336.1l.42-1.6-.7-2.57-1.62-1.41-1.55-.44-1.03-1.17.34-.46,2.37.66,4.13.62,3.82,1.83.49.71,1.7-.6,2.62.8.85,1.55,1.77.87-.73.51,1.38,2.02-.38.43-1.51-.22-2.09-1.06-.69.6-3.9.58-2.7-1.82Z"/>
        <path id="GF" class="cls-2" d="M328.14,456.664l-1.07,1.06-1.34.2-.38-.78-.63-.12-.87.76-1.22-.57.71-1.19.24-1.27.48-1.2-1.09-1.65-.22-1.91,1.46-2.41.95.31,2.06.66,2.97,2.36.46,1.14-1.66,2.55Z"/>
        <path id="GH" class="cls-2" d="M478.48,447.094l-4.4,1.64-1.56.96-2.53.81-2.5-.79.13-1.11-1.21-2.41.73-3.17,1.18-2.36-.74-4.01-.39-2.13.07-1.61,4.87-.13,1.24.21.9-.46,1.3.22-.21.89,1.17,1.46v2.05l.27,2.22.7,1.03-.62,2.53.22,1.4.75,1.78Z"/>
        <path id="GL" class="cls-2" d="M344.38,24.164l9.42-13.61,9.84,1.07,3.57-8.95,9.91-2.42,22.4,3.15,17.54,18.59-5.18,8.3-10.73.93-15.09,2.03,1.41,3.64,9.93-2.24,8.44,6.91,5.45-6.12,2.33,7.15-3.08,10.97,7.14-6.93,13.61-7.55,8.41,3.81,1.57,8.12-11.43,12.66-1.58,3.9-8.96,2.86,6.49.79-3.28,11.51-2.26,9.59.09,15.26,3.37,8.34-4.38.51-4.61,3.88,5.17,6.3.66,9.62-3,1.02,3.63,9.15-6.22.75,3.25,4.14-.92,3.51-3.95,1.51-3.91.03,3.51,6.48.04,4.13-5.55-3.83-1.44,2.49,3.78,2.29,3.68,5.48,1.06,6.95-5,1.62-2.16-3.26-3.47-4.98.96,5.87-3.25,4.41,7.38.35,3.87.45-7.52,7.03-7.62,6.13-8.2,2.61-3.09.04-2.9,2.87-3.9,7.63-6.03,4.89-1.94.29-3.74,1.67-4.02,1.59-2.41,4.12-.04,4.56-1.41,4.16-4.58,4.95,1.13,4.71-1.26,4.85-1.43,5.56-3.95.34-4.14-4.63-5.61-.03-2.72-3.18-1.87-5.8-4.86-7.68-1.42-4.15-.38-5.89-3.89-6.27,1.01-5.17-1.87-2.53,2.77-8.65,4.22-2.85,1.11-3.26.59-6.26-3.21,2.86-1.52,1.19-2.52,1.14-3.44-2.61-.19-5.55,1.1-4.48,2.6-.12,5.72,2.25-4.82-5.43-2.51-3.01-2.79,1.24-2.34-2.19,3.13-8.5-1.7-3.53-2.23-6.74-3.37-10.91-3.57-4.17.03-4.63-7.53-6.69-5.95-.85-7.49.47-6.84.86-3.26-3.75-4.87-7.66,7.36-3.97,5.65-.68-12-3.36-6.32-5.44.39-5.34,10.61-6.87,10.27-7.16,1.08-5.64-7.56-5.76,2.44-6.64,9.71-12.33,4.08-1.98-1.17-8.57,6.64-5.24,8.62-3.21,8.62-.18,3.06,6.3,7.44-11.32,6.69,7.78,3.93,1.59,5.83,6.41L344,33.254Z"/>
        <path id="GM" class="cls-2" d="M428.28,426.684l.36-1.27,3.05-.09.64-.67.89-.05,1.1.71.87.01.93-.48.56.82-1.21.65-1.22-.05-1.2-.61-1.04.66-.5.03-.68.4Z"/>
        <path id="GN" class="cls-2" d="M451.84,442.164l-.79-.07-.57,1.13-.8-.01-.54-.6.18-1.13-1.17-1.72-.73.31-.6.07-.77.16.03-1.03-.45-.74.09-.82-.61-1.19-.78-1.01h-2.24l-.65.53-.78.06-.48.61-.32.79-1.5,1.24-1.23-1.67-1.09-1.11-.72-.36-.7-.57-.31-1.25-.41-.62-.82-.47,1.25-1.38.85.05.73-.48h.62l.44-.38-.24-.94.31-.3.05-.97,1.35.03,2.02.7.62-.07.21-.31,1.52.22.41-.16.16,1.05.45-.01.73-.38.46.1.78.72,1.2.23.77-.62.91-.38.67-.4.56.08.62.62.34.79,1.15,1.19-.58.73-.11.92.6-.28.35.34-.15.84.86.82-.56.21-.23.97.65,1.16.69,2.26-1.04.34-.27.39.22.54-.16,1.23Z"/>
        <path id="GQ" class="cls-2" d="M502.12,460.824l-.53-.42.97-3.13,4.56.07.02,3.35-4.07-.03Z"/>
        <path id="GR" class="cls-2" d="M541.95,356.964l1.53,1.16,2.18-.19,2.09.24-.07.6,1.53-.41-.35,1.01-4.04.29.03-.56-3.42-.67ZM550.1,336l-.87,2.33-.67.41-1.71-.1-1.46-.35-3.4.96,1.94,2.06-1.42.59h-1.56l-1.48-1.88-.53.8.63,2.18,1.4,1.7-1.06.79,1.56,1.65,1.39,1.03.04,2-1.36-1.15-1.24.21.83,1.8-.92.19-1-.69,1.2,3.95h-.58l-.45-1.25-.57-.02-.26,1.32-.45-.3.1-.74-.56-1.04H537l.12.84-.25.27-.62-.54-.38-1.01.52-.57-.36-.74-.41-.38-.42-.09-.49-.94.58-.52.36-.48.56.1.25-.41.59-.16.68.46.55.17.39-.62-.94-.08-.56-.19-1.25.28-1.22.05-1.09-1.64-.18-.25.17-.64-1.42-1.15-.19-1.03,1.3-1.76.17-1.19.91-.53.06-.97,1.83-.33,1.07-.81,1.52.07.46-.65.53-.12,2.07.11,2.25-1.02,1.98,1.3,2.55-.35.03-1.86Z"/>
        <path id="GT" class="cls-2" d="M222.89,425l-1.44-.5-1.75-.05-1.28-.57-1.51-1.18.07-.84.32-.68-.39-.54,1.35-2.36,3.59-.01.08-.98-.46-.18-.31-.63-1.04-.67-1.04-.98h1.27v-1.65h2.62l2.59.03-.02,2.31-.22,3.28h.83l.92.53.24-.44.82.37-1.27,1.11-1.33.81-.2.55.22.56-.58.74-.66.17.15.34-.52.32-.96.72Z"/>
        <path id="GW" class="cls-2" d="M433.08,432.694l-1.5-1.19-1.18-.18-.64-.81.01-.43-.85-.6-.18-.61,1.49-.47.93.09.75-.32,5.18.12-.05.97-.31.3.24.94-.44.38h-.62l-.73.48-.85-.05Z"/>
        <path id="GY" class="cls-2" d="M307.95,440.254l1.84,1.03,1.74,1.83.07,1.45,1.06.07,1.5,1.36,1.11.98-.45,2.52-1.7.73.15.65-.52,1.45,1.25,2.02.89.01.37,1.57,1.71,2.42-.68.1-1.55-.23-.91.74-1.27.49-.88.12-.31.54-1.38-.14-1.73-1.3-.2-1.29-.72-1.41.45-2.38.78-.98-.65-1.3-.96-.42.37-1.23-.66-.64-1.46.12-1.89-2.12.76-.77-.06-1.3,1.73-.45.69-.52-.96-1.04.25-1.03Z"/>
        <path id="HN" class="cls-2" d="M230.68,427.154l-.48-.89-.86-.25.2-1.15-.38-.31-.58-.2-1.23.34-.1-.39-.85-.46-.6-.57-.83-.24.58-.74-.22-.56.2-.55,1.33-.81,1.27-1.11.29.12.62-.51.8-.04.26.23.44-.14,1.3.26,1.3-.08.9-.32.33-.32.89.15.67.2.73-.07.56-.25,1.28.4.45.06.85.54.81.65,1.02.44.74.8-.96-.06-.39.39-.97.38h-.71l-.62.37-.56-.13-.48-.44-.29.08-.36.69-.27-.03-.05.6-.98.79-.51.34-.29.36-.83-.58-.6.76-.59-.02-.66.07.06,1.41-.41.02-.35.66Z"/>
        <path id="HR" class="cls-2" d="M528.3,319.184l.68,1.55.89,1.14-1.08,1.49-1.27-.88-1.94.06-2.41-.66-1.31.09-.6.82-1.01-.91-.59,1.64,1.38,1.83.6,1.21,1.29,1.45,1.07.85,1.06,1.61,2.48,1.44-.31.64-2.63-1.4-1.63-1.38-2.56-1.14-2.36-2.85.57-.3-1.28-1.64-.06-1.34-1.8-.62-.86,1.71-.83-1.33.07-1.38.1-.06,1.95.14.52-.68.95.65,1.1.08-.01-1.12.97-.41.28-1.62,2.23-1.08.89.5,2.1,1.73,2.31.77Z"/>
        <path id="HT" class="cls-2" d="M270.29,407l1.71.13,2.43.47.25,1.61-.22,1.13-.68.5.72.88-.06.8-1.86-.5-1.32.2-1.71-.21-1.31.55-1.51-.92.25-.95,2.58.41,2.12.24,1.01-.66-1.28-1.27.02-1.13-1.77-.46Z"/>
        <path id="HU" class="cls-2" d="M520.93,315.364l.93-2.65-.54-.89,1.58-.01.21-1.71,1.43,1.07,1.03.46,2.36-.51.22-.84,1.12-.13,1.36-.65.3.27,1.32-.52.66-1,.92-.25,3,1.28.6-.43,1.55,1.14.2,1.12-1.71.87-1.33,2.8-1.69,2.76-2.25.76-1.75-.17-2.15,1.05-1.05.6-2.31-.77-2.1-1.73-.89-.5-.55-1.37Z"/>
        <path id="ID" class="cls-2" d="M813.97,492.314l-1.18.05-3.72-1.98,2.61-.56,1.47.86.98.86Zm10.43-.28-2.4.62-.34-.34.25-.96,1.21-1.72,2.77-1.12.28.56.05.86Zm-18.32-5.77,1.01.75,1.73-.23.7,1.2-3.24.57-1.94.38-1.51-.02.96-1.62,1.54-.02Zm14.03-.01-.41,1.56-4.21.8-3.73-.35-.01-1.03,2.23-.59,1.76.84,1.87-.21Zm-40.04-3.69,5.37.28.62-1.16,5.2,1.35,1.02,1.82,4.21.51,3.44,1.67-3.2,1.07-3.08-1.13-2.54.08-2.91-.21-2.62-.51-3.25-1.07-2.06-.28-1.17.35-5.11-1.16-.49-1.21-2.57-.21,1.92-2.68,3.4.17,2.26,1.09,1.16.21Zm73.18-1.58-1.44,1.91-.27-2.11.5-1.01.59-.95.64.82Zm-20.96-7.71-1.05.93-1.94-.51-.55-1.2,2.84-.13Zm9.04-1.01,1.02,2.13-2.37-1.15-2.34-.23-1.58.18-1.94-.1.67-1.53,3.46-.12Zm10.29-5.42.78,4.51,2.9,1.67,2.34-2.96,3.22-1.68h2.49l2.4.97,2.08,1,3.01.53.05,9.1.05,9.16-2.5-2.31-2.85-.57-.69.8-3.55.09,1.19-2.29,1.77-.78-.73-3.05-1.35-2.35-5.44-2.37-2.31-.23-4.21-2.58-.83,1.36-1.08.25-.64-1.02-.01-1.21-2.14-1.37,3.02-1,2,.05-.24-.74-4.1-.01-1.11-1.66-2.5-.51-1.19-1.38,3.78-.67,1.44-.91,4.5,1.14Zm-24.96-7.16-2.25,2.76-2.11.54-2.7-.54-4.67.14-2.45.4-.4,2.11,2.51,2.48,1.51-1.26,5.23-.95-.23,1.28-1.22-.4-1.22,1.63-2.47,1.08,2.65,3.57-.51.96,2.52,3.22-.02,1.84-1.5.82-1.1-.98,1.36-2.29-2.75,1.08-.7-.77.36-1.08-2.02-1.64.21-2.72-1.87.85.24,3.25.11,4-1.78.41-1.2-.82.8-2.57-.43-2.69-1.18-.02-.87-1.91,1.16-1.83.4-2.21,1.41-4.2.59-1.15,2.38-2.07,2.19.82,3.54.39,3.22-.12,2.77-2.02Zm9.67.8-.15,2.43-1.45-.27-.43,1.69,1.16,1.47-.79.33-1.13-1.76-.83-3.56.56-2.23.93-1.01.2,1.52,1.66.24Zm-30.32-1.94,3.14,2.58-3.32.33-.94,1.9.12,2.52-2.7,1.91-.06,2.77-1.08,4.27-.41-.99-3.19,1.26-1.11-1.71-2-.16-1.4-.89-3.33,1-1.02-1.35-1.84.15-2.31-.32-.43-3.74-1.4-.77-1.35-2.38-.39-2.44.33-2.58,1.67-1.85.47,1.86,1.92,1.57,1.81-.57,1.79.2,1.63-1.41,1.34-.24,2.65.78,2.29-.59,1.44-3.88,1.08-.97.97-3.17h3.22l2.43.47-1.59,2.52,2.06,2.64Zm-33.81,21.42-3.1.06-2.36-2.34-3.6-2.28-1.2-1.69-2.12-2.27-1.39-2.09-2.13-3.9-2.46-2.32-.82-2.39-1.03-2.17-2.53-1.75-1.47-2.39-2.11-1.56-2.92-3.08-.25-1.42,1.81.11,4.34.54,2.48,2.73,2.17,1.89,1.55,1.16,2.66,3,2.85.04,2.36,1.91,1.62,2.33,2.13,1.27-1.12,2.27,1.61.97,1.01.07.48,1.94.98,1.56,2.06.25,1.36,1.76-.7,3.47Z"/>
        <path id="IE" class="cls-2" d="M458.13,284.544l.46,3.36-2.12,4.12-4.97,2.68-3.97-.68,2.27-4.78-1.46-4.77,3.81-3.75,2.12-2.27.58,2.6-.58,2.57,1.74-.06Z"/>
        <path id="IL" class="cls-2" d="M575.66,367.074l-.49,1.05-1.02-.46-.58,2.2.7.36-.71.46-.13.86,1.32-.45.07,1.27-1.4,5.17-1.84-5.55.81-1.08-.19-.19.74-1.53.57-2.5.4-.84.08-.03h.94l.26-.58.75-.05.04,1.37-.38.5Z"/>
        <path id="IN" class="cls-2" d="M693.75,357.694l3.01,3.99-.28,2.74,1.11,1.71-.09,1.69-2.01-.44.79,3.63,2.75,2.06,3.9,2.27-1.78,1.46-1.09,2.99,2.72,1.2,2.64,1.55,3.66,1.77,3.84.41,1.62,1.59,2.16.29,3.38.73,2.33-.05.32-1.24-.37-1.99.22-1.35,1.71-.67.24,2.48.05.63,2.55,1.19,1.77-.49,2.36.21,2.29-.09.2-1.93-1.14-1,2.26-.4,2.55-2.35,3.23-2.03,2.35.78,2-1.34,1.32,1.98-.95,1.34,3.02.47.22,1.2-.99.58.23,1.93-2-.57-3.63,2.16.08,1.78-1.54,2.6-.15,1.5-1.25,2.52-2.19-.7-.11,3.15-.63,1.03.3,1.28-1.39.72-1.47-4.8-.78.01-.46,1.94-1.53-1.58.86-1.73,1.26-.18,1.29-2.59-1.61-.53-2.61.05-2.66-.42-.25-2.15-1.34-.16-2.22-1.34-.99,2.11,2.02,1.63-1.75,1.15-.62,1.12,1.72.82-.47,1.84.97,2.28.44,2.48-.41,1.1-1.9-.04-3.46.62.16,2.25-1.5,1.76-4.03,2-3.14,3.46-2.11,1.85-2.79,1.91v1.34l-1.4.72-2.53,1.03-1.31.16-.84,2.2.58,3.75.15,2.37-1.18,2.71-.02,4.83-1.45.14-1.27,2.15.85.93-2.56.8-.94,1.92-1.13.81-2.65-2.63-1.3-3.96-1.08-2.86-.98-1.34-1.49-2.74-.69-3.58-.49-1.8-2.55-3.97-1.16-5.64-.84-3.77.01-3.58-.54-2.8-4.08,1.79-1.98-.36-3.66-3.63,1.35-1.09-.83-1.18-3.29-2.58,1.87-2.04,6.17.01-.56-2.64-1.57-1.56-.32-2.39-1.84-1.4,3.09-3.3,3.26.24,2.93-3.32,1.76-3.26,2.72-3.24-.04-2.33,2.39-1.91-2.27-1.63-.97-2.25-.99-2.95,1.37-1.46,4.26.83,3.12-.51Z"/>
        <path id="IQ" class="cls-2" d="M602.86,356.024l1.83,1.04.22,2-1.42,1.17-.65,2.64,1.95,3.18,3.43,1.82,1.45,2.5-.46,2.37h.89l.03,1.73,1.55,1.69-1.66-.15-1.89-.27-2.06,3.08-5.21-.26-7.9-6.49-4.18-2.29-3.38-.89-1.13-4.04,6.21-3.5,1.06-4.12-.27-2.52,1.54-.86,1.44-2.18,1.2-.55,3.26.46.99.89,1.34-.59Z"/>
        <path id="IR" class="cls-2" d="M626.69,351.784l2.47-.68,1.99-2.02,1.87.1,1.23-.66,2,.33,3.1,1.79,2.24.39,3.2,3.09,2.09.12.25,2.91-1.14,4.25-.77,2.45,1.22.49-1.2,1.83.92,2.64.22,2.09,2.12.55.23,2.1-2.54,2.93,1.38,1.68,1.13,1.93,2.68,1.4.08,2.77,1.34.51.23,1.44-4.04,1.61-1.06,3.6-5.27-.93-3.06-.71-3.16-.41-1.2-3.81L633.9,385l-2.16.56-2.82,1.51-3.43-1.03-2.83-2.41-2.7-.9-1.87-3.01-2.07-4.27-1.51.52-1.78-1.07-1.05,1.26-1.55-1.69-.03-1.73h-.89l.46-2.37-1.45-2.5-3.43-1.82-1.95-3.18.65-2.64,1.42-1.17-.22-2-1.83-1.04-1.82-4.14-1.53-2.83.54-1.09-.87-4.12,1.92-1.03.44,1.37,1.42,1.66,1.92.47,1.02-.1,3.31-2.66,1.05-.27.82,1.07-.96,1.78,1.75,1.86.69-.17.89,2.61,2.66.73,1.95,1.76,3.98.6,4.38-.92Z"/>
        <path id="IS" class="cls-2" d="M434.82,212.684l-.64,4.48,3.16,4.6-3.64,5.01-8.09,4.38-2.42,1.15-3.69-.93-7.82-2.01,2.76-2.84-6.1-3.2,4.96-1.28-.12-1.97-5.88-1.57,1.89-4.47,4.25-1.03,4.37,4.68,4.26-3.75,3.53,1.96,4.57-3.71Z"/>
        <path id="IT" class="cls-2" d="M519.02,348.134l-1.01,2.78.42,1.09-.59,1.79-2.14-1.31-1.43-.38-3.91-1.79.39-1.82,3.28.32,2.86-.39Zm-17.69-10.82,1.68,2.62-.39,4.81-1.27-.23-1.14,1.2-1.06-.95-.11-4.38-.64-2.1,1.54.19Zm8.87-21.6,4.01,1.05-.3,1.99.67,1.71-2.23-.58-2.28,1.42.16,1.97-.34,1.12.92,1.99,2.63,1.95,1.41,3.17,3.12,3.05,2.2-.02.68.83-.79.74,2.51,1.35,2.06,1.12,2.4,1.92.29.68-.52,1.31-1.56-1.7-2.44-.6-1.18,2.36,2.03,1.34-.33,1.88-1.17.21-1.5,3.06-1.17.27.01-1.08.57-1.91.61-.77-1.09-2.09-.86-1.83-1.16-.46-.83-1.58-1.8-.67-1.21-1.49-2.07-.24-2.19-1.68-2.56-2.45-1.91-2.19-.87-3.8-1.4-.45-2.28-1.29-1.29.53-1.62,1.8-1.17.28.32-1.68-1.52-.49-.72-3.04.97-1.21-.83-1.5.12-1.13,1.21.86,1.35-.19,1.57-1.36.49.64,1.34-.13.61-1.63,2.07.51,1.24-.68.22-1.67,1.7.58.33-.78,2.77-.71Z"/>
        <path id="JM" class="cls-2" d="M258.01,411.214l1.89.26,1.49.71.46.8-1.97.05-.85.49-1.57-.47-1.6-1.07.33-.67,1.18-.2Z"/>
        <path id="JO" class="cls-2" d="M575.17,368.124l.49-1.05,3.12,1.32,5.49-3.54,1.13,4.04-.53.49-5.62,1.65,2.8,3.26-.93.54-.46,1.09-2.14.44-.67,1.16-1.22.98-3.12-.51-.09-.46,1.4-5.17-.07-1.27.42-.96Z"/>
        <path id="JP" class="cls-2" d="M853.01,362.264l.36,1.15-1.58,2.03-1.15-1.07-1.44.78-.74,1.95-1.83-.95.02-1.58,1.55-2,1.59.39,1.15-1.42Zm17.77-10.28-1.06,2.78.49,1.73-1.46,2.42-3.58,1.6-4.93.21-4,3.84-1.88-1.29-.11-2.52-4.88.75-3.32,1.59-3.28.06,2.84,2.46-1.87,5.61-1.81,1.37-1.36-1.27.69-2.96-1.77-.96-1.14-2.28,2.65-1.03,1.47-2.11,2.82-1.75,2.06-2.33,5.58-1.02,3,.7,2.93-6.17,1.87,1.67,4.11-3.51,1.59-1.38,1.76-4.38-.48-4.1,1.18-2.33,2.98-.68,1.53,5.11-.08,2.94-2.59,3.6Zm8.23-25.93,1.97.83,1.98-1.65.62,4.35-4.16,1.05-2.46,3.76-4.41-2.58-1.53,4.12-3.12.06-.39-3.74,1.39-2.94,3-.21.82-5.38.83-3.09,3.29,4.12Z"/>
        <path id="KE" class="cls-2" d="M590.44,466.034l1.66,2.29-1.96,1.12-.69,1.16-1.06.2-.39,1.97-.9,1.12-.55,1.86-1.13.92-4.02-2.79-.2-1.62-10.16-5.67-.48-.31-.02-2.95.8-1.13,1.38-1.84,1.02-2.03-1.23-3.2-.33-1.4-1.33-1.94,1.72-1.67,1.9-1.84,1.46.47v1.57l.96.91h1.95l3.55,2.38.88.02.66-.07.62.32,1.87.22.83-1.16,2.56-1.17,1.13.94h1.92l-2.45,3.17Z"/>
        <path id="KG" class="cls-2" d="M674.47,333.364l.63-1.66,1.84-.54,4.62,1.31.43-2.24,1.59-.8,4,1.61,1.02-.42,4.65.1,4.16.4,1.4,1.37,1.73.55-.39.86-4.42,2.03-1,1.48-3.6.44-1.06,2.35-2.97-.49-1.93.72-2.68,1.72.39.85-.8.83-5.3.55-3.47-1.17-3.04.28.27-2.1,3.05.61,1.03-1.13,2.13.36,3.59-2.64-3.32-1.96-2,.93-2.07-1.4,2.35-2.43Z"/>
        <path id="KH" class="cls-2" d="M765.69,433.854l-1.14-1.48-1.41-2.94-.67-3.45,1.8-2.38,3.62-.55,2.63.41,2.31,1.13,1.27-1.99,2.49,1.06.65,1.92-.35,3.42-4.71,2.19,1.23,1.73-2.94.2-2.43,1.14Z"/>
        <path id="KP" class="cls-2" d="M841.8,332.874l.39.67-1.06-.23-1.22,1.27-.84,1.28.11,2.67-1.45.81-.5.65-1.06,1.08-1.87.6-1.21.98-.09,1.57-.33.4,1.12.58,1.59,1.58-.41.86-1.19.23-1.98.17-1.09,1.6-1.26-.12-.17.32-1.36-.67-.34.66-.82.29-.1-.66-.73-.32-.75-.57.77-1.57.66-.42-.25-.65.71-1.94-.19-.59-1.63-.4-1.32-.97,2.28-2.35,3.09-1.98,1.93-2.65,1.33,1.17,2.42.14-.44-1.97,4.33-1.63,1.12-2.13Z"/>
        <path id="KR" class="cls-2" d="M835.38,346.784l2.42,4.18.69,2.27.02,3.98-1.05,1.88-2.54.66-2.24,1.41-2.53.29-.31-1.85.52-2.57-1.24-3.6,2.08-.59-1.92-3,.17-.32,1.26.12,1.09-1.6,1.98-.17,1.19-.23Z"/>
        <path id="XK" class="cls-2" d="M533.72,334.174l-.13.77-.36-.03-.18-1.37-.67-.38-.6-1.02.52-.85.67-.28.39-1.26.5-.22.4.54.53.24.36.61.46.18.55.7.4-.02-.32.93-.33.45.09.28-.63.14Z"/>
        <path id="KW" class="cls-2" d="M610.02,376.014l.58,1.41-.25.73.9,2.41-1.98.08-.7-1.51-2.5-.31,2.06-3.08Z"/>
        <path id="KZ" class="cls-2" d="M674.47,333.364l-1.61.7-3.69,2.61-1.23,2.65-1.05.02-.76-1.75-3.57-.12-.57-3.06-1.37-.03.21-3.8-3.35-2.8-4.81.3-3.29.56-2.68-3.5-2.29-1.48-4.35-2.84-.52-.35-7.22,2.35.11,14.13-1.44.18-1.96-2.93-1.9-1.06-3.18.79-1.24,1.25-.16-.92.69-1.57-.53-1.32-3.25-1.3-1.27-3.47-1.54-.98-.1-1.28,2.73.37.11-2.88,2.38-.64,2.45.59.51-3.91-.5-2.51-2.81.2-2.38-1-3.25,1.79-2.61.86-1.43-.66.29-2.1-1.79-2.76-2.08.11-2.38-2.83,1.62-3.22-.82-.87,2.23-4.77,2.89,2.53.35-3.19,5.78-4.85,4.38-.12,6.19,3.1,3.31,1.79,2.98-1.87,4.44-.08,3.59,2.29.82-1.31,3.93.19.71-2.11-4.55-3.09,2.69-2.23-.52-1.25,2.69-1.21-2.02-3.2,1.28-1.62,10.49-1.66,1.37-1.19,7.02-1.79,2.52-2.04,5.04,1.06.88,5.01,2.93-1.16,3.6,1.63-.23,2.58,2.69-.27,7.02-4.49-1.02,1.5,3.58,3.66,6.26,11.58,1.5-2.33,3.86,2.56,4.03-1.14,1.54.8,1.35,2.55,1.96.84,1.2,1.85,3.61-.58,1.49,2.63-2.14,2.83-2.33.4-.13,4.18-1.56,1.86-5.56-1.35-2.02,7.26-1.44.89-5.55,1.58,2.52,6.75-1.92,1,.22,2.16-1.73-.55-1.4-1.37-4.16-.4-4.65-.1-1.02.42-4-1.61-1.59.8-.43,2.24-4.62-1.31-1.84.54Z"/>
        <path id="LA" class="cls-2" d="M770.52,423.464l.91-1.3.13-2.44-2.27-2.53-.18-2.87-2.13-2.38-2.12-.2-.56,1.02-1.65.08-.84-.51-2.95,1.74-.07-2.62.69-3.11-1.89-.13-.16-1.78-1.22-.92.6-1.1,2.39-1.94.25.7,1.49.08-.42-3.43,1.45-.44,1.64,2.37,1.26,2.72,3.45.03,1.09,2.59-1.79.77-.81,1.07,3.36,1.76,2.33,3.46,1.77,2.57,2.12,2.02.71,2.04-.51,2.88-2.49-1.06-1.27,1.99Z"/>
        <path id="LB" class="cls-2" d="M575.94,365.184l-.75.05-.26.58h-.94l1-2.73,1.39-2.38.06-.12,1.26.18.46,1.32-1.53,1.27Z"/>
        <path id="LK" class="cls-2" d="M704.82,442.624l-.42,2.92-1.17.8-2.44.64-1.34-2.23-.49-4.03,1.27-4.58,1.93,1.57,1.31,1.98Z"/>
        <path id="LR" class="cls-2" d="M453.88,451.474l-.74.02-2.89-1.33-2.54-2.13-2.39-1.53-1.89-1.81.67-.9.15-.81,1.26-1.53,1.31-1.31.6-.07.73-.31,1.17,1.72-.18,1.13.54.6.8.01.57-1.13.79.07-.13.82.28,1.36-.61,1.24.82.77.89.19,1.19,1.17.08,1.11-.27.35Z"/>
        <path id="LS" class="cls-2" d="M556.75,548l.98.96-.86,1.56-.48,1.05-1.56.5-.52,1.04-1,.32-2.1-2.49,1.49-2.03,1.52-1.25,1.31-.64Z"/>
        <path id="LT" class="cls-2" d="M539.24,282.344l-.23-1.22.3-1.33-1.24-.77-2.93-.86-.6-4.16,3.21-1.55,4.7.33,2.76-.5.39,1.05,1.49.32,2.7,2.42.26,2.2-2.3,1.57-.65,2.72-3.04,1.8-2.71-.04-.67-1.46Z"/>
        <path id="LU" class="cls-2" d="M492.45,301.544l.56.98-.16,1.89-.81.1-.63-.38.31-2.43Z"/>
        <path id="LV" class="cls-2" d="M534.54,274l.1-3.81,1.38-3.24,2.64-1.78,2.22,3.88,2.25-.1.54-3.99,2.39-.93,1.23.65,2.41,1.94,2.32.01,1.35,1.19.23,2.49.91,2.99-3.02,1.93-1.7.84-2.7-2.42-1.49-.32-.39-1.05-2.76.5-4.7-.33Z"/>
        <path id="LY" class="cls-2" d="M517.14,398.184l-1.98,1.12-1.58-1.66-4.43-1.31-1.23-1.91L505.7,393l-1.31.56-.99-1.71-.11-1.32-1.66-2.26,1.12-1.29-.25-1.97.36-1.72-.2-1.44.49-2.59-.15-1.48-.91-2.84,1.37-.75.24-1.38-.3-1.35,1.93-1.26.86-1.05,1.37-.95.16-2.55,3.29,1.15,1.18-.29,2.34.56,3.72,1.47,1.31,2.92,2.52.64,3.95,1.36,2.99,1.61,1.37-.84,1.34-1.49-.65-2.51.88-1.6,2.02-1.55,1.93-.45,3.79.68.96,1.48,1.04.01.89.56,2.79.39.68,1.08-1.01,1.57.43,1.39-.72,2,.84,2.58v28.37l-3.22.01-.04,1.24-11.18-5.7-11.19-5.77Z"/>
        <path id="MA" class="cls-2" d="M451.21,383.394l-.03-3.75,4.53-2.36,2.8-.49,2.29-.86,1.08-1.62,3.28-1.29.12-2.41,1.62-.29,1.27-1.21,3.67-.56.51-1.28-.74-.71-.97-3.53-.16-2.05-1.06-2.18-1.22-.04-2.9-.75-2.67.24-1.69-1.46-2.06-.02-.89,2.11-1.87,3.51-2.08,1.39-2.81,1.53-1.8,2.24-.38,1.74-1.07,2.82.7,4.03-2.34,2.68-1.4.85-2.21,2.17-2.61.35-1.3,1.12,3.62.01,8.75.03h0l-8.75-.03-3.62-.01Z"/>
        <path id="MD" class="cls-2" d="M550.14,309.7l.67-.62,1.86-.42,2.07,1.31,1.15.16,1.27,1.12-.2,1.41,1.02.67.4,1.72.98,1.04-.19.6.52.42-.74.29-1.66-.11-.27-.57-.59.33.2.72-.77,1.29-.49,1.37-.7.44-.51-1.83.3-1.72-.09-1.79-1.62-2.44-.89-1.75-.87-1.24Z"/>
        <path id="ME" class="cls-2" d="M531.02,332.484l-.17-.72-1.22,1.87.19,1.19-.59-.29-.78-1.23-1.22-.75.31-.64.41-2.1.91-.89.53-.36.74.66.41.54.92.41,1.07.79-.23.33-.52.85Z"/>
        <path id="MG" class="cls-2" d="M614.42,498.654l.74,1.21.69,1.89.46,3.46.72,1.35-.28,1.38-.49.86-.96-1.7-.52.86.53,2.14-.25,1.24-.77.67-.18,2.48-1.1,3.42L611.63,522l-1.74,5.67-1.07,4.21-1.27,3.55-2.28.73-2.45,1.31-1.61-.79-2.23-1.1-.77-1.62-.19-2.71-.98-2.42-.26-2.17.5-2.16,1.29-.52.01-.99,1.34-2.26.25-1.88-.65-1.4-.53-1.85-.22-2.7.98-1.63.37-1.85,1.4-.1,1.57-.6,1.03-.52,1.24-.04,1.59-1.65,2.31-1.78.84-1.44-.38-1.23,1.19.35,1.55-1.99.05-1.72.93-1.28Z"/>
        <path id="MK" class="cls-2" d="M533.23,334.914l.36.03.13-.77,1.65-.59.63-.14.96-.22,1.29-.06,1.41,1.21.2,2.47-.54.12-.46.65-1.52-.07-1.07.81-1.83.32-1.16-.9-.4-1.59Z"/>
        <path id="ML" class="cls-2" d="M441.38,422.474l.94-.52.47-1.7.89-.07,1.96.8,1.58-.57,1.08.19.43-.64,11.25-.04.62-2.03-.49-.36-1.35-12.68-1.35-13.06,4.29-.05,9.46,6.65,9.46,6.55.66,1.39,1.75.85,1.3.48.03,1.88,3.11-.29.01,6.75-1.54,1.94-.24,1.79-2.49.45-3.82.25-1.04,1.03-1.8.11-1.79.01-.7-.55-1.55.41-2.62,1.2-.53.9-2.18,1.28-.38.74-1.17.58-1.36-.38-.77.7-.41,1.96-2.23,2.36.07.96-.77,1.21.19,1.64-1.16.42-.65.36-.44-1.21-.81.32-.48-.06-.52.83-2.16-.03-.78-.42-.36.26-.86-.82.15-.84-.35-.34-.6.28.11-.92.58-.73-1.15-1.19-.34-.79-.62-.62-.56-.08-.67.4-.91.38-.77.62-1.2-.23-.78-.72-.46-.1-.73.38-.45.01-.16-1.05.13-.89-.24-1.1-1.05-.81-.55-1.64Z"/>
        <path id="MM" class="cls-2" d="M754.61,406.2l-1.64,1.28-1.98.14-1.28,3.19-1.18.53,1.36,2.57,1.78,2.13,1.14,1.92-1.02,2.52-.97.53.67,1.45,1.87,2.28.32,1.6-.05,1.33,1.1,2.6-1.54,2.65-1.36,2.91-.27-2.1.86-2.18-.94-1.68.23-3.11-1.14-1.48-.91-3.44-.51-3.66-1.21-2.4-1.85,1.46-3.19,2.06-1.57-.26-1.74-.67.97-3.61-.58-2.74-2.2-3.39.34-1.07-1.64-.38-1.99-2.42-.18-2.41.98.46.05-2.15,1.39-.72-.3-1.28.63-1.03.11-3.15,2.19.7,1.25-2.52.15-1.5,1.54-2.6-.08-1.78,3.63-2.16,2,.57-.23-1.93.99-.58-.22-1.2,1.64-.24.94,1.86,1.22.75.09,2.4-.12,2.57-2.65,2.58-.34,3.63,2.96-.5.67,2.8,1.78.59-.82,2.5,2.08,1.13,1.22.55,2.05-.87.09,1.24-2.39,1.94-.6,1.1Z"/>
        <path id="MN" class="cls-2" d="M721.54,305.134l2.96-.74,5.35-3.74,4.27-2.07,2.43,1.35,2.93.06,1.87,2.05,2.8.15,4.06,1.09,2.72-3.03-1.14-2.6,2.91-4.66,3.14,1.87,2.54.53,3.3,1.15.53,3.32,3.99,1.84,2.65-.81,3.54-.57,2.81.58,2.75,2.09,1.7,2.2,2.6-.04,3.53.69,2.58-1.06,3.69-.71,4.11-3.06,1.68.47,1.47,1.46,3.34-.36-1.36,3.25-1.98,4.22.72,1.71,1.59-.53,2.76.65,2.16-1.54,2.25,1.33,2.54,2.89-.31,1.45-2.21-.46-4.07.54-1.98,1.16-2.05,2.66-4.28,1.55-2.79,2.1-2.88-.8-1.58-.36-1.47,2.54.89,1.5.46,1.28-1.97,1.3-2.01,2.05-3.27,1.33-4.21.15-4.53,1.31-3.26,2.01-1.24-1.16h-3.39l-4.15-2.29-2.77-.57-3.73.53-5.79-.85-3.09.09-1.64-2.27-1.28-3.57-1.73-.43-3.39-2.45-3.78-.55-3.33-.68-1.01-1.73,1.08-4.73-1.93-3.31-4-1.57-2.36-2.23Z"/>
        <path id="MR" class="cls-2" d="M441.38,422.474l-1.85-1.98-1.7-2.13-1.86-.77-1.34-.85-1.57.03-1.36.63-1.4-.25-.96.93-.24-1.56.78-1.44.35-2.75-.31-2.91-.34-1.47.28-1.47-.72-1.42-1.48-1.28.61-1,10.98.02-.53-4.35.69-1.55,2.62-.27-.09-7.86,9.21.17v-4.73l10.55,7.53-4.29.05,1.35,13.06,1.35,12.68.49.36-.62,2.03-11.25.04-.43.64-1.08-.19-1.58.57-1.96-.8-.89.07-.47,1.7Z"/>
        <path id="MW" class="cls-2" d="M572.4,495.944l-.78,2.16.78,3.72.98-.04,1.01.92,1.17,2.08.24,3.72-1.21.61-.86,2.01-1.83-1.79-.2-2.04.59-1.35-.17-1.15-1.1-.73-.78.26-1.61-1.38-1.47-.74.85-2.66.88-.99-.54-2.36.56-2.3.48-.77-.71-2.4-1.32-1.26,2.74.52.57.78.95,1.32Z"/>
        <path id="MX" class="cls-2" d="M203.14,388.974l-1.09,2.71-.49,2.21-.21,4.08-.27,1.47.49,1.64.87,1.47.56,2.31,1.86,2.21.65,1.69,1.1,1.45,2.98.79,1.16,1.22,2.46-.82,2.13-.29,2.1-.53,1.77-.51,1.78-1.2.67-1.73.23-2.49.49-.87,1.89-.79,2.97-.69,2.48.1,1.7-.25.67.63-.09,1.44-1.51,1.77-.66,1.81.51.51-.42,1.28-.7,2.29-.71-.75-.59.05-.53.04-1,1.77-.51-.35-.34.14.02.43-2.59-.03h-2.62v1.65h-1.27l1.04.98,1.04.67.31.63.46.18-.08.98-3.59.01-1.35,2.36.39.54-.32.68-.07.84-3.17-3.11-1.45-.94-2.29-.76-1.56.21-2.26,1.09-1.41.29-1.98-.76-2.1-.56-2.62-1.33-2.1-.41-3.18-1.35-2.34-1.4-.71-.78-1.57-.17-2.87-.93-1.17-1.34-3.01-1.67-1.4-1.87-.67-1.45.93-.29-.29-.85.65-.77.01-1.04-.94-1.34-.26-1.2-.94-1.52-2.47-3.02-2.82-2.39-1.36-1.91-2.41-1.26-.51-.76.43-1.92-1.43-.73-1.66-1.52-.7-2.19-1.51-.26-1.62-1.66-1.32-1.55-.12-1-1.51-2.42-.99-2.48.04-1.25-2.03-1.29-.93.14-1.6-.9-.45,1.33.46,1.56.27,2.43.97,1.33,2.08,2.21.46.75.43.22.36,1.1.5-.05.57,2.04.85.8.59,1.11,1.77,1.6.93,2.89.83,1.35.78,1.44.15,1.62,1.35.1,1.13,1.39,1.02,1.36-.07.54-1.18,1.11-.5-.01-.74-1.85-1.83-1.73-2.02-1.48-1.44-.78.09-2.25-.42-1.68-1.34-.96-1.93-1.39-.37.4-.7-.82-1.73-.75-1.65-1.83.2-.24,1.15.18,1.04-1.18.11-1.43-2.16-2.27-1.64-.89-1.04-2.01-1.04-2.12-1.3-2.61-1.14-2.96,3.19-.25,3.56-.36-.26.64,4.23,1.61,6.4,2.31,5.58-.03h2.22v-1.35h4.86l1.02,1.17,1.44,1.03,1.66,1.43.93,1.69.7,1.76,1.45.97,2.33.96,1.76-2.53,2.3-.06,1.97,1.28,1.41,2.18.97,1.86,1.65,1.8.62,2.19.79,1.47,2.18.96,1.99.68Z"/>
        <path id="MY" class="cls-2" d="M758.9,446.324l.22,1.44,1.85-.33.92-1.15.64.26,1.66,1.69,1.18,1.87.16,1.88-.3,1.27.27.96.21,1.65.99.77,1.1,2.46-.05.94-1.99.19-2.65-2.06-3.32-2.21-.33-1.42-1.62-1.87-.39-2.31-1.01-1.52.31-2.04-.62-1.19.49-.5Zm49.19,4.83-2.06.95-2.43-.47h-3.22l-.97,3.17-1.08.97-1.44,3.88-2.29.59-2.65-.78-1.34.24-1.63,1.41-1.79-.2-1.81.57-1.92-1.57-.47-1.86,2.05.96,2.17-.52.56-2.36,1.2-.53,3.36-.6,2.01-2.21,1.38-1.77,1.28,1.45.59-.95,1.34.09.16-1.78.13-1.38,2.16-1.95,1.41-2.19,1.13-.01,1.44,1.42.13,1.22,1.85.78,2.34.84-.2,1.1-1.88.14Z"/>
        <path id="MZ" class="cls-2" d="M572.4,495.944l2.11-.23,3.37.8.74-.36,1.95-.07,1-.85,1.68.04,3.06-1.1,2.23-1.64.46,1.27-.12,2.83.35,2.5.11,4.48.49,1.4-.83,2.07-1.09,2.01-1.79,1.8L583.56,512l-3.16,1.41-3.17,3.15-1.08.54-1.96,2.09-1.15.69L572.8,522l1.33,2.25.55,1.76.04.9.49-.15-.08,2.96-.45,1.41.66.52-.42,1.27-1.17,1.09-2.31,1.04-3.37,1.66-1.23,1.15.24,1.3.71.21-.24,1.64-2.12-.02-.24-1.38-.42-1.39-.24-1.11.5-3.43-.73-2.17-1.34-4.26,2.95-3.41.74-2.15.43-.27.31-1.74-.45-.88.12-2.2.55-2.04-.01-3.69-1.45-.94-1.34-.21-.6-.72-1.3-.61-2.34.06-.18-1.08-.27-2.05,8.51-2.38,1.61,1.38.78-.26,1.1.73.17,1.15-.59,1.35.2,2.04,1.83,1.79.86-2.01,1.21-.61-.24-3.72-1.17-2.08-1.01-.92-.98.04-.78-3.72Z"/>
        <path id="NA" class="cls-2" d="M521.33,546.794l-2.08-2.39-1.1-2.3-.62-3.03-.69-2.25-.94-4.72-.06-3.63-.36-1.64-1.09-1.24-1.45-2.47-1.47-3.57-.61-1.85-2.29-2.87-.17-2.25,1.35-.55,1.68-.5,1.82.09,1.67,1.32.42-.21,11.37-.12,1.94,1.4,6.79.41,5.15-1.19,2.3-.67,1.82.17,1.1.66.03.24-1.58.66-.86.01-1.78,1.15-1.08-1.21-4.32,1.03-2.09.09-.08,10.57-2.76.11v8.86l-.01,11.52-2.5,1.63-1.5.23-1.77-.6-1.26-.23-.47-1.36-1.11-.87Z"/>
        <path id="NC" class="cls-2" d="M940.33,523.734l2.3,1.86,1.45,1.38-1.06.73-1.55-.82-2-1.35-1.81-1.59-1.85-2.1-.39-1.01,1.2.05,1.58,1.01,1.23,1.01Z"/>
        <path id="NE" class="cls-2" d="M481.54,430.134l.07-1.95-3.24-.65-.08-1.38-1.58-1.87-.38-1.31.22-1.4,1.8-.11,1.04-1.03,3.82-.25,2.49-.45.24-1.79,1.54-1.94-.01-6.75,3.95-1.32,8.12-5.85,9.61-5.75,4.43,1.31,1.58,1.66,1.98-1.12.69,4.67,1.05.78.05.95,1.16,1.02-.61,1.28-1.08,5.98-.14,3.79-3.58,2.74-1.21,3.8,1.17,1.06-.01,1.85,1.8.07-.28,1.34-.79.17-.09.9-.53.07-1.89-3.13-.66-.12L510,427l-2.17-.83-1.51-.17-.81.4-1.65-.08-1.65,1.22-1.43.07-3.39-1.48-1.33.7-1.43-.05-1.05-1.08-2.82-1.07-3.01.34-.73.62-.39,1.65-.81,1.15-.19,2.54-2.14-1.64-1.01.01Z"/>
        <path id="NG" class="cls-2" d="M499.34,450.334l-2.91,1-1.07-.14-1.08.62-2.24-.06-1.5-1.75-.92-2.02-1.99-1.84-2.11.03h-2.47l.16-4.53-.07-1.79.53-1.77.86-.87,1.36-1.75-.29-.76.55-1.14-.63-1.68.11-.95.19-2.54.81-1.15.39-1.65.73-.62,3.01-.34,2.82,1.07,1.05,1.08,1.43.05,1.33-.7,3.39,1.48,1.43-.07,1.65-1.22,1.65.08.81-.4,1.51.17L510,427l2.19-1.6.66.12,1.89,3.13.53-.07,1.11,1.14-.31.51-.15.95-2.36,2.2-.74,1.81-.4,1.47-.59.63-.57,1.97-1.5,1.16-.43,1.42-.63,1.14-.26,1.16-1.93.95-1.57-1.15-1.07.04-1.67,1.64-.81.03-1.33,2.7Z"/>
        <path id="NI" class="cls-2" d="M235.18,432.564l-.97-.9-1.31-1.15-.62-.96-1.18-.89-1.41-1.29.31-.44.47.43.21-.21.87-.11.35-.66.41-.02-.06-1.41.66-.07.59.02.6-.76.83.58.29-.36.51-.34.98-.79.05-.6.27.03.36-.69.29-.08.48.44.56.13.62-.37h.71l.97-.38.39-.39.96.06-.24.28-.14.64.28,1.05-.64.98-.3,1.15-.1,1.27.16.73.07,1.29-.43.28-.26,1.22.19.75-.58.73.14.76.42.47-.67.6-.82-.19-.47-.58-.89-.24-.64.37-1.85-.75Z"/>
        <path id="NL" class="cls-2" d="M492.53,286.234l2.33.13.53,1.58-.7,4.23-.71,1.71h-1.69l.48,4.69-1.55-1.04-1.77-1.95-2.6.93-2.05-.35,1.44-1.24,2.46-6.74Z"/>
        <path id="NO" class="cls-2" d="M554.48,175.864l8.77,6.24-3.61,2.23,3.07,5.11-4.77,3.19-2.26.72,1.19-5.59-3.6-3.25-4.35,2.78-1.38,5.85-2.67,3.44-3.01-1.87-3.66.38-3.12-4.15-1.68,2.09-1.74.32-.41,5.08-5.28-1.22-.74,4.22-2.69-.03-1.85,5.24-2.8,7.87-4.35,9.5,1.02,2.23-.98,2.55-2.78-.11-1.82,5.91.17,8.04,1.79,2.98-.93,6.73-2.33,3.81-1.24,3.15-1.88-3.35-5.54,6.27-3.74,1.24-3.88-2.71-1-5.86-.89-13.26,2.58-3.88,7.4-5.18,5.54-6.59,5.13-9.3,6.74-13.76,4.7-5.67,7.71-9.89,6.15-3.59,4.61.44,4.27-6.99,5.11.38Z"/>
        <path id="NP" class="cls-2" d="M722.58,382.7l-.22,1.35.37,1.99-.32,1.24-2.33.05-3.38-.73-2.16-.29-1.62-1.59-3.84-.41-3.66-1.77-2.64-1.55-2.72-1.2,1.09-2.99,1.78-1.46,1.16-.78,2.25,1,2.83,2.09,1.57.46.94,1.53,2.18.63,2.28,1.39,3.17.73Z"/>
        <path id="NZ" class="cls-2" d="M960.63,588.884l.64,1.53,1.99-1.5.81,1.57v1.57l-1.04,1.74-1.83,2.8-1.43,1.54,1.03,1.86-2.16.05-2.4,1.46-.75,2.57-1.59,4.03-2.2,1.8-1.4,1.16-2.58-.09-1.82-1.34-3.05-.28-.47-1.48,1.51-2.96,3.53-3.87,1.81-.73,2.01-1.47,2.4-2.01,1.68-1.98,1.25-2.81,1.06-.95.42-2.07,1.97-1.7Zm4.46-17.02,2.03,3.67.06-2.38,1.27.95.42,2.65,2.26,1.15,1.89.28,1.6-1.35,1.42.41-.68,3.15-.85,2.09-2.14-.07-.75,1.1.26,1.56-.41.68-1.06,1.97-1.39,2.53-2.17,1.49-.48-.98-1.17-.54,1.62-3.04-.92-2.01-3.02-1.45.08-1.31,2.03-1.25.47-2.74-.13-2.28-1.14-2.34.08-.61-1.34-1.43-2.21-3.04-1.17-2.41,1.04-.27,1.53,1.89,2.18.89Z"/>
        <path id="OM" class="cls-2" d="M640.54,403.434l-1.05,2.04-1.27-.16-.58.71-.45,1.5.34,1.98-.26.36-1.29-.01-1.75,1.1-.27,1.43-.64.62-1.74-.02-1.1.74.01,1.18-1.36.81-1.55-.27-1.88.98-1.3.16-.92-2.04-2.19-4.84,8.41-2.96,1.87-5.97-1.29-2.14.07-1.22.82-1.26.01-1.25,1.27-.6-.5-.42.23-2,1.43-.01,1.26,2.09,1.57,1.11,2.06.4,1.66.55,1.27,1.74.76,1,1,.38-.01.67-1.02,1.79-.45.84Zm-6.92-14.54-.37.56-.53-1.06.82-1.06.35.27Z"/>
        <path id="PA" class="cls-2" d="M257.13,443.464l-.93-.81-.6-1.52.69-.75-.71-.19-.52-.93-1.4-.78-1.23.18-.56.98-1.14.7-.61.1-.27.59,1.33,1.52-.76.36-.41.42-1.3.14-.49-1.68-.36.48-.93-.16-.56-1.14-1.15-.18-.73-.33h-1.2l-.09.61-.32-.42.15-.56.23-.57-.11-.51.42-.34-.58-.42-.02-1.13,1.09-.25,1,1.01-.06.6,1.12.12.27-.23.77.7,1.38-.21,1.19-.71,1.7-.57.96-.84,1.55.16-.11.28,1.57.1,1.25.49.91.84,1.06.78-.34.42.65,1.65-.53.84-.91-.2Z"/>
        <path id="PE" class="cls-2" d="M280.38,513.394l-.75,1.51-1.44.74-2.81-1.68-.25-1.2-5.55-2.92-5.03-3.17-2.17-1.78-1.16-2.37.46-.83-2.37-3.75-2.77-5.24-2.64-5.62-1.15-1.29-.88-2.06-2.18-1.84-2-1.13.91-1.25-1.36-2.67.87-1.95,2.24-1.77.33,1.17-.8.66.07,1.02,1.16-.22,1.14.3,1.17,1.41,1.59-1.15.53-1.88,1.72-2.43,3.37-1.1,3.06-2.92.87-1.81-.39-2.11.75-.27,1.86,1.32.89,1.32,1.3.72,1.65,2.92,2.09.35,1.55-.74,1.01.48,1.68-.24,2.15,1.31-1.81,2.84.84.06,1.4,1.49-2.53-.13-.37.42-2.3.53-3.2,1.91-.21,1.3-.71.98.28,1.51-1.7.81v1.19l-.74.51,1.17,2.53,1.56,1.72-.59,1.21,1.86.16,1.06,1.51,2.47.07,2.3-1.66-.19,4.3,1.28.33,1.58-.49,2.43,4.58-.61.96-.13,2.02-.06,2.44-1.1,1.44.51,1.07-.65.97,1.21,2.44Z"/>
        <path id="PG" class="cls-2" d="M912.57,482.674l-.79.28-1.21-1.08-1.23-1.78-.6-2.13.39-.27.3.83.85.63,1.36,1.77,1.32.95Zm-10.93-3.75-1.47.23-.44.79-1.53.68-1.44.66h-1.49l-2.3-.81-1.6-.78.23-.87,2.51.41,1.53-.22.42-1.34.4-.07.27,1.49,1.6-.21.79-.96,1.57-1-.31-1.65,1.68-.05.57.46-.06,1.55Zm-13.43,5.35,2.5,1.84,1.82,2.99,1.61-.09-.11,1.25,2.17.48-.84.53,2.98,1.19-.31.82-1.86.2-.69-.73-2.41-.32-2.83-.43-2.18-1.8-1.59-1.55-1.46-2.46-3.66-1.23-2.38.8-1.71.93.36,2.08-2.2.97-1.57-.47-2.9-.12-.05-9.16-.05-9.1,4.87,1.92,5.18,1.6,1.93,1.43,1.56,1.41.43,1.65,4.67,1.73.68,1.49-2.58.3Zm16.67-8.09-.88.74-.53-1.65-.65-1.08-1.27-.91-1.6-1.19-2.02-.82.78-.67,1.51.78.95.61,1.18.67,1.12,1.17,1.07.89Z"/>
        <path id="PH" class="cls-2" d="M829.84,440.114l.29,1.87.17,1.58-.96,2.57-1.02-2.86-1.31,1.42.9,2.06-.8,1.31-3.3-1.63-.79-2.03.86-1.33-1.78-1.33-.88,1.17-1.32-.11-2.08,1.57-.46-.82,1.1-2.37,1.77-.79,1.53-1.06.99,1.27,2.13-.77.46-1.26,1.98-.08-.17-2.18,2.27,1.34.24,1.42Zm-6.71-5.26-1.01.93-.88,1.79-.88.84-1.73-1.95.58-.76.7-.79.31-1.76,1.55-.17-.45,1.91,2.08-2.74Zm-15.36,2.72-3.73,2.67,1.38-1.97,2.03-1.74,1.68-1.96,1.47-2.82.5,2.31-1.85,1.56Zm9.48-7.3,1.68.88h1.78l-.05,1.19-1.3,1.2-1.78.85-.1-1.32.2-1.45Zm10.14-.77.79,3.18-2.16-.75.06.95.69,1.75-1.33.63-.12-1.99-.84-.15-.44-1.72,1.65.23-.04-1.08-1.71-2.18,2.69.06Zm-11.14-2.59-.74,2.47-1.2-1.42-1.43-2.18,2.4.1Zm-.58-15.74,1.73.84.86-.76.25.75-.46,1.22.96,2.09-.74,2.42-1.65.96-.44,2.33.63,2.29,1.49.32,1.24-.34,3.5,1.59-.27,1.56.92.69-.29,1.32-2.18-1.4-1.04-1.5-.72,1.05-1.79-1.72-2.55.42-1.4-.63.14-1.19.88-.73-.84-.67-.36,1.04-1.38-1.65-.42-1.26-.1-2.77,1.13.96.29-4.55.91-2.66Z"/>
        <path id="PL" class="cls-2" d="M517.61,297.224l-1.15-2.86.22-1.56-.7-2.45-1.01-1.65.78-1.25-.66-2.39,1.92-1.39,4.37-2.22,3.54-1.64,2.79.82.21,1.18,2.71.06,3.45.55,5.16-.08,1.44.52.67,1.46.12,2.09.78,1.78-.02,1.85-1.68.94.87,2.12.05,2.01,1.41,3.89-.3,1.24-1.39.51-2.55,3.61.72,1.92-.61-.25-2.66-1.64-2.02.6-1.32-.44-1.66.92-1.41-1.52-1.16.58-.16-.26-1.29-2.13-2.08-.26-.27-1.37-1.92-.49-.42,1.13-1.52-.9.17-1.21-2.09-.39Z"/>
        <path id="PK" class="cls-2" d="M686.24,352.014l2.07,1.63.83,2.66,4.61,1.39-2.71,2.86-3.12.51-4.26-.83-1.37,1.46.99,2.95.97,2.25,2.27,1.63-2.39,1.91.04,2.33L681.45,376l-1.76,3.26-2.93,3.32-3.26-.24-3.09,3.3,1.84,1.4.32,2.39,1.57,1.56.56,2.64-6.17-.01-1.87,2.04-2.05-.77-.84-2.2-2.17-2.34-5.16.58-4.56.05-3.95.44,1.06-3.6,4.04-1.61-.23-1.44-1.34-.51-.08-2.77-2.68-1.4-1.13-1.93-1.38-1.68,4.69,1.64,2.81-.48,1.67.4.57-.7,1.95.28,3.65-1.33.1-2.75,1.56-1.84h2.09l.3-.91,2.15-.43,1.03.3,1.1-.92-.15-1.98,1.19-2,1.78-.85-1.1-2.22,2.67.11.77-1.22-.12-1.3,1.4-1.43-.33-1.7-.66-1.46,1.64-1.51,3.01-.73,3.22-.4,1.42-.65Z"/>
        <path id="PR" class="cls-2" d="M289.66,411.144l1.43.26.51.58-.72.74-2.11-.02-1.64.1-.16-1.25.39-.43Z"/>
        <path id="PS" class="cls-2" d="M575.17,368.124v2.01l-.42.96-1.32.45.13-.86.71-.46-.7-.36.58-2.2Z"/>
        <path id="PT" class="cls-2" d="M450.17,334.814l1.02-.95,1.14-.55.71,1.84,1.65-.01.48-.47,1.64.13.78,1.88-1.3,1-.03,2.88-.46.53-.11,1.72-1.21.3,1.12,2.17-.77,2.35.96,1.06-.38.96-1.04,1.32.23,1.16-1.12.91-1.48-.49-1.45.38.43-2.74-.26-2.18-1.26-.33-.67-1.35.23-2.36,1.11-1.31.2-1.47.59-2.21-.07-1.57-.56-1.34Z"/>
        <path id="PY" class="cls-2" d="M299.74,527.244l1.11-3.59.07-1.6,1.34-2.62,4.89-.86,2.6.05,2.62,1.51.04.91.83,1.66-.18,4.06,2.96.58,1.14-.59,1.89.82.53.9.26,2.77.33,1.18,1.04.13,1.05-.49,1.01.55v1.68l-.38,1.82-.55,1.78-.46,2.75-2.54,2.4-2.22.5-3.15-.48-2.82-.85,2.76-4.73-.41-1.37-2.88-1.2-3.43-2.26-2.29-.46Z"/>
        <path id="QA" class="cls-2" d="M617.97,392.414l-.19-2.24.76-1.62.76-.34.85.97.05,1.81-.61,1.81-.78.22Z"/>
        <path id="RO" class="cls-2" d="M539.18,311.114l1.21-.89,1.74.46,1.79.02,1.3,1.01.96-.64,2.07-.4.71-.98,1.18.01.85.4.87,1.24.89,1.75,1.62,2.44.09,1.79-.3,1.72.51,1.83,1.25.73,1.31-.64,1.28.68.06,1.03-1.36.84-.85-.36-.78,4.71-1.65-.41-2.04-1.41-3.3.9-1.39.99-4.12-.2-2.16-.61-1.08.29-.81-1.6-.51-.68.65-.66-.7-.49-.88.88-1.63-1.14-.22-1.63-1.71-.94-.31-1.27-1.52-1.58,2.25-.76,1.69-2.76,1.33-2.8Z"/>
        <path id="RS" class="cls-2" d="M534.03,321.154l1.71.94.22,1.63,1.63,1.14.88-.88.7.49-.65.66.51.68-.69.88.25,1.42,1.36,1.66-1.07,1.19-.47,1.21.31.45-.47.54-1.29.06-.96.22-.09-.28.33-.45.32-.93-.4.02-.55-.7-.46-.18-.36-.61-.53-.24-.4-.54-.5.22-.39,1.26-.67.28.23-.33-1.07-.79-.92-.41-.41-.54-.74-.66.66-.17.41-1.82-1.35-1.5.7-1.72-1.02.01,1.08-1.49-.89-1.14-.68-1.55,2.15-1.05,1.75.17,1.52,1.58Z"/>
        <path id="RU" class="cls-2" d="M1008.52,216l-2.78,2.97-4.6.7-.07,6.46-1.12,1.35-2.63-.19-2.14-2.26-3.73-1.92-.63-2.89-2.85-1.1-3.19.87-1.52-2.37.61-2.55-3.36,1.64,1.26,3.19-1.59,2.83-.02.04-3.6,2.89-3.63-.48,2.53,3.44,1.67,5.2,1.29,1.67.33,2.53-.72,1.6-5.23-1.32-7.84,4.51-2.49.69-4.29,4.1-4.07,3.5-1.03,2.55-4.01-3.9-7.31,4.42-1.28-2.08-2.7,2.39-3.75-.76-.9,3.63-3.36,5.22.1,2.14,3.19,1.17-.38,7.46-2.6.19-1.2,4.15,1.17,2.1-4.9,2.47-.97,5.4-4.18,1.14-.84,4.66-4.04,4.18-1.04-3.08-1.2-6.69-1.56-10.65,1.35-6.95,2.37-3.07.15-2.44,4.36-1.18,5.01-6.78,4.83-5.73,5.04-4.57,2.25-8.37-3.41.51-1.68,4.92-7.11,6.36-2.3-7.14-7.24,2-7.02,9.56,2.32,3.38-6.26,1.42-4.33.56.2-3.95-4.36-.84-3.47,2.7-8.57-.94-9.22,1.62-9.08,10.33-10.75,11.78,4.42.61,1.38,3,2.72,1.05,1.79-2.38,3.08.31,4.05,5.19.09,3.92-2.19,4.51-.24,5.27-1.26,6.85-4.23,6.01-.94,2.82-3.81,4.66-3.78,4.53-1.81,2.28-3.74,2.25-1.77.05-1.76-1.86-3.76,2.79-.44,1.26-.39-.66-.02-1.93,1.43-.1.4-4.55-.74-3.36,2.41-1.4,3.4.7,1.89-3.89.96-4.46,1.09-1.51,1.47-3.76-4.63,1.24-2.43,1.65h-4.26l-1.13-3.95-3.32-3.03-4.88-1.38-1.04-4.28-.98-2.73-1.05-1.94-1.73-4.61-2.46-1.71-4.2-1.39-3.72.13-3.48.84-2.32,2.31,1.54,1.1.04,2.52-1.56,1.45-2.53,4.72.03,1.93-3.95,2.74-3.37-1.63-3.35.36-1.47-1.46-1.68-.47-4.11,3.06-3.69.71-2.58,1.06-3.53-.7-2.6.04-1.7-2.2-2.75-2.09-2.81-.58-3.55.57-2.65.81-3.98-1.84-.53-3.32-3.3-1.15-2.54-.53-3.14-1.87-2.9,4.66,1.14,2.6-2.73,3.03-4.05-1.09-2.8-.16-1.87-2.04-2.92-.06-2.44-1.35-4.26,2.07-5.35,3.74-2.96.74-1.1.35-1.49-2.63-3.61.58-1.19-1.84-1.96-.85-1.35-2.55-1.55-.8-4.03,1.14-3.86-2.57-1.49,2.33-6.27-11.58-3.58-3.66,1.03-1.5-7.03,4.49-2.69.27.23-2.58-3.6-1.63-2.93,1.17-.88-5.01-5.04-1.06-2.52,2.03L659.64,281l-1.37,1.19-10.49,1.66-1.29,1.62,2.02,3.21-2.69,1.2.53,1.25-2.69,2.22,4.54,3.1-.7,2.11-3.94-.19-.81,1.31-3.59-2.29-4.45.09-2.98,1.87-3.32-1.79-6.18-3.1-4.38.12-5.79,4.85-.35,3.19-2.88-2.53-2.24,4.77.82.87-1.62,3.21,2.38,2.84,2.08-.12,1.79,2.76-.28,2.1,1.42.66-1.28,2.39-2.72.66-2.79,4.09,2.55,3.7-.28,2.59,3.06,4.46-1.67,1.51-.48.95-1.24-.25-1.93-2.27-.79-.13-1.76-.87-.86-1.55-2.62-.79-1.7.6-.49-.71-3.82-1.83-4.13-.62-2.37-.66-.34.45-3.57-3.27-3.2-1.48-2.42-2.32,2.04-.64,2.33-3.35-1.57-1.6,4.13-1.67-.07-.9-2.52.66.09-1.83,1.45-1.16,2.71-.31.44-1.4-.62-2.33,1.14-2.23-.03-1.26-4.13-1.41-1.64.05-1.73-2.04-2.15.69-3.56-1.54.06-.87-1-1.93-2.24-.22-.23-1.39.7-.91-1.79-2.58-2.91.44-.85-.23-.71,1.04-1.05-.18-.69-2.94-.66-1.54.54-.44,2.26.16,1.09-1.02-.81-1.25-1.89-.83.17-.86-1.14-.87-1.76-3.15.6-1.31-.27-2.31-2.74-1.18-1.47.59-.4-1.24-2.95-1.26-.9-2.99-.24-2.49-1.35-1.19,1.2-1.66-.83-4.96,2-3.13-.42-.96,3.19-3.07-2.94-2.68,6-7.41,2.6-3.45,1.05-3.1-4.15-4.26,1.15-4.15-2.52-4.85,1.89-5.76-3.26-7.96,2.59-5.48-4.29-4.99.41-5.4,2.26-.72,4.77-3.19,2.89-2.81,4.61,4.86,7.68,1.88,10.59,8.65,2.15,3.51.19,4.8-3.11,3.69-4.58,1.85-12.52-5.31-2.06.9,4.57,5.1.18,3.15.18,6.75,3.61,1.97,2.19,1.66.36-3.11-1.69-2.8,1.78-2.51,6.78,4.1,2.36-1.59-1.89-4.88,6.53-6.74,2.59.4,2.62,2.43,1.63-4.81-2.34-4.28,1.37-4.41-2.06-4.69,7.84,2.44,1.6,4.18-3.55.91.02,4.04,2.21,2.44,4.33-1.54.69-4.61,5.86-3.52,9.79-6.54,2.11.38-2.76,4.64,3.48.78,2.01-2.58,5.25-.21,4.16-3.19,3.2,4.62,3.19-5.09-2.94-4.58,1.46-2.66,8.28,2.44,3.88,2.49,10.16,8.8,1.88-3.97-2.85-4.11-.08-1.68-3.38-.78.92-3.83-1.5-6.49-.08-2.74,5.17-7.99,1.84-8.42,2.08-1.88,7.42,2.51.58,5.18-2.66,7.28,1.74,2.78.9,5.94-.64,11.07,3.09,4.73-1.2,5.01-5.49,10.2,3.21,1.02,1.12-2.51,3.08-1.82.74-3.55,2.43-3.49-1.63-4.26,1.31-5.08-3.07-.64-.67-4.42,2.24-8.28-3.64-7.03,5.02-6.04-.65-6.62,1.4-.22,1.47,5.19-1.11,8.67,3,1.59-1.28-6.37,4.69-3.58,5.82-.49,5.18,5.18-2.49-7.62-.28-10.28,4.88-2.02,6.74.44,6.08-1.32-2.28-5.38,3.25-7.02,3.22-.3,5.45-5.51,7.4-1.51.94-3.15,7.36-1.08,2.29,2.61,6.29-6.24,5.15.2.77-5.24,2.68-5.33,6.62-5.31,4.81,4.21-3.82,3.13,6.35,1.92.76,6.03,2.56-2.94,8.2.16,6.32,5.84,2.25,4.35-.7,5.85-3.1,3.24-7.37,5.92-2.11,3.08,3.48,1.43,4.15,2.55,2.52-1.91,1.43,6.39,1.23-2.56,4.48-1.57,9,1.65.68,4.58,11.72,1.43.16-7.47,5.95,1.74,4.48-.05,4.53,5.14,1.29,6.04-1.66,3.84,3.52,6.98,4.41,3.49,2.71-9.18,4.5,4,4.78-2.38,5.43,2.72,2.07-2.47,4.59,1.24-2.02-8.4,3.7-4.07,25.32,6.06,2.39,5.35,7.34,6.65,11.32-1.62,5.58,1.41,2.33,3.5-.34,6.02,3.45,2.29,3.75-1.64,4.97-.21,5.29,1.57,5.31-.89,4.88,6.99,3.47-2.48-2.27-5.07,1.25-3.62,8.95,2.29,5.83-.49,8.06,3.84,3.92,3.44,6.87,5.86,7.35,7.34-.24,4.44,1.89,1.74-.65-5.15,7.61,1.07ZM881.09,306.5l-2.82-7.68-1.16-4.51.07-4.5-.97-4.5-.73-3.15-1.25.67,1.11,2.21-2.59,2.17-.25,6.3,1.64,4.41-.12,5.85-.65,3.24.32,4.54-.31,4.01.52,3.4,1.84-3.13,2.13,2.44.08-2.84-2.73-4.23,1.72-6.11Zm-343.02-27.48-2.94-.86-3.87,1.58-.64,2.13,3.45.55,5.16-.07-.22-1.23.3-1.33ZM980.2,178.9l3.66-.52,2.89-2.06.24-1.19-4.06-2.51-2.38-.02-.36.37-3.57,3.64.5,2.73Zm-109.88-27.09-2.66,3.92.49.52,5.75,1.08,4.25-.07-.34-2.57-3.98-3.81Zm24.57-9.53,3.24-4.25-7.04-2.88-5.23-1.68-.67,3.59,5.21,4.27Zm-25.13-1.69,10.33.3,2.21-8.14-10.13-6.07-7.4-.51-3.7,2.18-1.51,7.75,5.55,7.01Zm-247.12,25.94-2.87,1.96.41,4.83,5.08,2.35.74,3.82,9.16,1.1,1.66-.74-5.36-7.11-.57-7.52,4.39-9.14,4.18-9.82,8.71-10.17,8.56-5.34,9.93-5.74,1.88-3.71-1.95-4.83-5.46,1.6-4.8,4.49-9.33,2.22-9.26,7.41-6.27,5.85.76,4.87-6.71,9.03,2.58,1.22-5.56,8.27Zm147.48-67.94.83-5.72-7.11-8.34-2.11-.98-2.3,1.7-5.12,18.6ZM605.89,69.284l3.04,3.88,3.28-2.69.39-2.72,2.52-1.27,3.76-2.23,1.08-2.62-4.16-3.85-2.64,2.9-1.61,4.12-.57-4.65-4.26.21-5.47,3.14,6.24.52Zm131.25,13.04,4.65,5.73,7.81,4.2,6.12-1.8.69-13.62-6.46-16.04-5.45-9.02-6.07,4.11-7.28,11.83,3.83,3.27Z"/>
        <path id="RW" class="cls-2" d="M560.79,466.8l1.12,1.57-.17,1.64-.8.35-1.49-.18-.86,1.59-1.71-.22.26-1.53.39-.21.1-1.66.81-.78.68.29Z"/>
        <path id="SA" class="cls-2" d="M595.45,417.474l-.36-1.24-.85-.88-.22-1.17-1.44-1.04-1.5-2.46-.79-2.41-1.94-2.04-1.25-.48-1.86-2.85-.32-2.08.12-1.79-1.61-3.36-1.31-1.19-1.52-.63-.92-1.76.15-.69-.78-1.6-.82-.69-1.09-2.32-1.71-2.52-1.43-2.16-1.39.01.43-1.74.13-1.11.34-1.28,3.12.51,1.22-.98.67-1.16,2.14-.44.46-1.09.93-.54-2.8-3.26,5.62-1.65.53-.49,3.38.89,4.18,2.29,7.9,6.49,5.21.26,2.5.31.7,1.51,1.98-.08,1.1,2.73,1.38.71.48,1.11,1.91,1.31.17,1.29-.28,1.03.36,1.04.8.87.38,1.01.42.75.84.61.78-.22.53,1.17.11.71,1.08,3.08,8.42,1.52.57-.64,1.28,2.14-1.87,5.97-8.41,2.96-8.08,1.13-2.62,1.32-2.01,3.07-1.31.48-.7-.97-1.07.15-2.71-.29-.52-.3-3.23.07-.76.27-1.15-.76-.75,1.43.29,1.23Z"/>
        <path id="SB" class="cls-2" d="M930.06,493l.78.97-1.96-.02-1.07-1.74,1.67.69Zm-3.55-1.73-1.09.06-1.72-.29-.59-.44.18-1.12,1.85.44.91.59Zm2.32-.77-.42.52-2.08-2.45-.58-1.68h.95l1.01,2.25Zm-5.06-3.56.12.57-2.2-1.19-1.54-1.01-1.05-.94.42-.29,1.29.67,2.3,1.29Zm-6.55-2.78-.56.16-1.23-.64-1.15-1.15.14-.47,1.67,1.18Z"/>
        <path id="SD" class="cls-2" d="M570.73,437.154l-.39-.05.05-1.41-.34-.97-1.44-1.12-.34-2.05.34-2.1-1.3-.19-.19.63-1.69.15.68.83.24,1.71-1.54,1.56-1.4,2.04-1.44.29-2.36-1.65-1.06.58-.29.83-1.44.53-.1.58h-2.79l-.39-.58-2.02-.1-1.01.49-.77-.25-1.44-1.65-.48-.77-2.03.39-.77,1.31-.72,2.52-.96.53-.86.31-.23-.14-.97-.81-.18-.87.45-1.18v-1.15l-1.62-1.77-.32-1.22.03-.69-1.03-.83-.03-1.66-.58-1.1-.99.17.28-1.05.73-1.2-.32-1.18.92-.88-.58-.67.74-1.78,1.28-2.13,2.42.2-.14-11.61.04-1.24,3.22-.01v-5.96h33.27l.9,2.94-.61.54.41,3.06,1.03,3.52,1.06.73,1.54,1.08-1.42,1.67-2.07.48-.88.9-.27,1.93-1.21,4.25.3,1.15-.45,2.47-1.14,2.81-1.69,1.42-1.2,2.17-.29,1.16-1.32.8-.83,2.96Z"/>
        <path id="SE" class="cls-2" d="M537.7,217.744l-2.72,4.69.44,4.02-4.46,5.13-5.41,5.34-2.05,8.41,2,4.07,2.68,3.14-2.57,6.23-2.92,1.26-1.07,8.84-1.59,4.76-3.4-.49-1.59,3.95-3.25.23-.89-4.71-2.35-5.81-2.13-7.5,1.24-3.15,2.33-3.81.93-6.73-1.79-2.98-.18-8.04,1.83-5.91,2.78.11.97-2.55-1.02-2.23,4.35-9.5,2.81-7.87,1.85-5.24,2.69.02.75-4.21,5.28,1.22.41-5.08,1.74-.33,3.74,3.81,4.37,5.15.08,11.12.94,2.7Z"/>
        <path id="SI" class="cls-2" d="M514.21,316.764l2.32.31,1.42-.92,2.45-.1.53-.69.47.05.55,1.37-2.23,1.08-.28,1.62-.97.41.01,1.12-1.1-.08-.95-.65-.52.68-1.95-.14.62-.36-.67-1.71Z"/>
        <path id="SJ" class="cls-2" d="M544.83,104.744l-6.26,5.36-4.95-3.02,1.94-3.42-1.69-4.34,5.81-2.78,1.11,5.18Zm-18.15-26.68,9.23,11.29-7.06,5.66-1.56,10.09-2.46,2.49L523.5,118.1l-3.38.48-6.03-7.64,2.54-4.62-4.2-3.86-5.46-11.82-2.18-11.79,7.64-5.69,1.54,5.56,3.99-.22,1.06-5.43,4.12-.56ZM546.85,66.6l5.5,5.8-4.16,8.52-8.13,1.81-8.27-2.56-.5-4.32-4.02-.28-3.07-7.48,8.66-4.72,4.07,4.08,2.84-5.09Z"/>
        <path id="SK" class="cls-2" d="M528.36,304.274l.16.26,1.16-.58,1.41,1.52,1.66-.92,1.32.44,2.02-.6,2.66,1.64-.77,1.11-.55,1.71-.6.43-3-1.28-.92.25-.66,1-1.32.52-.3-.27-1.36.65-1.12.13-.22.84-2.36.51-1.03-.46-1.43-1.07-.28-1.45.23-.54.39-.93,1.25.07.95-.44.08-.39.54-.21.18-.97.64-.19.44-.77Z"/>
        <path id="SL" class="cls-2" d="M443.43,444.694l-.76-.21-2.01-1.13-1.46-1.5-.49-1.03-.35-2.08,1.5-1.24.32-.79.48-.61.78-.06.65-.53h2.24l.78,1.01.61,1.19-.09.82.45.74-.03,1.03.77-.16-1.31,1.31-1.26,1.53-.15.81Z"/>
        <path id="SN" class="cls-2" d="M428.64,425.414l-1.16-2.24-1.4-1.02,1.24-.55,1.36-2.03.66-1.49.96-.93,1.4.25,1.36-.63,1.57-.03,1.34.85,1.86.77,1.7,2.13,1.85,1.98.13,1.79.55,1.64,1.05.81.24,1.1-.13.89-.41.16-1.52-.22-.21.31-.62.07-2.02-.7-1.35-.03-5.18-.12-.75.32-.93-.09-1.49.47-.46-2.19,2.55.06.68-.4.5-.03,1.04-.66,1.2.61,1.22.05,1.21-.65-.56-.82-.93.48-.87-.01-1.1-.71-.89.05-.64.67Z"/>
        <path id="SO" class="cls-2" d="M618.88,430.684l-.07-.79-1.06.01-1.33.98-1.49.28-1.29.42-.89.06-1.6.1-1,.52-1.39.19-2.47.88-3.05.33-2.65.73-1.39-.01-1.26-1.19-.55-1.17-.91-.53-1.04,1.52-.61,1.01,1.04,1.56,1.03,1.36,1.07,1.01,9.17,3.34,2.36-.02-7.93,8.42-3.65.12-2.5,1.97-1.79.05-.77.88-2.45,3.17.03,10.15,1.66,2.29.63-.66.65-1.46,3.07-3.38,2.61-2.12,4.2-2.76,2.8-2.26,3.3-3.81,2.39-3.13,2.41-4.1,1.73-3.59,1.35-3.15.79-3.05.6-1.02-.01-1.5Z"/>
        <path id="SR" class="cls-2" d="M315.27,446.974l3.36.56.3-.51,2.27-.2,3.01.76-1.46,2.4.22,1.91,1.11,1.66-.49,1.2-.25,1.27-.72,1.17-1.6-.59-1.33.29-1.13-.25-.28.81.47.55-.25.57-1.53-.23-1.71-2.42-.37-1.57-.89-.01-1.25-2.02.52-1.45-.15-.65,1.7-.73Z"/>
        <path id="SS" class="cls-2" d="M570.73,437.154l.03,2.2-.42.86-1.48.07-.96,1.61,1.72.2,1.42,1.37.5,1.12,1.28.65,1.65,3.05-1.9,1.84-1.72,1.67-1.73,1.28h-1.97l-2.26.65-1.78-.63-1.15.77L559.49,452l-.67-1.19-1.56.59-1.3-.19-.75.47-1.26-.33-1.69-2.31-.45-.89-2.1-1.11-.71-1.68-1.17-1.21-1.88-1.46-.03-.92-1.53-1.13-1.91-1.1.86-.31.96-.53.72-2.52.77-1.31,2.03-.39.48.77,1.44,1.65.77.25,1.01-.49,2.02.1.39.58h2.79l.1-.58,1.44-.53.29-.83,1.06-.58,2.36,1.65,1.44-.29,1.4-2.04,1.54-1.56-.24-1.71-.68-.83,1.69-.15.19-.63,1.3.19-.34,2.1.34,2.05,1.44,1.12.34.97-.05,1.41Z"/>
        <path id="SV" class="cls-2" d="M229.34,426.014l-.31.67-1.62-.04-1.01-.27-1.16-.57-1.56-.18-.79-.62.09-.42.96-.72.52-.32-.15-.34.66-.17.83.24.6.57.85.46.1.39,1.23-.34.58.2.38.31Z"/>
        <path id="SY" class="cls-2" d="M584.27,364.854l-5.49,3.54-3.12-1.32-.06-.02.38-.5-.04-1.37.69-1.83,1.53-1.27-.46-1.32-1.26-.18-.26-2.61.68-1.41.75-.75.75-.76.16-1.94.91.68,3.09-.97,1.49.65,2.31-.01,3.22-1.31,1.52.06,3.19-.54-1.44,2.18-1.54.86.27,2.52-1.06,4.12Z"/>
        <path id="SZ" class="cls-2" d="M565.43,540.994l-.57,1.39-1.64.33-1.68-1.69-.02-1.08.76-1.17.27-.9.81-.22,1.41.57.42,1.39Z"/>
        <path id="TD" class="cls-2" d="M516.15,427.514l.28-1.34-1.8-.07.01-1.85-1.17-1.06,1.21-3.8,3.58-2.74.14-3.79,1.08-5.98.61-1.28-1.16-1.02-.05-.95-1.05-.78-.69-4.67,2.83-1.66,11.19,5.77,11.18,5.7.14,11.61-2.42-.2-1.28,2.13-.74,1.78.58.67-.92.88.32,1.18-.73,1.2-.28,1.05.99-.17.58,1.1.03,1.66,1.03.83-.03.69-1.77.49-1.43,1.14-2.02,3.09-2.64,1.31-2.71-.18-.79.26.28.99-1.47.99-1.19,1.1-3.53,1.07-.7-.63-.46-.06-.52.72-2.32.22.44-.77-.88-1.93-.4-1.17-1.22-.48-1.65-1.65.61-1.33,1.28.28.79-.2,1.56.03-1.52-2.57.1-1.89-.19-1.89Z"/>
        <path id="TF" class="cls-2" d="M668.79,619.284l1.8,1.33,2.65.54.1.81-.78,1.96-4.31.28-.07-2.29.42-1.76Z"/>
        <path id="TG" class="cls-2" d="M480.73,446.5l-2.25.59-.63-.98-.75-1.78-.22-1.4.62-2.53-.7-1.03-.27-2.22V435.1l-1.17-1.46.21-.89,2.46.06-.36,1.5.85.83.98.99.1,1.39.57.58-.13,6.46Z"/>
        <path id="TH" class="cls-2" d="M763.14,429.434l-2.52-1.31-2.4.06.41-2.25-2.47.02-.22,3.14-1.51,4.15-.91,2.5.19,2.05,1.82.09,1.14,2.57.51,2.43,1.56,1.61,1.7.33,1.45,1.45-.91,1.15-1.86.34-.22-1.44-2.28-1.23-.49.5-1.11-1.07-.48-1.39-1.49-1.59-1.36-1.33-.46,1.65-.53-1.56.31-1.76.82-2.71,1.36-2.91,1.54-2.65-1.1-2.6.05-1.33-.32-1.6-1.87-2.28-.67-1.45.97-.53,1.02-2.52-1.14-1.92-1.78-2.13-1.36-2.57,1.18-.53,1.28-3.19,1.98-.14,1.64-1.28,1.6-.69,1.22.92.16,1.78,1.89.13-.69,3.11.07,2.62,2.95-1.74.84.51,1.65-.08.56-1.02,2.12.2,2.13,2.38.18,2.87,2.27,2.53-.13,2.44-.91,1.3-2.63-.41-3.62.55-1.8,2.38Z"/>
        <path id="TJ" class="cls-2" d="M674.62,340.874,673.59,342l-3.05-.61-.27,2.1,3.04-.28,3.47,1.17,5.3-.55.71,3.33.92-.36,1.7.81-.09,1.38.42,2.01h-2.9l-1.93-.26-1.74,1.57-1.25.34-.98.74-1.11-1.15.27-2.95-.85-.17.3-1.09-1.51-.8-1.21,1.23-.3,1.43-.43.52-1.68-.07-.9,1.6-.95-.67-2.03,1.12-.85-.42,1.57-3.57-.6-2.66-2.06-.86.73-1.59,2.34.17,1.33-2.01.89-2.35,3.75-.86-.58,1.71.4,1.02Z"/>
        <path id="TL" class="cls-2" d="M825.9,488.5l.33-.66,2.41-.63,1.96-.1.87-.35,1.06.35-1.03.76-2.92,1.23-2.35.82-.05-.86Z"/>
        <path id="TM" class="cls-2" d="M647.13,357.154l-.25-2.91-2.09-.12-3.2-3.09-2.24-.39-3.1-1.79-2-.33-1.23.66-1.87-.1-1.99,2.02-2.47.68-.52-2.49.41-3.73-2.19-1.22.72-2.48-1.86-.22.62-3.09,2.64.91,2.47-1.19-2.05-2.23-.8-2.14-2.26.96-.28,2.73-.88-2.41,1.24-1.25,3.18-.79,1.9,1.06,1.96,2.93,1.44-.18,3.16-.05-.46-1.88,2.4-1.3,2.36-2.2,3.78,2,.3,2.99,1.07.77,3.03-.17.94.67,1.38,3.79,3.21,2.51,1.83,1.69,2.93,1.75,3.73,1.52-.08,2.16-.84-.11-1.33-.94-.44,1.25-2.36.68-.56,2.79-1.58,1.05-2.21.52-.59,1.55-2.11.46Z"/>
        <path id="TN" class="cls-2" d="M502.09,374.944l-1.2-5.86-1.72-1.33-.03-.81-2.29-1.98-.25-2.53,1.73-1.88.66-2.82-.45-3.28.57-1.79,3.06-1.41,1.96.42-.08,1.77,2.38-1.29.2.67-1.41,1.71-.01,1.6.97.85-.37,2.96-1.85,1.71.53,1.83,1.45.06.71,1.59,1.07.52-.16,2.55-1.37.95-.86,1.05-1.93,1.26.3,1.35-.24,1.38Z"/>
        <path id="TR" class="cls-2" d="M579,336.854l4.02,1.43,3.27-.57,2.41.33,3.31-1.94,2.99-.18,2.7,1.83.48,1.3-.27,1.79,2.08.91,1.1,1.06-1.92,1.03.88,4.11-.55,1.1,1.53,2.82-1.34.59-.98-.89-3.26-.45-1.2.55-3.19.54-1.51-.06-3.23,1.31-2.31.01-1.49-.66-3.09.97-.92-.68-.15,1.94-.75.76-.75.76-1.03-1.57,1.06-1.3-1.71.3-2.35-.8-1.93,2-4.26.39-2.27-1.86-3.02-.12-.65,1.44-1.94.41-2.71-1.85-3.06.06-1.66-3.48-2.05-1.96,1.36-2.78-1.78-1.72,3.11-3.48,4.32-.15,1.18-2.81,5.34.49,3.37-2.42,3.27-1.06,4.64-.08Zm-27.25,2.39-2.34,1.98-.88-1.71.04-.76.67-.41.87-2.33-1.37-.99,2.86-1.18,2.41.5.33,1.44,2.45,1.2-.51.91-3.33.2Z"/>
        <path id="TT" class="cls-2" d="M302.56,433.494l1.61-.37.59.1-.11,2.11-2.34.31-.51-.25.82-.78Z"/>
        <path id="TW" class="cls-2" d="M816.95,393.524l-1.69,4.87-1.2,2.48-1.48-2.55-.32-2.25,1.65-3,2.25-2.32,1.28.91Z"/>
        <path id="TZ" class="cls-2" d="M570.56,466.284l.48.31,10.16,5.67.2,1.62,4.02,2.79-1.29,3.45.16,1.59,1.8,1.02.08.73-.77,1.7.16.85-.18,1.35.98,1.76,1.16,2.79,1.02.62-2.23,1.64-3.06,1.1-1.68-.04-1,.85-1.95.07-.74.36-3.37-.8-2.11.23-.78-3.86-.95-1.32-.57-.78-2.74-.52-1.6-.85-1.78-.47-1.12-.48-1.17-.71-1.51-3.55-1.63-1.57-.56-1.62.28-1.46-.5-2.57,1.16-.13,1.01-1.01,1.1-1.46.69-.58-.03-.91-.6-.63-.16-1.1.8-.35.17-1.64-1.12-1.57.99-.34,3.07.04Z"/>
        <path id="UA" class="cls-2" d="M564.63,292.744l1.04.19.71-1.04.85.23,2.91-.44,1.79,2.57-.7.92.23,1.39,2.24.21,1,1.93-.06.87,3.56,1.54,2.15-.69,1.73,2.04,1.64-.04,4.13,1.4.03,1.27-1.13,2.23.61,2.33-.44,1.39-2.71.31-1.44,1.16-.09,1.83-2.24.33-1.87,1.32-2.62.21-2.42,1.52-1.32,1.03,1.49,1.47,1.37.96,2.86-.24-.55,1.42-3.07.68-3.81,2.27-1.55-.79.61-1.85-3.06-1.16.5-.77,3.16-1.63-.4-.81-.45.41-.44-.22-4.36-1.02-.19-1.51-2.6.5-1.04,2.23-2.17,2.95-1.28-.68-1.31.64-1.25-.73.7-.44.49-1.37.77-1.29-.2-.72.59-.32.27.56,1.66.11.74-.29-.52-.42.19-.6-.98-1.04-.4-1.72-1.02-.67.2-1.41-1.27-1.12-1.15-.16-2.07-1.31-1.86.42-.67.62-1.18-.01-.71.98-2.07.4-.95.64-1.31-1.01-1.79-.02-1.74-.46-1.21.89-.2-1.12-1.55-1.14.55-1.71.77-1.1.62.24-.73-1.92,2.55-3.61,1.39-.51.3-1.24-1.41-3.89,1.34-.17,1.54-1.23,2.17-.1,2.83.36,3.13,1.08,2.21.09,1.05.65,1.05-.78.74,1.05,2.53-.22,1.11.43.19-2.26.86-1Z"/>
        <path id="UG" class="cls-2" d="M564.85,466.5l-3.07-.04-.99.34-1.67.86-.68-.29.02-2.1.65-1.06.16-2.24.59-1.29,1.07-1.46,1.08-.74.9-.99-1.12-.37.17-3.26,1.15-.77,1.78.63,2.26-.65h1.97l1.73-1.28,1.33,1.94.33,1.4,1.23,3.2-1.02,2.03-1.38,1.84-.8,1.13.02,2.95Z"/>
        <path id="US" class="cls-2" d="M109.5,280.054h0l-1.54-1.83-2.47-1.57-.79-4.36-3.61-4.13-1.51-4.94-2.69-.34-4.46-.13-3.29-1.54-5.8-5.64-2.68-1.05-4.9-1.99-3.88.48-5.51-2.59-3.33-2.43-3.11,1.21.58,3.93-1.55.36-3.24,1.16-2.47,1.86-3.11,1.16-.4-3.24L51,248.9l2.98-1.77-.77-1.46-3.57,3.22-1.91,3.77-4.04,3.95,2.05,2.65-2.65,3.85-3.01,2.21-2.81,1.59-.69,2.29-4.38,2.63-.89,2.36-3.28,2.13-1.92-.38-2.62,1.38-2.85,1.67-2.33,1.63L13.5,282l-.44-.81,3.07-2.27,2.74-1.51,2.99-2.71,3.48-.56,1.38-2.06,3.89-3.05.63-1.03,2.07-1.83.48-4L35.22,259l-3.23,1.64-.9-.93-1.52,1.95-1.83-2.73-.76,1.94-1.05-2.7-2.8,2.17H21.41l-.24-3.23.51-2.02-1.81-1.98-3.65,1.07-2.37-2.63-1.92-1.36-.01-3.25-2.16-2.48,1.08-3.41,2.29-3.37,1-3.15,2.27-.45,1.92.99,2.26-3.01,2.04.54,2.14-1.96-.52-2.92-1.57-1.16,2.08-2.52-1.72.07-2.98,1.43-.85,1.43-2.21-1.43-3.97.73-4.11-1.56-1.18-2.65-3.55-3.91,3.94-2.87,6.25-3.41h2.31l-.38,3.48,5.92-.27-2.28-4.34-3.45-2.72-1.99-3.64-2.69-3.17-3.85-2.38,1.57-4.03,4.97-.25,3.54-3.58.67-3.92,2.86-3.91,2.73-.95,5.31-3.76,2.58.57,4.31-4.61,4.24,1.83,2.03,3.87,1.25-1.65,4.74.51-.17,1.95,4.29,1.43,2.86-.84,5.91,2.64,5.39.78,2.16,1.07,3.73-1.34,4.25,2.46,3.05,1.13-.02,27.65-.01,35.43,2.76.17,2.73,1.56,1.96,2.44,2.49,3.6,2.73-3.05,2.81-1.79,1.49,2.85,1.89,2.23,2.57,2.42,1.75,3.79,2.87,5.88,4.77,3.2.08,3.12Zm175.93,34.43-1.25-1.19-1.88.7-.93-1.08-2.14,3.1-.86,3.15-1,1.82-1.19.62-.9.2-.28.98h-5.17l-4.26.03-1.27.73-2.87,2.73.29.54.17,1.51-2.1,1.27-2.3-.32-2.2-.14-1.33.44.25,1.15h0l.05.37-2.42,2.27-2.11,1.09-1.44.51-1.66,1.03-2.03.5-1.4-.19-1.73-.77.96-1.45.62-1.32,1.32-2.09-.14-1.57-.5-2.24-1.04-.39-1.74,1.7-.56-.03-.14-.97,1.54-1.56.26-1.79-.23-1.79-2.08-1.55-2.38-.8-.39,1.52-.62.4-.5,1.95-.26-1.33-1.12.95-.7,1.32-.73,1.92-.14,1.64.93,2.38-.08,2.51-1.14,1.84-.57.52-.76.41-.95.02-.26-.25-.76-1.98-.02-.98.08-.94-.35-1.87.53-2.18.63-2.71,1.46-3.03-.42.01-2.06,2.54-.38-.46,1.1-1.42,1.67-2.57,1.91-.36,2.19-.8,2.21.42.09.02,2.47-.36-1.4-1.61-.75-.13-.86-.16-.59-1.14-2.75.36-2.49.9-1.97-1.55-1.59-.52.9-2.17-2.48,1.37-2.25,1.33-2.16,1.04-1.72-1.4-2.81.85.01-.6,1.9-1.73L221.4,312l2.86-1.37-3.45-1.09-2.27.55-2.72-1.3-2.86-.67-1.96-.26-.87-.72-.5-2.35-.95.02-.01,1.64H131.06l.95,3.47.45,3.41-.69,1.09-1.49-3.91-4.05-1.42-.34.82.82,1.94.89,3.53.51,5.42-.34,3.59-.34,3.54-1.1,3.61.9,2.9.1,3.2-.61,3.05,1.49,1.99.39,2.95,2.17,2.99,1.24,1.17-.1.82,2.34,4.85,2.72,3.45.34,1.87.71.55,2.6.33,1,.91,1.57.17.31.96,1.31.4,1.82,1.92.47,1.7,3.19-.25,3.56-.36-.26.65,4.23,1.6,6.4,2.31,5.58-.02h2.22l.01-1.35h4.86l1.02,1.16,1.43,1.03,1.67,1.43.93,1.69.7,1.77,1.45.97,2.33.96,1.77-2.53,2.29-.06,1.98,1.28,1.41,2.18.97,1.86,1.65,1.8.62,2.19.79,1.47,2.19.96,1.99.68,1.09-.09-.53-1.06-.14-1.5.03-2.16.65-1.42,1.53-1.51,2.79-1.37,2.55-2.37,2.36-.75,1.74-.23,2.04.74,2.45-.4,2.09,1.69,2.03.1,1.05-.61,1.04.47.53-.42-.6-.63.05-1.3-.5-.86,1.16-.5,2.14-.22,2.49.36,3.17-.41,1.76.8,1.36,1.5.5.16,2.83-1.46,1.09.49,2.19,2.68.79,1.75-.58,2.1.42,1.23,1.3,2.4,1.49,2.68,1.07.71.44,1.35,1.38.37.84-.39.7-1.89.12-1.21.09-2.1-1.33-3.65-.02-1.37-1.25-2.25-.94-2.75-.5-2.25.43-2.31,1.32-1.94,1.58-1.57,3.08-2.16.4-1.12,1.42-1.23,1.4-.22,1.84-1.98,2.9-1.01,1.78-2.53-.39-3.46-.29-1.21-.8-.24-.12-3.35-1.93-1.14,1.85.56-.6-2.26.54-1.55.33,2.97,1.43,1.36-.87,2.4.26.14,1.58-2.81.9-1.38-.04-1.35-.7-.64-.58-1.94.92.9.62.19.21.92,2.04-2.78.61-2.62-.83-.17.85-1.02-.08.45,1.79-.01,3.93-1.11-.83-.7-4.12.7,2.34-1.07,1.63-.18,1.22-.19,2.07-.65,1.35.07,1.89-.61.22-1.07-.84-.84.29,1.37-1.16-.09-.93-1.99.03-2.01.48-.86,1.48-2.28,2.96-1.15,2.88-1.34,2.99-1.9-.48-1.29-1.83-2.25ZM45.87,264.044l-1.5.8-2.55,1.86.43,2.42,1.43,1.32,2.8-1.95,2.43-2.47-1.19-1.63ZM.25,235.474l2.04-1.26.23-.68-2.27-.67Zm8.5,15.37-2.77.97,1.7,1.52,1.84,1.04,1.72-.87-.27-2.15Zm97.35,32.5-2.69.38-1.32-.62-.17,1.52.52,2.07,1.42,1.46,1.04,2.13,1.69,2.1,1.12.01-2.44-3.7ZM37.38,404.024l-1-.28-.27.26.02.19.32.24.48.63.94-.21.23-.36Zm-2.99-.54,1.5.09.09-.32-1.38-.13Zm5.89,3.29-.5-.26-1.07-.5-.21-.06-.16.28.19.58-.49.48-.14.33.46,1.08-.08.83.7.42.41-.49.9-.46,1.1-.63.07-.16-.71-1.04Zm-7.86-5.14-.75.41.11.12.36.68.98.11.2.04.15-.17-.81-.99Zm-4.4-1.56-.43.3-.15.22.94.55.33-.3-.06-.7Z"/>
        <path id="UY" class="cls-2" d="M313.93,552.044l1.82-.34,2.81,2.5,1.04-.09,2.89,2.08,2.2,1.82,1.62,2.25-1.24,1.57.78,1.9-1.21,2.12-3.17,1.88-2.07-.68-1.52.37-2.59-1.46-1.9.11-1.71-1.87.22-2.16.61-.74-.03-3.3.75-3.37Z"/>
        <path id="UZ" class="cls-2" d="M662.01,351.2l.08-2.16-3.73-1.52-2.93-1.75-1.83-1.69-3.21-2.51-1.38-3.79-.94-.67-3.03.17-1.07-.77-.3-2.99-3.78-2-2.36,2.2-2.4,1.3.46,1.88-3.16.05-.11-14.13,7.22-2.35.52.35,4.35,2.84,2.29,1.48,2.68,3.5,3.29-.56,4.81-.3,3.35,2.8-.21,3.8,1.37.03.57,3.06,3.57.12.76,1.75,1.05-.02,1.23-2.65,3.69-2.61,1.61-.7.83.37-2.35,2.43,2.07,1.4,2-.93,3.32,1.96-3.59,2.64-2.13-.36-1.16.1-.4-1.02.58-1.71-3.75.86-.89,2.35-1.33,2.01-2.34-.17-.73,1.59,2.06.86.6,2.66-1.57,3.57-2.12-.74Z"/>
        <path id="VE" class="cls-2" d="M275.5,430.6l-.08.67-1.65.33.92,1.29-.04,1.49-1.23,1.64,1.06,2.24,1.21-.18.63-2.04-.87-1-.14-2.14,3.49-1.16-.39-1.34.98-.9,1.01,2,1.97.05,1.82,1.58.11.94,2.51.02,3-.29,1.61,1.27,2.14.35,1.57-.88.03-.72,3.48-.17,3.36-.04-2.38.84.95,1.34,2.25.21,2.12,1.39.45,2.26,1.46-.07,1.1.67-2.22,1.65-.25,1.03.96,1.04-.69.52-1.73.45.06,1.3-.76.77,1.89,2.12.38.79-1.03,1.07-3.14,1.04-2.01.44-.81.66-2.23-.7-2.08-.36-.52.26,1.25.72-.11,1.87.39,1.76,2.37.24.16.58-2.01.8-.32,1.18-1.16.45-2.08.65-.54.86-2.18.18-1.55-1.48-.85-2.77-.75-.98-1.02-.61,1.42-1.39-.09-.63-.8-.83-.56-1.85.22-2.01.62-.94.51-1.5-.99-.49-1.6.32-2.02-.15-1.13.3-1.98-2.41-1.63-.36-3.6.27-.67-.98-.69-.23-.1-.59.33-1.04-.22-1.13-.62-.62-.36-1.3-1.44-.18.77-1.66.35-2.01.81-1.06,1.09-.81.71-1.42Z"/>
        <path id="VN" class="cls-2" d="M778.46,402.124l-3.74,2.56-2.34,2.81-.62,2.05,2.15,3.09,2.62,3.82,2.54,1.79,1.71,2.33,1.28,5.32-.38,5.02-2.33,1.87-3.22,1.83-2.28,2.36-3.5,2.62-1.02-1.81.79-1.91-2.08-1.61,2.43-1.14,2.94-.2-1.23-1.73,4.71-2.19.35-3.42-.65-1.92.51-2.88-.71-2.04-2.12-2.02-1.77-2.57-2.33-3.46-3.36-1.76.81-1.07,1.79-.77-1.09-2.59-3.45-.03-1.26-2.72-1.64-2.37,1.51-.74,2.23.02,2.73-.35,2.39-1.62,1.35,1.14,2.57.55-.45,1.74,1.34,1.22Z"/>
        <path id="VU" class="cls-2" d="M946.12,510.154l-.92.38-.94-1.27.1-.78Zm-2.07-4.44.46,2.33-.75-.36-.58.16-.4-.8-.06-2.21Z"/>
        <path id="YE" class="cls-2" d="M624.41,416.584l-2.03.79-.54,1.28-.07.99-2.79,1.22-4.48,1.35-2.51,2.03-1.23.15-.84-.17-1.64,1.2-1.79.55-2.35.15-.71.16-.61.75-.74.21-.43.73-1.39-.06-.9.38-1.94-.14-.73-1.67.08-1.57-.45-.85-.55-2.12-.81-1.19.56-.14-.29-1.32.34-.56-.12-1.26,1.23-.93-.29-1.23.75-1.43,1.15.76.76-.27,3.23-.07.52.3,2.71.29,1.07-.15.7.97,1.31-.48,2.01-3.07,2.62-1.32,8.08-1.13,2.2,4.84Z"/>
        <path id="ZA" class="cls-2" d="M563.88,548.964l-.55.46-1.19,1.63-.78,1.66-1.59,2.33-3.17,3.38-1.98,1.98-2.12,1.51-2.93,1.3-1.43.17-.36.93-1.7-.5-1.39.64-3.04-.65-1.7.41-1.16-.18-2.89,1.33-2.39.54-1.73,1.28-1.28.08-1.19-1.21-.95-.06-1.21-1.51-.13.47-.37-.91.02-1.96-.91-2.23.9-.6-.07-2.53-1.84-3.05-1.41-2.74v-.01l-2.01-4.15,1.34-1.57,1.11.87.47,1.36,1.26.23,1.76.6,1.51-.23,2.5-1.63v-11.52l.76.46,1.66,2.93-.26,1.89.63,1.1,2.01-.32,1.4-1.39,1.33-.93.69-1.48,1.37-.72,1.18.38,1.34.87,2.28.15,1.79-.72.28-.96.49-1.47,1.53-.25.84-1.15.93-2.03,2.52-2.26,3.97-2.22,1.14.03,1.36.51.94-.36,1.49.3,1.34,4.26.73,2.17-.5,3.43.24,1.11-1.42-.57-.81.22-.26.9-.77,1.17.03,1.08,1.67,1.7,1.64-.34.57-1.39,2.13.03-.7,2.28-.33,2.62-.73,1.43Zm-7.13-.96-1.22-.98-1.31.65-1.52,1.25-1.5,2.03,2.1,2.48,1-.32.52-1.03,1.56-.5.48-1.05.86-1.56Z"/>
        <path id="ZM" class="cls-2" d="M567.36,489.464l1.32,1.26.71,2.4-.48.77-.56,2.3.54,2.36-.88.99-.85,2.66,1.47.74-8.51,2.38.27,2.05-2.13.4-1.59,1.15-.34,1.01-1.01.22-2.44,2.4-1.55,1.89-.95.07-.91-.34-3.13-.32-.5-.22-.03-.24-1.1-.66-1.82-.17-2.3.67-1.83-1.82-1.89-2.38.13-9.16,5.84.04-.24-.99.42-1.07-.49-1.33.32-1.38-.3-.88.97.07.16.88,1.31-.07,1.78.26.94,1.29,2.24.4,1.72-.9.63,1.49,2.15.4,1.03,1.22,1.15,1.57,2.15.03-.24-3.08-.77.51-1.96-1.1-.76-.51.35-2.85.5-3.35-.63-1.25.8-1.8.75-.33,3.77-.48,1.1.29,1.17.71,1.12.48,1.78.47Z"/>
        <path id="ZW" class="cls-2" d="M562.96,527.254l-1.49-.3-.95.36-1.35-.51-1.14-.03-1.79-1.36-2.17-.46-.82-1.9-.01-1.05-1.2-.32-3.17-3.25-.89-1.71-.56-.52-1.08-2.35,3.13.32.91.34.95-.07,1.55-1.89,2.44-2.4,1.01-.22.34-1.01,1.59-1.15,2.13-.4.18,1.08,2.34-.06,1.3.61.6.72,1.34.21,1.45.94.01,3.69-.55,2.04-.12,2.2.45.88-.31,1.74-.43.27-.74,2.15Z"/>
      </g>
      <g class="cls-3">
        <path id="l-two" class="cls-4" d="M562.281,303.443l-20.156,17.188"/>
      </g>
    </g>
  </g>
</svg>
